<?xml version="1.0" encoding="UTF-8"?>
<svg version="1.1" xmlns="http://www.w3.org/2000/svg" width="501" height="501">
<path d="M0 0 C165.33 0 330.66 0 501 0 C501 165.33 501 330.66 501 501 C335.67 501 170.34 501 0 501 C0 335.67 0 170.34 0 0 Z " fill="#B7E06B" transform="translate(0,0)"/>
<path d="M0 0 C126.72 0 253.44 0 384 0 C382 4 382 4 379.875 4.75 C379.25625 4.8325 378.6375 4.915 378 5 C378 5.66 378 6.32 378 7 C375.4453125 8.7265625 375.4453125 8.7265625 372.125 10.625 C371.03445313 11.25664062 369.94390625 11.88828125 368.8203125 12.5390625 C366 14 366 14 364 14 C364 14.66 364 15.32 364 16 C362.56429734 16.81567174 361.12636566 17.62742093 359.6875 18.4375 C358.88699219 18.88996094 358.08648437 19.34242187 357.26171875 19.80859375 C355 21 355 21 352 22 C352 22.66 352 23.32 352 24 C351.07767578 24.48919922 351.07767578 24.48919922 350.13671875 24.98828125 C348.92435547 25.64376953 348.92435547 25.64376953 347.6875 26.3125 C346.88699219 26.74175781 346.08648437 27.17101562 345.26171875 27.61328125 C343.00229956 28.86723295 343.00229956 28.86723295 341.51953125 30.54296875 C339.55098956 32.43054214 337.53795035 33.02617905 335 34 C333.24607056 35.02110485 331.51763396 36.08684484 329.8125 37.1875 C328.85859375 37.80238281 327.9046875 38.41726562 326.921875 39.05078125 C323.27757859 41.48193621 319.72148714 44.02342131 316.19140625 46.6171875 C314 48 314 48 311.83984375 48.4453125 C311.23269531 48.62835938 310.62554687 48.81140625 310 49 C309.31183112 50.32236372 308.64646724 51.65675679 308 53 C306.15234375 54.2734375 306.15234375 54.2734375 303.9375 55.375 C299.67665001 57.58815995 295.77838726 60.11107629 291.84765625 62.86328125 C290 64 290 64 288 64 C288 64.66 288 65.32 288 66 C285.98828125 67.62109375 285.98828125 67.62109375 283.3125 69.4375 C282.44238281 70.03433594 281.57226562 70.63117188 280.67578125 71.24609375 C278.89971257 72.4102614 277.09270789 73.52860751 275.2578125 74.59765625 C272.90982526 75.85688271 272.90982526 75.85688271 271.5625 78 C269.47499143 80.67201097 267.01648313 81.49175844 264 83 C262.31066078 84.6436814 260.64740076 86.3142876 259 88 C256.72604549 89.82721301 254.41477873 91.59499625 252.0859375 93.3515625 C249.99676924 94.92641393 249.99676924 94.92641393 248.3515625 96.7109375 C247 98 247 98 245 98 C245 98.66 245 99.32 245 100 C243.234375 101.55859375 243.234375 101.55859375 240.75 103.4375 C232.21793623 110.1179244 223.92575207 117.05347843 217.59765625 125.9296875 C216 128 216 128 213.6796875 130.28125 C210.48493045 133.52257785 207.7829848 136.98398862 205.0625 140.625 C204.53325928 141.33213135 204.00401855 142.0392627 203.45874023 142.76782227 C199.41329905 148.26006838 196.05125069 153.89749861 193 160 C192.17552928 161.52565609 191.34241622 163.04667897 190.5 164.5625 C190.09910156 165.28566406 189.69820312 166.00882813 189.28515625 166.75390625 C187.88489044 169.20117932 186.41415202 171.59812742 184.9375 174 C182.56735009 177.90770869 180.64320503 181.8502585 178.86328125 186.0546875 C178 188 178 188 176.5 190.4375 C168.38763229 204.29612817 164.34331655 221.64464637 160 237 C155.18600136 235.33869851 151.15271548 232.70012815 146.875 230 C137.49068819 224.17402673 127.83811116 219.01106974 118 214 C117.28537598 213.63245605 116.57075195 213.26491211 115.83447266 212.88623047 C105.18729782 207.41259551 94.40131043 202.5017942 83.25 198.125 C75.38589675 195.02701993 67.70952631 191.46004884 60 188 C60 187.34 60 186.68 60 186 C58.68 186 57.36 186 56 186 C55.29502012 190.24425077 54.60199689 194.49025481 53.91870117 198.73803711 C53.6860821 200.17440809 53.45053405 201.61030864 53.21166992 203.0456543 C46.47205106 243.61160548 48.50078666 285.35031016 59 325 C59.38212646 326.46747681 59.38212646 326.46747681 59.77197266 327.96459961 C61.04375418 332.76393556 62.38000753 337.37847358 64.375 341.9375 C64.80554688 342.93394531 65.23609375 343.93039062 65.6796875 344.95703125 C66.11539063 345.96121094 66.55109375 346.96539062 67 348 C67.83505699 350.04096228 68.66840537 352.08262452 69.5 354.125 C71.47451234 358.88890278 73.68221294 363.47571569 76.08203125 368.0390625 C77 370 77 370 77 372 C77.66 372 78.32 372 79 372 C80.10791567 373.60198617 81.13542692 375.25982842 82.125 376.9375 C85.15401315 381.87319722 88.50724408 386.03701324 92.49609375 390.22265625 C94 392 94 392 94 394 C94.74378906 394.25394531 95.48757812 394.50789063 96.25390625 394.76953125 C99.16694603 396.07480512 100.70403928 397.4363485 102.9375 399.6875 C111.40108767 407.43287973 121.91953224 411.52994282 133 414 C134.5632936 414.39268742 136.12588059 414.78820677 137.6875 415.1875 C138.780625 415.455625 139.87375 415.72375 141 416 C137.05829384 419.4242621 133.03911543 421.64260287 128.375 423.875 C126.93411868 424.5791411 125.49401501 425.2848757 124.0546875 425.9921875 C123.35698242 426.33475586 122.65927734 426.67732422 121.94042969 427.03027344 C119.42293224 428.28838867 116.95931688 429.63205171 114.5 431 C108.1874595 434.4850484 101.75242121 437.70565953 95.27978516 440.88085938 C93.67631085 441.66800076 92.07457453 442.45868759 90.47412109 443.25195312 C87.88370583 444.53291178 85.28663168 445.79933587 82.6875 447.0625 C81.86894531 447.46895752 81.05039063 447.87541504 80.20703125 448.29418945 C79.44132812 448.6624585 78.675625 449.03072754 77.88671875 449.41015625 C77.20826904 449.74152588 76.52981934 450.07289551 75.83081055 450.41430664 C74 451 74 451 71 450 C71 448.02 71 446.04 71 444 C70.67128906 444.56847656 70.34257813 445.13695312 70.00390625 445.72265625 C62.70102064 457.57747598 52.78453781 462.41769031 39.625 465.75 C26.55586374 468.37524134 13.17758594 467.09813216 0 466 C0 312.22 0 158.44 0 0 Z " fill="#FEFEFE" transform="translate(0,0)"/>
<path d="M0 0 C0.66 0 1.32 0 2 0 C2 66.33 2 132.66 2 201 C-163.33 201 -328.66 201 -499 201 C-499 192.75 -499 184.5 -499 176 C-483.19642857 177.875 -483.19642857 177.875 -477.625 179.0625 C-469.70361647 180.72259193 -461.82601453 181.14167375 -453.75 181.3125 C-452.98107422 181.34230957 -452.21214844 181.37211914 -451.41992188 181.40283203 C-446.11428419 181.45699471 -443.22103013 180.48126196 -439 177 C-437.91900094 175.91393771 -436.85508505 174.81049007 -435.8125 173.6875 C-431.66872399 169.9549384 -427.24982759 168.4506346 -422.0625 166.6875 C-412.17241677 163.29191114 -403.79553272 158.59318734 -395 153 C-393.13310694 151.83025911 -391.26590286 150.66101451 -389.3984375 149.4921875 C-381.23467643 144.35440797 -373.1553552 139.15682925 -365.27514648 133.59155273 C-361.73938029 131.11814788 -358.1105744 128.80914112 -354.47045898 126.49243164 C-353.56275757 125.91416626 -353.56275757 125.91416626 -352.63671875 125.32421875 C-352.0339209 124.94056152 -351.43112305 124.5569043 -350.81005859 124.16162109 C-349.03711944 123.02382173 -347.27683324 121.86880588 -345.51953125 120.70703125 C-327.79832816 109.03318245 -309.03844469 100.44732399 -288.95703125 93.66552734 C-287.11202384 93.03809593 -285.27446801 92.38887409 -283.4375 91.73828125 C-281.8596875 91.18720703 -281.8596875 91.18720703 -280.25 90.625 C-279.34765625 90.30789063 -278.4453125 89.99078125 -277.515625 89.6640625 C-274.81667026 88.9516055 -272.77425443 88.65721733 -270 89 C-268.33203125 90.28515625 -268.33203125 90.28515625 -266.8125 92.0625 C-261.52384974 97.75618912 -255.32687848 102.32738418 -248 105 C-248 105.66 -248 106.32 -248 107 C-247.32582031 107.12246094 -246.65164062 107.24492187 -245.95703125 107.37109375 C-243.15798095 107.96640035 -240.43754831 108.72576723 -237.6875 109.51220703 C-215.67838081 115.5679388 -190.11157294 110.28301072 -170.3125 99.0625 C-168.96285156 98.30259766 -168.96285156 98.30259766 -167.5859375 97.52734375 C-164.5265464 95.720362 -161.52251423 93.8423275 -158.55859375 91.8828125 C-157 91 -157 91 -155 91 C-155 90.34 -155 89.68 -155 89 C-153.6015625 87.7734375 -153.6015625 87.7734375 -151.625 86.375 C-143.60299593 80.52532624 -136.22642448 74.78671051 -130 67 C-129.40316406 66.26652344 -128.80632812 65.53304687 -128.19140625 64.77734375 C-124.76193702 60.67176247 -124.76193702 60.67176247 -122.18789673 56.03390503 C-121.03870077 53.54576915 -120.00117473 51.8881452 -118 50 C-113.69102258 48.8714334 -109.4885939 49.11706045 -105.0625 49.2890625 C-103.15500977 49.31315689 -103.15500977 49.31315689 -101.20898438 49.33773804 C-97.825506 49.38594245 -94.44637915 49.46750177 -91.06427002 49.56726074 C-86.33587065 49.6995178 -81.60631374 49.7735905 -76.87670898 49.84799194 C-74.36420198 49.89081247 -71.85187991 49.94773219 -69.34008789 50.02139282 C-61.3516638 50.19962441 -53.85296393 49.47110588 -46 48 C-46.49756092 45.24358584 -46.49756092 45.24358584 -48 43 C-48.37109375 40.7109375 -48.37109375 40.7109375 -48 38 C-45.91015625 35.7890625 -45.91015625 35.7890625 -43.0625 33.625 C-42.05703125 32.84769531 -41.0515625 32.07039063 -40.015625 31.26953125 C-39.02046875 30.52058594 -38.0253125 29.77164062 -37 29 C-35.43625852 27.77241313 -33.87363741 26.5433968 -32.3125 25.3125 C-29.66811485 23.26164418 -26.99714876 21.24898566 -24.31640625 19.24609375 C-19.71319045 15.79783352 -15.16529474 12.28050925 -10.625 8.75 C-9.81933594 8.12609375 -9.01367188 7.5021875 -8.18359375 6.859375 C-7.41402344 6.26125 -6.64445312 5.663125 -5.8515625 5.046875 C-5.15885254 4.50901367 -4.46614258 3.97115234 -3.75244141 3.41699219 C-1.8990291 1.96919643 -1.8990291 1.96919643 0 0 Z " fill="#FEFEFE" transform="translate(499,300)"/>
<path d="M0 0 C37.62 0 75.24 0 114 0 C114.30882088 37.12230602 114.5672439 74.24339763 114.71491461 111.36662124 C114.73242385 115.75239168 114.75054443 120.1381594 114.76904297 124.52392578 C114.77271531 125.39702818 114.77638766 126.27013059 114.78017129 127.16969064 C114.84103878 141.29460225 114.95139272 155.41871362 115.08013915 169.54315099 C115.21120642 184.04347811 115.28885302 198.54338706 115.31723893 213.0442822 C115.33642016 221.98782983 115.39692157 230.92911556 115.51083054 239.87196657 C115.5850174 246.01013791 115.60716224 252.14714553 115.58901928 258.2857323 C115.58007671 261.82488386 115.59345913 265.36009421 115.66887665 268.89853859 C116.12090685 291.19362194 116.12090685 291.19362194 110.95877457 297.23908234 C108.12490024 299.92484969 105.081173 302.00747064 101.70563722 303.95198488 C99.11235678 305.54540526 97.0023775 307.58868762 94.8125 309.6875 C89.69869502 314.3242397 84.37151301 318.66713453 79 323 C78.19949219 323.66902344 77.39898437 324.33804687 76.57421875 325.02734375 C62.01896156 337.0574663 47.97694114 345.95889889 28.5625 345.4375 C27.34240234 345.43169922 26.12230469 345.42589844 24.86523438 345.41992188 C16.76412586 345.31225164 8.96850649 344.4425241 1 343 C-0.15234375 339.29052734 -0.15234375 339.29052734 1.21875 336.67578125 C1.8065625 335.79277344 2.394375 334.90976562 3 334 C6.77401796 326.82078857 10.35313724 319.67590199 13 312 C13.474375 310.80375 13.94875 309.6075 14.4375 308.375 C16.21329589 303.65804217 17.51019899 298.81122102 18.83984375 293.953125 C19.45411458 291.75431464 20.13669047 289.6201413 20.91015625 287.47070312 C24.02075358 278.77409035 25.61886049 270.07662936 27.125 261 C27.37804989 259.51808268 27.63195262 258.03631073 27.88671875 256.5546875 C28.37838955 253.68567099 28.8633119 250.81566194 29.34130859 247.94433594 C29.74888112 245.50373486 30.16212941 243.06406499 30.58447266 240.62597656 C42.02283259 174.20900663 31.6199338 98.74179298 9.9453125 35.296875 C8.85705354 31.50145945 8.40269767 27.92416031 8 24 C7.34 24 6.68 24 6 24 C5.49595192 21.89679937 4.99689492 19.79240209 4.5 17.6875 C4.08234375 15.92986328 4.08234375 15.92986328 3.65625 14.13671875 C3 11 3 11 3 8 C2.34 8 1.68 8 1 8 C0.67 5.36 0.34 2.72 0 0 Z " fill="#FEFEFE" transform="translate(387,0)"/>
<path d="M0 0 C2.0625 0.4375 2.0625 0.4375 4 1 C4 1.66 4 2.32 4 3 C4.54527344 3.17015625 5.09054688 3.3403125 5.65234375 3.515625 C10.48764863 5.06953495 15.09347271 6.86617481 19.7109375 8.9765625 C21.97363642 9.98821287 24.25454077 10.90938552 26.5625 11.8125 C39.3662337 16.89837258 51.75668261 22.69837036 64 29 C64.84852539 29.43393066 65.69705078 29.86786133 66.57128906 30.31494141 C86.78452808 40.6685067 86.78452808 40.6685067 96 47 C96.71671875 47.47179687 97.4334375 47.94359375 98.171875 48.4296875 C102.86811532 51.60434596 102.86811532 51.60434596 104 55 C103.37357442 56.35270589 102.70073456 57.68425181 102 59 C99.4234652 68.57273214 99.65991149 78.55898638 99.68432617 88.39086914 C99.68749836 91.06112079 99.66390557 93.73027411 99.63867188 96.40039062 C99.60553542 105.46663967 100.09413424 113.33403704 103 122 C103.54044178 124.46962117 103.9469573 126.94429022 104.375 129.4375 C107.16905263 143.60836182 113.8920642 155.86807846 123 167 C123.47179687 167.65742188 123.94359375 168.31484375 124.4296875 168.9921875 C129.60565936 175.73494004 136.41611507 178.63405939 144 182 C144 182.66 144 183.32 144 184 C144.66 184 145.32 184 146 184 C146 184.66 146 185.32 146 186 C148.97 186.99 148.97 186.99 152 188 C152 188.66 152 189.32 152 190 C152.7321875 190.09667969 153.464375 190.19335938 154.21875 190.29296875 C157.37723329 191.09589779 158.99596554 192.25372519 161.5 194.3125 C162.65822266 195.25609375 162.65822266 195.25609375 163.83984375 196.21875 C164.55269531 196.8065625 165.26554688 197.394375 166 198 C167.010625 198.763125 168.02125 199.52625 169.0625 200.3125 C169.701875 200.869375 170.34125 201.42625 171 202 C171 202.66 171 203.32 171 204 C169.42556152 204.52481283 167.85111166 205.04959153 166.27661133 205.57421875 C164.91167023 206.02936355 163.54692782 206.48510455 162.18237305 206.94140625 C159.04364718 207.99021163 155.90353429 209.03111048 152.75390625 210.046875 C139.91411554 214.20744463 127.96556527 219.82321202 116 226 C115.32936523 226.34498535 114.65873047 226.6899707 113.96777344 227.04541016 C106.35548607 230.97749923 99.03963344 235.10087299 92 240 C89.68999144 241.54556529 87.37763683 243.08716467 85.0625 244.625 C80.9358161 247.37194791 76.81283665 250.12414058 72.69921875 252.890625 C35.08836103 278.15164884 35.08836103 278.15164884 18.75 283.375 C12.56379058 285.45328833 8.64005163 288.38766088 4.0859375 293.01171875 C-0.37779705 297.26647697 -4.31267152 297.32248453 -10.3125 297.25 C-11.11357178 297.24395752 -11.91464355 297.23791504 -12.73999023 297.23168945 C-20.26356396 297.10864558 -27.57994667 296.24426252 -35 295 C-36.10649902 294.8153418 -36.10649902 294.8153418 -37.23535156 294.62695312 C-50.2341954 292.44145115 -50.2341954 292.44145115 -56 291 C-56 287.7 -56 284.4 -56 281 C-54.68733154 281.0314209 -54.68733154 281.0314209 -53.34814453 281.06347656 C-20.53089478 282.55356748 -20.53089478 282.55356748 7.95703125 268.203125 C11.03634311 264.81663118 13.15435891 261.20396026 15 257 C15.97608217 259.92824652 16.08226668 261.95613276 16 265 C24.1390936 262.67454469 31.43145278 258.90725655 38.92675781 255.05859375 C41.46129258 253.76446484 44.01078763 252.50226181 46.56201172 251.24145508 C54.55953885 247.28017016 62.5021523 243.20903203 70.4375 239.125 C71.55890381 238.55305908 72.68030762 237.98111816 73.83569336 237.3918457 C74.87862549 236.85261475 75.92155762 236.31338379 76.99609375 235.7578125 C77.93638428 235.2745752 78.8766748 234.79133789 79.84545898 234.29345703 C82.1322142 233.18279212 82.1322142 233.18279212 83 231 C82.17757812 230.82984375 81.35515625 230.6596875 80.5078125 230.484375 C59.02910772 225.82156149 42.87609208 215.25475718 29.25 197.9375 C28.75628906 197.32583984 28.26257813 196.71417969 27.75390625 196.08398438 C27.28339844 195.48779297 26.81289062 194.89160156 26.328125 194.27734375 C25.69245605 193.47671509 25.69245605 193.47671509 25.04394531 192.65991211 C23.87392407 190.79953456 23.42360232 189.14514317 23 187 C22.34 187 21.68 187 21 187 C17.46341676 180.14559124 14.17088538 173.26729141 11.28515625 166.11328125 C10.39921399 163.96709285 9.46636907 161.83987249 8.49609375 159.73046875 C4.6571575 151.31174891 2.37645674 143.16225701 0.47216797 134.14257812 C0.01668197 132.07569855 -0.49233862 130.03196271 -1.02734375 127.984375 C-6.00014901 108.8145609 -7.27220023 89.79761917 -7.25 70.0625 C-7.24931519 69.19544434 -7.24863037 68.32838867 -7.2479248 67.43505859 C-7.20466373 50.81336693 -6.5309256 34.51962867 -3.84326172 18.10058594 C-3.49119394 15.9461114 -3.1530351 13.78974856 -2.81640625 11.6328125 C-1.14764941 1.14764941 -1.14764941 1.14764941 0 0 Z " fill="#84BE4B" transform="translate(56,185)"/>
<path d="M0 0 C2.62122049 1.17137172 4.5980876 2.52379215 6.81640625 4.34765625 C7.97462891 5.29125 7.97462891 5.29125 9.15625 6.25390625 C9.86910156 6.84171875 10.58195313 7.42953125 11.31640625 8.03515625 C12.32703125 8.79828125 13.33765625 9.56140625 14.37890625 10.34765625 C15.01828125 10.90453125 15.65765625 11.46140625 16.31640625 12.03515625 C16.31640625 12.69515625 16.31640625 13.35515625 16.31640625 14.03515625 C14.74196777 14.55996908 13.16751791 15.08474778 11.59301758 15.609375 C10.22807648 16.0645198 8.86333407 16.5202608 7.4987793 16.9765625 C4.36005343 18.02536788 1.21994054 19.06626673 -1.9296875 20.08203125 C-14.76947821 24.24260088 -26.71802848 29.85836827 -38.68359375 36.03515625 C-39.35422852 36.3801416 -40.02486328 36.72512695 -40.71582031 37.08056641 C-48.32810768 41.01265548 -55.64396031 45.13602924 -62.68359375 50.03515625 C-64.99360231 51.58072154 -67.30595692 53.12232092 -69.62109375 54.66015625 C-73.74777765 57.40710416 -77.8707571 60.15929683 -81.984375 62.92578125 C-119.59523272 88.18680509 -119.59523272 88.18680509 -135.93359375 93.41015625 C-142.11980317 95.48844458 -146.04354212 98.42281713 -150.59765625 103.046875 C-155.0613908 107.30163322 -158.99626527 107.35764078 -164.99609375 107.28515625 C-165.79716553 107.27911377 -166.5982373 107.27307129 -167.42358398 107.2668457 C-174.94715771 107.14380183 -182.26354042 106.27941877 -189.68359375 105.03515625 C-190.79009277 104.85049805 -190.79009277 104.85049805 -191.91894531 104.66210938 C-204.91778915 102.4766074 -204.91778915 102.4766074 -210.68359375 101.03515625 C-210.68359375 97.73515625 -210.68359375 94.43515625 -210.68359375 91.03515625 C-209.80848145 91.05610352 -208.93336914 91.07705078 -208.03173828 91.09863281 C-175.21448853 92.58872373 -175.21448853 92.58872373 -146.7265625 78.23828125 C-143.64725064 74.85178743 -141.52923484 71.23911651 -139.68359375 67.03515625 C-138.70751158 69.96340277 -138.60132707 71.99128901 -138.68359375 75.03515625 C-130.54450015 72.70970094 -123.25214097 68.9424128 -115.75683594 65.09375 C-113.22333951 63.80015126 -110.67487775 62.53848125 -108.12475586 61.27807617 C-92.41458012 53.497507 -76.74075284 45.55687419 -61.59375 36.72265625 C-58.8379128 35.12464059 -56.05402568 33.60175953 -53.24609375 32.09765625 C-48.09381376 29.31160855 -43.07962751 26.31808149 -38.07250977 23.28149414 C-36.2792428 22.19421876 -34.48281878 21.11254236 -32.68359375 20.03515625 C-32.04357422 19.65133789 -31.40355469 19.26751953 -30.74414062 18.87207031 C-25.91864212 16.03515625 -25.91864212 16.03515625 -23.68359375 16.03515625 C-23.68359375 15.37515625 -23.68359375 14.71515625 -23.68359375 14.03515625 C-22.84957031 13.65875 -22.01554688 13.28234375 -21.15625 12.89453125 C-16.40788675 10.35210053 -12.35205983 7.07793657 -8.16210938 3.7109375 C-3.38186964 0.04430397 -3.38186964 0.04430397 0 0 Z " fill="#3F3F3D" transform="translate(210.68359375,374.96484375)"/>
<path d="M0 0 C1.23418806 3.70256418 0.6712742 4.27705609 -1 7.6875 C-3.23879022 12.38213766 -5.37374107 17.10191648 -7.4375 21.875 C-9.58796297 26.83226638 -11.80865021 31.7422061 -14.125 36.625 C-17.22478119 43.26619788 -19.64989559 50.06407238 -22 57 C-22.66 57 -23.32 57 -24 57 C-24.10699219 57.83917969 -24.21398437 58.67835937 -24.32421875 59.54296875 C-25.06740192 63.34480174 -26.33163635 66.75414938 -27.8125 70.3125 C-28.08239746 70.97403076 -28.35229492 71.63556152 -28.63037109 72.31713867 C-30.36069129 76.53356889 -32.16986418 80.70959594 -34.0546875 84.859375 C-35.82043485 88.8578442 -37.40326074 92.9317122 -39 97 C-39.66 97 -40.32 97 -41 97 C-41.17015625 97.61746094 -41.3403125 98.23492187 -41.515625 98.87109375 C-42.99292003 104.03376841 -44.72301175 108.87469646 -46.9765625 113.74609375 C-47.99756876 115.99464571 -48.91399955 118.26249244 -49.8125 120.5625 C-51.64361011 125.18387314 -53.5845629 129.75252934 -55.5625 134.3125 C-55.85552002 134.99449463 -56.14854004 135.67648926 -56.45043945 136.37915039 C-58.07406361 140.09925005 -59.87273046 143.53380199 -62 147 C-62.69579454 149.19130534 -62.69579454 149.19130534 -63 151 C-63.66 151 -64.32 151 -65 151 C-65.0825 151.99 -65.165 152.98 -65.25 154 C-65.78025993 157.77242063 -67.19223111 160.59693439 -68.97265625 163.9296875 C-69.96952857 165.93859371 -70.65701959 167.85849259 -71.3125 170 C-72.98008094 175.31949003 -75.28322896 180.34288806 -77.57543945 185.41601562 C-78.99791649 188.58855179 -80.22806199 191.61194637 -81 195 C-81.66 195 -82.32 195 -83 195 C-83.103125 195.83402344 -83.20625 196.66804687 -83.3125 197.52734375 C-84.08590577 201.43392174 -85.44975819 204.91723801 -87 208.5625 C-88.73148711 212.65844711 -90.32064118 216.57567572 -91 221 C-91.66 221 -92.32 221 -93 221 C-93.12375 222.093125 -93.2475 223.18625 -93.375 224.3125 C-94 228 -94 228 -96 231 C-96.66 231 -97.32 231 -98 231 C-98.16508057 231.5993335 -98.33016113 232.19866699 -98.50024414 232.81616211 C-100.35558138 239.29761566 -102.72385076 245.39676274 -105.4375 251.5625 C-105.81970703 252.44357422 -106.20191406 253.32464844 -106.59570312 254.23242188 C-108.07938241 257.64563993 -109.57200052 261.05386604 -111.10595703 264.44482422 C-112.56611916 267.67557665 -113.94039159 270.81760274 -115.04296875 274.19140625 C-116.12736809 277.37378634 -117.62564827 280.03132751 -119.3125 282.9375 C-122.58243847 288.87058423 -124.66216161 294.75254594 -126.68359375 301.23046875 C-128.46047133 306.31856035 -130.86325211 310.90952042 -133.3515625 315.6796875 C-135.65311369 320.31551337 -137.38627211 325.08865424 -139 330 C-142.73869249 330 -143.36550705 329.09514308 -146.0625 326.625 C-146.75472656 325.99851562 -147.44695312 325.37203125 -148.16015625 324.7265625 C-149.46076965 323.50602933 -150.73879097 322.26120903 -152 321 C-151.34 320.34 -150.68 319.68 -150 319 C-150 318.34 -150 317.68 -150 317 C-149.34 317 -148.68 317 -148 317 C-147.86464844 316.34515625 -147.72929687 315.6903125 -147.58984375 315.015625 C-145.9767064 308.17669539 -143.36915039 302.87047218 -139.6953125 296.90625 C-137.73016378 293.53742362 -136.38560823 290.13950707 -135.02734375 286.49609375 C-133.87592417 283.6985382 -132.48268452 281.13629442 -131 278.5 C-129.12524096 275.15621335 -127.48190999 271.89690382 -126.125 268.3125 C-122.86104967 259.75823017 -118.41491709 251.67625393 -114.21875 243.55078125 C-111.59101637 238.41768394 -109.28079088 233.63547985 -108 228 C-107.34 228 -106.68 228 -106 228 C-105.89171875 227.30390625 -105.7834375 226.6078125 -105.671875 225.890625 C-103.77688257 217.73775058 -99.14462612 210.07248768 -95.01953125 202.84375 C-93.79349819 200.62655611 -92.88924261 198.37131362 -92 196 C-90.68702613 192.99088868 -89.34427086 189.9952443 -88 187 C-87.34 187 -86.68 187 -86 187 C-85.505 184.03 -85.505 184.03 -85 181 C-84.34 181 -83.68 181 -83 181 C-83 179.02 -83 177.04 -83 175 C-82.34 175 -81.68 175 -81 175 C-80.505 172.03 -80.505 172.03 -80 169 C-79.34 169 -78.68 169 -78 169 C-77.79375 167.96875 -77.5875 166.9375 -77.375 165.875 C-75.76089075 159.29987851 -72.75231317 153.16241188 -70 147 C-69.34 147 -68.68 147 -68 147 C-67.88068115 146.27546631 -67.7613623 145.55093262 -67.63842773 144.80444336 C-66.9933954 141.97098773 -66.06484313 139.73121908 -64.78515625 137.12890625 C-64.12676758 135.77249023 -64.12676758 135.77249023 -63.45507812 134.38867188 C-62.99552734 133.45603516 -62.53597656 132.52339844 -62.0625 131.5625 C-58.0495487 123.4798275 -58.0495487 123.4798275 -55 115 C-54.34 115 -53.68 115 -53 115 C-52.90460938 114.15179688 -52.80921875 113.30359375 -52.7109375 112.4296875 C-51.90526935 108.54300268 -50.47575436 105.63128148 -48.625 102.125 C-46.05571438 97.17476021 -43.7965188 92.28387881 -42 87 C-41.34 87 -40.68 87 -40 87 C-39.9175 86.360625 -39.835 85.72125 -39.75 85.0625 C-38.19147053 78.69850468 -34.97757774 72.80627659 -32 67 C-31.34 67 -30.68 67 -30 67 C-29.87625 65.906875 -29.7525 64.81375 -29.625 63.6875 C-29 60 -29 60 -27 57 C-26.34 57 -25.68 57 -25 57 C-25.04382813 56.2678125 -25.08765625 55.535625 -25.1328125 54.78125 C-24.98666971 51.720848 -24.32912319 50.17046524 -22.875 47.5 C-20.83622552 43.62861925 -18.93282886 39.73499911 -17.125 35.75 C-14.97573404 31.04709588 -12.71901698 26.41964092 -10.375 21.8125 C-7.92824603 16.97288533 -5.77865933 12.12886298 -3.84375 7.06640625 C-2.81210699 4.53983611 -1.51248806 2.26873209 0 0 Z " fill="#99CA53" transform="translate(365,55)"/>
<path d="M0 0 C1.32 0.33 2.64 0.66 4 1 C5.52341537 8.61707683 5.93069441 13.92077227 2.140625 20.66015625 C0.72145213 23.57140471 -0.10973362 26.51260047 -1 29.625 C-2.41206446 34.41829694 -3.99664193 37.96423759 -7 42 C-10.10986416 47.51750092 -12.02072658 53.04525939 -13.93115234 59.07885742 C-15.8522243 64.9457387 -18.49488411 70.20334771 -21.3515625 75.6796875 C-23.65311369 80.31551337 -25.38627211 85.08865424 -27 90 C-30.73869249 90 -31.36550705 89.09514308 -34.0625 86.625 C-34.75472656 85.99851562 -35.44695312 85.37203125 -36.16015625 84.7265625 C-37.46076965 83.50602933 -38.73879097 82.26120903 -40 81 C-39.01 80.01 -39.01 80.01 -38 79 C-38 78.34 -38 77.68 -38 77 C-37.34 77 -36.68 77 -36 77 C-35.86464844 76.34515625 -35.72929687 75.6903125 -35.58984375 75.015625 C-33.9767064 68.17669539 -31.36915039 62.87047218 -27.6953125 56.90625 C-25.73016378 53.53742362 -24.38560823 50.13950707 -23.02734375 46.49609375 C-21.87592417 43.6985382 -20.48268452 41.13629442 -19 38.5 C-17.12524096 35.15621335 -15.48190999 31.89690382 -14.125 28.3125 C-12.35312199 23.66690387 -10.2248374 19.25351189 -8 14.8125 C-7.66758301 14.14710205 -7.33516602 13.4817041 -6.99267578 12.79614258 C-4.79502086 8.44785584 -2.44774916 4.2125326 0 0 Z " fill="#90C54E" transform="translate(253,295)"/>
<path d="M0 0 C3.47000311 1.1566677 3.84701459 1.85726716 5.6875 4.875 C6.12449219 5.57367188 6.56148438 6.27234375 7.01171875 6.9921875 C8 9 8 9 8 12 C8.66 12 9.32 12 10 12 C10 12.99 10 13.98 10 15 C10.66 15 11.32 15 12 15 C13.62109375 17.23046875 13.62109375 17.23046875 15.4375 20.1875 C16.33275391 21.63189453 16.33275391 21.63189453 17.24609375 23.10546875 C17.82488281 24.06066406 18.40367188 25.01585937 19 26 C19.56847656 26.90363281 20.13695313 27.80726563 20.72265625 28.73828125 C22 31 22 31 22 33 C22.66 33 23.32 33 24 33 C25.515625 35.125 25.515625 35.125 27.25 38 C29.88582437 42.272232 32.65991385 46.30023518 35.7109375 50.28125 C40 56 40 56 40 59 C40.66 59 41.32 59 42 59 C42.32613281 59.60328125 42.65226562 60.2065625 42.98828125 60.828125 C43.42527344 61.62734375 43.86226562 62.4265625 44.3125 63.25 C44.74175781 64.03890625 45.17101562 64.8278125 45.61328125 65.640625 C46.94419187 68.02861519 46.94419187 68.02861519 48.66796875 70.109375 C50 72 50 72 50 75 C50.66 75 51.32 75 52 75 C53.65625 77.1171875 53.65625 77.1171875 55.5 79.875 C58.01696681 83.62875168 58.01696681 83.62875168 61 87 C61.165 87.680625 61.33 88.36125 61.5 89.0625 C61.7475 90.0215625 61.7475 90.0215625 62 91 C62.99 91.495 62.99 91.495 64 92 C64 92.99 64 93.98 64 95 C64.66 95 65.32 95 66 95 C66.81567174 96.43570266 67.62742093 97.87363434 68.4375 99.3125 C68.88996094 100.11300781 69.34242188 100.91351563 69.80859375 101.73828125 C71 104 71 104 72 107 C72.66 107 73.32 107 74 107 C75.5078125 108.64453125 75.5078125 108.64453125 77.125 110.8125 C77.93324219 111.87404297 77.93324219 111.87404297 78.7578125 112.95703125 C80 115 80 115 80 118 C80.66 118 81.32 118 82 118 C82.33 119.65 82.66 121.3 83 123 C83.66 123 84.32 123 85 123 C87.04169485 125.90548882 88 127.40142046 88 131 C88.66 131 89.32 131 90 131 C92.24789535 134.07212365 94.14957682 137.24048042 96 140.5625 C97.84982989 143.95559834 97.84982989 143.95559834 100.0625 146.5 C102.41670029 149.53767779 103.59995465 152.42988434 105 156 C102.69 156.99 100.38 157.98 98 159 C94.56231286 155.75513285 92.30000467 151.9885239 89.8125 148 C89.34908203 147.27554688 88.88566406 146.55109375 88.40820312 145.8046875 C87.75174805 144.75667969 87.75174805 144.75667969 87.08203125 143.6875 C86.68218018 143.05199219 86.2823291 142.41648437 85.87036133 141.76171875 C85 140 85 140 85 137 C84.34 137 83.68 137 83 137 C82.56300781 136.19949219 82.56300781 136.19949219 82.1171875 135.3828125 C79.31580953 130.2909997 76.39190935 125.30039188 73.33203125 120.359375 C71.98087697 117.96612812 70.96200395 115.57142287 70 113 C69.34 113 68.68 113 68 113 C65 107.25 65 107.25 65 105 C63.515 104.505 63.515 104.505 62 104 C61.1484375 102.42578125 61.1484375 102.42578125 60.375 100.3125 C58.2029637 95.01067911 55.17957075 90.43428805 51.99755859 85.69848633 C49 81.1946389 49 81.1946389 49 79 C48.34 79 47.68 79 47 79 C46.72027344 78.38253906 46.44054687 77.76507813 46.15234375 77.12890625 C43.97432175 72.52774723 41.72883474 68.44949369 38.5 64.5 C35.42605797 60.73044609 33.38441854 56.94592951 31.32421875 52.55859375 C29.41025793 48.86052786 27.01182275 45.57707133 24.55078125 42.2265625 C22.3031132 38.99943204 21 36.98003123 21 33 C20.34 33 19.68 33 19 33 C18.0234375 31.20963542 17.046875 29.41927083 16.0703125 27.62890625 C15.08589976 25.83381685 15.08589976 25.83381685 13 25 C12.375 21.9375 12.375 21.9375 12 19 C11.34 19 10.68 19 10 19 C8.99491199 17.21118264 7.99607264 15.41885304 7 13.625 C6.1646875 12.12839844 6.1646875 12.12839844 5.3125 10.6015625 C4 8 4 8 4 6 C3.34 6 2.68 6 2 6 C2 5.01 2 4.02 2 3 C1.34 3 0.68 3 0 3 C0 2.01 0 1.02 0 0 Z " fill="#61A33D" transform="translate(75,239)"/>
<path d="M0 0 C0.3984375 3.16015625 0.3984375 3.16015625 0 7 C-2.13037418 9.20711676 -3.89917768 10.7254952 -6.375 12.4375 C-7.66704148 13.38751129 -8.95870606 14.33803538 -10.25 15.2890625 C-11.2090625 15.97790527 -11.2090625 15.97790527 -12.1875 16.68066406 C-14.65229314 18.47481036 -17.0129108 20.38592099 -19.375 22.3125 C-24.94179646 26.81654441 -30.69574443 31.06250021 -36.5 35.25390625 C-38.00032963 36.35632237 -39.50032847 37.4591888 -41 38.5625 C-41.77472656 39.11357422 -42.54945313 39.66464844 -43.34765625 40.23242188 C-44.07855469 40.77576172 -44.80945313 41.31910156 -45.5625 41.87890625 C-46.55443359 42.59929077 -46.55443359 42.59929077 -47.56640625 43.33422852 C-49.23382851 44.96436521 -49.23382851 44.96436521 -49.33984375 47.57006836 C-49.22386344 50.17770338 -49.22386344 50.17770338 -47 52 C-47.375 54.125 -47.375 54.125 -48 56 C-58.82608351 58.27260197 -69.47930334 58.2750827 -80.49267578 58.20581055 C-83.49390188 58.18753713 -86.49481768 58.18530171 -89.49609375 58.18554688 C-99.37599093 58.16684424 -109.16391985 58.01659772 -119 57 C-117.68 54.69 -116.36 52.38 -115 50 C-114.25363281 50.0721875 -113.50726563 50.144375 -112.73828125 50.21875 C-103.61027077 50.96814197 -94.46846034 51.23087571 -85.3125 51.375 C-84.09022705 51.41302734 -82.8679541 51.45105469 -81.60864258 51.49023438 C-64.5875556 51.64633848 -51.76733466 42.36940886 -39 32 C-38.12472656 31.29875 -37.24945313 30.5975 -36.34765625 29.875 C-30.92583661 25.49496057 -25.69891157 20.95824429 -20.546875 16.265625 C-16.95351415 13.069077 -13.23106208 10.04346523 -9.4921875 7.01953125 C-7.43093968 5.34920974 -5.39700262 3.65475103 -3.375 1.9375 C-1 0 -1 0 0 0 Z " fill="#484847" transform="translate(501,293)"/>
<path d="M0 0 C1.23418806 3.70256418 0.6712742 4.27705609 -1 7.6875 C-3.23879022 12.38213766 -5.37374107 17.10191648 -7.4375 21.875 C-9.58796297 26.83226638 -11.80865021 31.7422061 -14.125 36.625 C-17.22478119 43.26619788 -19.64989559 50.06407238 -22 57 C-22.66 57 -23.32 57 -24 57 C-24.10699219 57.83917969 -24.21398437 58.67835937 -24.32421875 59.54296875 C-25.06740192 63.34480174 -26.33163635 66.75414938 -27.8125 70.3125 C-28.08239746 70.97403076 -28.35229492 71.63556152 -28.63037109 72.31713867 C-30.36069129 76.53356889 -32.16986418 80.70959594 -34.0546875 84.859375 C-35.82043485 88.8578442 -37.40326074 92.9317122 -39 97 C-39.66 97 -40.32 97 -41 97 C-41.17015625 97.61746094 -41.3403125 98.23492187 -41.515625 98.87109375 C-42.99089199 104.02668107 -44.71601698 108.86270711 -46.96875 113.7265625 C-48.03782963 116.08339714 -48.99479636 118.46502377 -49.9375 120.875 C-50.62418351 122.5836617 -51.3117299 124.29197678 -52 126 C-52.391875 127.00417969 -52.78375 128.00835937 -53.1875 129.04296875 C-53.6 130.03941406 -54.0125 131.03585938 -54.4375 132.0625 C-54.80746094 132.98160156 -55.17742187 133.90070313 -55.55859375 134.84765625 C-57 137 -57 137 -59.53515625 137.87109375 C-62 138 -62 138 -64 137 C-62.14088656 132.11421397 -59.75499484 127.56703168 -57.33984375 122.9375 C-56.10755509 120.23580592 -55.43518104 117.92269736 -55 115 C-54.34 115 -53.68 115 -53 115 C-52.90460938 114.15179688 -52.80921875 113.30359375 -52.7109375 112.4296875 C-51.90526935 108.54300268 -50.47575436 105.63128148 -48.625 102.125 C-46.05571438 97.17476021 -43.7965188 92.28387881 -42 87 C-41.34 87 -40.68 87 -40 87 C-39.9175 86.360625 -39.835 85.72125 -39.75 85.0625 C-38.19147053 78.69850468 -34.97757774 72.80627659 -32 67 C-31.34 67 -30.68 67 -30 67 C-29.87625 65.906875 -29.7525 64.81375 -29.625 63.6875 C-29 60 -29 60 -27 57 C-26.34 57 -25.68 57 -25 57 C-25.04382813 56.2678125 -25.08765625 55.535625 -25.1328125 54.78125 C-24.98666971 51.720848 -24.32912319 50.17046524 -22.875 47.5 C-20.83622552 43.62861925 -18.93282886 39.73499911 -17.125 35.75 C-14.97573404 31.04709588 -12.71901698 26.41964092 -10.375 21.8125 C-7.92824603 16.97288533 -5.77865933 12.12886298 -3.84375 7.06640625 C-2.81210699 4.53983611 -1.51248806 2.26873209 0 0 Z " fill="#A3D15B" transform="translate(365,55)"/>
<path d="M0 0 C31.69113587 47.5367038 28.47544606 146.56725512 19 201 C18.77449048 202.32542319 18.54958703 203.65094961 18.32519531 204.9765625 C17.70868087 208.61329439 17.08186371 212.24815333 16.45043945 215.88232422 C16.19126345 217.38061923 15.9344368 218.87932249 15.67993164 220.37841797 C14.25910421 228.73954595 12.76820034 236.95534126 10 245 C9.67 245 9.34 245 9 245 C8.74919705 237.47591145 8.74919705 237.47591145 9.97705078 235.14599609 C11.08641473 232.81871468 11.35911127 231.08256539 11.5625 228.5234375 C11.63726562 227.688125 11.71203125 226.8528125 11.7890625 225.9921875 C11.93031311 224.23963364 12.07093261 222.48702881 12.2109375 220.734375 C12.28570312 219.90164063 12.36046875 219.06890625 12.4375 218.2109375 C12.49808594 217.45087402 12.55867188 216.69081055 12.62109375 215.90771484 C13 214 13 214 15 212 C15.42762046 208.9447883 15.42762046 208.9447883 15.5625 205.5 C15.9044665 199.191067 15.9044665 199.191067 17 197 C17.15067214 195.5534758 17.24861036 194.1012066 17.31640625 192.6484375 C17.35830078 191.79765625 17.40019531 190.946875 17.44335938 190.0703125 C17.48267578 189.18085938 17.52199219 188.29140625 17.5625 187.375 C17.60568359 186.4778125 17.64886719 185.580625 17.69335938 184.65625 C17.79956861 182.43765717 17.90161194 180.2189512 18 178 C18.66 178 19.32 178 20 178 C19.835 177.34 19.67 176.68 19.5 176 C18.87816701 172.26900206 18.93591074 168.78126622 19 165 C19.66 165 20.32 165 21 165 C20.9278125 164.030625 20.855625 163.06125 20.78125 162.0625 C20.27373664 154.86306045 19.93311999 147.71875415 20 140.5 C20.37746989 130.78458196 20.37746989 130.78458196 17 122 C16.875 119.3125 16.875 119.3125 17 117 C17.99 116.505 17.99 116.505 19 116 C19.23012748 104.45407321 19.23012748 104.45407321 18 93 C17.505 92.505 17.505 92.505 17 92 C16.79693006 90.39206721 16.65288985 88.77657948 16.53515625 87.16015625 C16.45716797 86.17982422 16.37917969 85.19949219 16.29882812 84.18945312 C16.14159154 82.10899222 15.98793082 80.0282579 15.83789062 77.94726562 C15.75861328 76.96564453 15.67933594 75.98402344 15.59765625 74.97265625 C15.53070557 74.06781494 15.46375488 73.16297363 15.39477539 72.23071289 C15.18482786 69.80278563 15.18482786 69.80278563 13 68 C12.01 68.495 12.01 68.495 11 69 C11 66.69 11 64.38 11 62 C10.34 61.67 9.68 61.34 9 61 C9.33 60.34 9.66 59.68 10 59 C10.66 59.33 11.32 59.66 12 60 C11.34 59.34 10.68 58.68 10 58 C10.0234375 54.9609375 10.0234375 54.9609375 10.375 51.375 C10.48585938 50.18648437 10.59671875 48.99796875 10.7109375 47.7734375 C10.80632812 46.85820313 10.90171875 45.94296875 11 45 C10.34 45 9.68 45 9 45 C9.0825 44.030625 9.165 43.06125 9.25 42.0625 C9.26293054 38.82986438 8.54829757 36.70126691 7.125 33.8125 C4.87436131 29.20027565 4.14101642 24.76405676 3.4921875 19.69921875 C3.14734332 17.0467281 3.14734332 17.0467281 1.984375 15.06640625 C0.59624102 12.15242659 0.56739171 9.45652845 0.375 6.25 C0.30023438 5.07953125 0.22546875 3.9090625 0.1484375 2.703125 C0.09945313 1.81109375 0.05046875 0.9190625 0 0 Z " fill="#CBE595" transform="translate(399,43)"/>
<path d="M0 0 C1.32 0 2.64 0 4 0 C4 0.66 4 1.32 4 2 C4.66 2 5.32 2 6 2 C7.5078125 3.64453125 7.5078125 3.64453125 9.125 5.8125 C9.66382813 6.52019531 10.20265625 7.22789062 10.7578125 7.95703125 C12 10 12 10 12 13 C12.66 13 13.32 13 14 13 C14.33 14.65 14.66 16.3 15 18 C15.66 18 16.32 18 17 18 C19.04169485 20.90548882 20 22.40142046 20 26 C20.66 26 21.32 26 22 26 C24.24789535 29.07212365 26.14957682 32.24048042 28 35.5625 C29.84982989 38.95559834 29.84982989 38.95559834 32.0625 41.5 C34.41670029 44.53767779 35.59995465 47.42988434 37 51 C34.69 51.99 32.38 52.98 30 54 C26.56231286 50.75513285 24.30000467 46.9885239 21.8125 43 C21.34908203 42.27554688 20.88566406 41.55109375 20.40820312 40.8046875 C19.97056641 40.10601562 19.53292969 39.40734375 19.08203125 38.6875 C18.68218018 38.05199219 18.2823291 37.41648437 17.87036133 36.76171875 C17 35 17 35 17 32 C16.34 32 15.68 32 15 32 C14.56300781 31.19949219 14.56300781 31.19949219 14.1171875 30.3828125 C11.31580953 25.2909997 8.39190935 20.30039188 5.33203125 15.359375 C3.98087697 12.96612812 2.96200395 10.57142287 2 8 C1.34 8 0.68 8 0 8 C-1.125 2.25 -1.125 2.25 0 0 Z " fill="#589C3B" transform="translate(143,344)"/>
<path d="M0 0 C2.4375 0.375 2.4375 0.375 5 1 C5.33 1.66 5.66 2.32 6 3 C5.67 3.66 5.34 4.32 5 5 C7.31 5.33 9.62 5.66 12 6 C11.67 6.99 11.34 7.98 11 9 C10.34 9 9.68 9 9 9 C9 9.99 9 10.98 9 12 C9.99 11.34 10.98 10.68 12 10 C13.32 10.99 14.64 11.98 16 13 C15.31486328 13.2266333 14.62972656 13.4532666 13.92382812 13.68676758 C10.78201241 14.72705649 7.64100304 15.76976004 4.5 16.8125 C2.88351563 17.34713867 2.88351563 17.34713867 1.234375 17.89257812 C-4.55786539 19.8174385 -10.30316438 21.80837756 -16 24 C-15.7215625 23.1028125 -15.7215625 23.1028125 -15.4375 22.1875 C-14.77906313 19.83591238 -14.77906313 19.83591238 -16 17 C-16 16.01 -16 15.02 -16 14 C-15.34 14 -14.68 14 -14 14 C-14 14.66 -14 15.32 -14 16 C-13.01 15.34 -12.02 14.68 -11 14 C-11 13.34 -11 12.68 -11 12 C-10.34 12 -9.68 12 -9 12 C-8.67 10.02 -8.34 8.04 -8 6 C-6.68 5.67 -5.36 5.34 -4 5 C-4 4.34 -4 3.68 -4 3 C-3.01 2.67 -2.02 2.34 -1 2 C-0.67 1.34 -0.34 0.68 0 0 Z " fill="#3E3F3C" transform="translate(208,377)"/>
<path d="M0 0 C0.99 0 1.98 0 3 0 C3.495 3.96 3.495 3.96 4 8 C4.66 8 5.32 8 6 8 C6.99 12.62 7.98 17.24 9 22 C8.34 22 7.68 22 7 22 C6.90203125 21.32453125 6.8040625 20.6490625 6.703125 19.953125 C5.76512827 14.32697875 5.76512827 14.32697875 3.1875 9.3125 C1.07656288 7.7800191 1.07656288 7.7800191 -1.4375 8.0625 C-4.26238689 9.0959952 -6.55908524 10.23711712 -9 12 C-9.33 12.99 -9.66 13.98 -10 15 C-13.0625 16.1875 -13.0625 16.1875 -16 17 C-16.495 19.475 -16.495 19.475 -17 22 C-17.99 21.01 -18.98 20.02 -20 19 C-26.28200248 20.88460074 -28.60553486 22.1809169 -32 28 C-34.63775105 30.39046189 -36.59699321 31.19929252 -40 32 C-40.969375 32.495 -41.93875 32.99 -42.9375 33.5 C-45.7172827 34.86152622 -47.96160412 35.55317708 -51 36 C-51.0825 36.61875 -51.165 37.2375 -51.25 37.875 C-52 40 -52 40 -53.9375 41.0625 C-54.618125 41.371875 -55.29875 41.68125 -56 42 C-56.66 42.99 -57.32 43.98 -58 45 C-59.65821773 45.37309899 -61.32577014 45.70700977 -63 46 C-63.66 46.66 -64.32 47.32 -65 48 C-67.625 48.125 -67.625 48.125 -70 48 C-66.40495327 43.97697152 -62.13680676 41.30970688 -57.625 38.4375 C-56.8825 37.95603516 -56.14 37.47457031 -55.375 36.97851562 C-51.34549002 34.39065895 -47.30051111 32.11816219 -43 30 C-42.175 29.319375 -41.35 28.63875 -40.5 27.9375 C-37.75386021 25.80924166 -35.32548517 24.92804237 -32 24 C-32 23.34 -32 22.68 -32 22 C-30.13671875 20.4921875 -30.13671875 20.4921875 -27.6875 18.875 C-26.88699219 18.33617188 -26.08648437 17.79734375 -25.26171875 17.2421875 C-23 16 -23 16 -20 16 C-20 15.34 -20 14.68 -20 14 C-10.58997722 8.62870159 -10.58997722 8.62870159 -6 7 C-6 6.34 -6 5.68 -6 5 C-4.34467377 3.98133771 -2.67739862 2.98189187 -1 2 C-0.67 1.34 -0.34 0.68 0 0 Z " fill="#CAE591" transform="translate(384,0)"/>
<path d="M0 0 C3.47000311 1.1566677 3.84701459 1.85726716 5.6875 4.875 C6.12449219 5.57367188 6.56148438 6.27234375 7.01171875 6.9921875 C8 9 8 9 8 12 C8.66 12 9.32 12 10 12 C10 12.99 10 13.98 10 15 C10.66 15 11.32 15 12 15 C13.62109375 17.23046875 13.62109375 17.23046875 15.4375 20.1875 C16.33275391 21.63189453 16.33275391 21.63189453 17.24609375 23.10546875 C17.82488281 24.06066406 18.40367188 25.01585937 19 26 C19.56847656 26.90363281 20.13695313 27.80726563 20.72265625 28.73828125 C22 31 22 31 22 33 C22.66 33 23.32 33 24 33 C25.515625 35.125 25.515625 35.125 27.25 38 C29.88582437 42.272232 32.65991385 46.30023518 35.7109375 50.28125 C40 56 40 56 40 59 C40.66 59 41.32 59 42 59 C43.1875 61.25 43.1875 61.25 44 64 C42.55078125 66.171875 42.55078125 66.171875 41 68 C37.67846943 63.9137184 34.82583992 59.89310277 32.5625 55.125 C30.34185129 50.45298583 27.60894416 46.39000381 24.55078125 42.2265625 C22.3031132 38.99943204 21 36.98003123 21 33 C20.34 33 19.68 33 19 33 C18.0234375 31.20963542 17.046875 29.41927083 16.0703125 27.62890625 C15.08589976 25.83381685 15.08589976 25.83381685 13 25 C12.375 21.9375 12.375 21.9375 12 19 C11.34 19 10.68 19 10 19 C8.99491199 17.21118264 7.99607264 15.41885304 7 13.625 C6.1646875 12.12839844 6.1646875 12.12839844 5.3125 10.6015625 C4 8 4 8 4 6 C3.34 6 2.68 6 2 6 C2 5.01 2 4.02 2 3 C1.34 3 0.68 3 0 3 C0 2.01 0 1.02 0 0 Z " fill="#6DAC3F" transform="translate(75,239)"/>
<path d="M0 0 C-0.8125 1.9375 -0.8125 1.9375 -2 4 C-2.99 4.33 -3.98 4.66 -5 5 C-5 5.66 -5 6.32 -5 7 C-3.68 7 -2.36 7 -1 7 C-0.34 5.68 0.32 4.36 1 3 C1.66 3.66 2.32 4.32 3 5 C3.99 5 4.98 5 6 5 C6 5.66 6 6.32 6 7 C7.65 7 9.3 7 11 7 C11 7.33 11 7.66 11 8 C3.19565614 9.05807265 -4.50553834 9.18343099 -12.375 9.1875 C-13.64472656 9.19974609 -14.91445313 9.21199219 -16.22265625 9.22460938 C-18.04216797 9.22750977 -18.04216797 9.22750977 -19.8984375 9.23046875 C-21.54851807 9.23663208 -21.54851807 9.23663208 -23.23193359 9.24291992 C-26 9 -26 9 -29 7 C-25.83783053 5.1261218 -23.63834261 4.90166642 -20 5 C-19.67 4.67 -19.34 4.34 -19 4 C-23.29 4 -27.58 4 -32 4 C-32 3.67 -32 3.34 -32 3 C-30.95658447 2.970271 -30.95658447 2.970271 -29.89208984 2.93994141 C-26.71936679 2.84427876 -23.54726513 2.73476696 -20.375 2.625 C-18.73337891 2.57859375 -18.73337891 2.57859375 -17.05859375 2.53125 C-11.255472 2.32022739 -5.49931176 0 0 0 Z " fill="#50504E" transform="translate(438,342)"/>
<path d="M0 0 C0.495 1.98 0.495 1.98 1 4 C0.319375 4.061875 -0.36125 4.12375 -1.0625 4.1875 C-4.51319123 5.14194651 -6.58453761 6.73154248 -9.3515625 8.94140625 C-11 10 -11 10 -14 10 C-13.505 11.485 -13.505 11.485 -13 13 C-15.125 15 -15.125 15 -18 17 C-18.88816406 16.94972656 -19.77632812 16.89945312 -20.69140625 16.84765625 C-25.26477791 17.05823653 -28.02914471 19.00507938 -31.8125 21.4375 C-32.49248047 21.85837891 -33.17246094 22.27925781 -33.87304688 22.71289062 C-37.10926933 24.6283275 -37.10926933 24.6283275 -40 27 C-41.66617115 27.04063832 -43.33388095 27.042721 -45 27 C-45.33 28.32 -45.66 29.64 -46 31 C-47.98 31 -49.96 31 -52 31 C-50.60456833 28.20913665 -48.81644852 27.68684271 -46.0625 26.25 C-41.4670449 23.80940856 -37.00377766 21.2335154 -32.58203125 18.4921875 C-30.4938353 17.28539347 -28.41763692 16.20626138 -26.25390625 15.1484375 C-20.93223573 12.52157566 -15.90140673 9.43095373 -10.828125 6.359375 C-10.10367188 5.92625 -9.37921875 5.493125 -8.6328125 5.046875 C-7.98199707 4.65338867 -7.33118164 4.25990234 -6.66064453 3.85449219 C-5 3 -5 3 -3 3 C-3 2.34 -3 1.68 -3 1 C-2.01 0.67 -1.02 0.34 0 0 Z " fill="#37472C" transform="translate(190,388)"/>
<path d="M0 0 C0.33 0 0.66 0 1 0 C2.51852853 10.75975677 3.42091321 21.38399157 3.6875 32.25 C3.71744049 33.3303804 3.71744049 33.3303804 3.74798584 34.43258667 C4.1386687 48.86861598 4.48285129 63.62485335 3 78 C2.505 78.495 2.505 78.495 2 79 C0.36230304 87.25245732 -0.42593618 95.61564678 -1 104 C-1.66 104 -2.32 104 -3 104 C-2.85890014 101.89551062 -2.71195825 99.7914123 -2.5625 97.6875 C-2.48128906 96.51574219 -2.40007812 95.34398437 -2.31640625 94.13671875 C-2 91 -2 91 -1 88 C1.30066717 73.21863878 1.19414346 58.10479579 1.1875 43.1875 C1.1887236 41.88626694 1.1887236 41.88626694 1.18997192 40.55874634 C1.18906971 32.07420099 1.13078488 23.67409519 0.22045898 15.22924805 C-0.09040224 12.08586621 -0.09643923 8.96884875 -0.0625 5.8125 C-0.05347656 4.70519531 -0.04445313 3.59789062 -0.03515625 2.45703125 C-0.01775391 1.24080078 -0.01775391 1.24080078 0 0 Z " fill="#F1FDDD" transform="translate(420,144)"/>
<path d="M0 0 C2.2841369 2.20278408 3.79488782 4.03357002 5 7 C5 7.99 5 8.98 5 10 C1.26513121 10.5745952 -2.21293268 11 -6 11 C-6.33 10.01 -6.66 9.02 -7 8 C-7.99 9.485 -7.99 9.485 -9 11 C-10.32 11 -11.64 11 -13 11 C-13 10.34 -13 9.68 -13 9 C-14.32 8.67 -15.64 8.34 -17 8 C-15.329375 7.87625 -15.329375 7.87625 -13.625 7.75 C-12.42875 7.5025 -11.2325 7.255 -10 7 C-9.690625 6.38125 -9.38125 5.7625 -9.0625 5.125 C-7.46958177 1.93916354 -4.93886915 1.60588505 -1.6796875 0.515625 C-1.12539063 0.34546875 -0.57109375 0.1753125 0 0 Z " fill="#3D3D3C" transform="translate(446,338)"/>
<path d="M0 0 C2.31 0.66 4.62 1.32 7 2 C7.33 3.32 7.66 4.64 8 6 C5.30365386 7.96496834 2.60569919 9.92748977 -0.09765625 11.8828125 C-1.80685038 13.12962706 -3.50669451 14.38976501 -5.18359375 15.6796875 C-6.73513926 16.86086408 -8.36192933 17.94207936 -10 19 C-10.99 18.67 -11.98 18.34 -13 18 C-13 17.01 -13 16.02 -13 15 C-11.02 15 -9.04 15 -7 15 C-7.33 13.35 -7.66 11.7 -8 10 C-3.25 6 -3.25 6 -1 6 C-0.67 6.33 -0.34 6.66 0 7 C1.04449911 3.86650268 0.93423645 3.01031744 0 0 Z " fill="#7BB44A" transform="translate(200,370)"/>
<path d="M0 0 C0.66 0 1.32 0 2 0 C0.47311635 4.18712422 -1.61533758 7.92720005 -3.875 11.75 C-6.62193191 16.46440414 -9.09372872 21.15660866 -11.20703125 26.1953125 C-12 28 -12 28 -13.5 30.4375 C-15.82845096 34.41527038 -17.34365212 38.70824841 -19 43 C-19.6646697 44.66746406 -20.33077002 46.33436095 -21 48 C-21.625 46.25 -21.625 46.25 -22 44 C-21.34241884 42.66216247 -20.67436253 41.32945756 -20 40 C-19.57848115 38.42841122 -19.2031166 36.84370918 -18.875 35.25 C-18.70742187 34.45078125 -18.53984375 33.6515625 -18.3671875 32.828125 C-18.24601563 32.22484375 -18.12484375 31.6215625 -18 31 C-17.01 31 -16.02 31 -15 31 C-14.95875 30.071875 -14.9175 29.14375 -14.875 28.1875 C-14.21849446 23.48730089 -11.89773416 19.80155912 -9.56640625 15.734375 C-7.55603944 12.22500651 -5.78080185 8.63009609 -4 5 C-3.34 5 -2.68 5 -2 5 C-1.855625 4.360625 -1.71125 3.72125 -1.5625 3.0625 C-1 1 -1 1 0 0 Z " fill="#F1FBDD" transform="translate(190,160)"/>
<path d="M0 0 C2.6875 0.3125 2.6875 0.3125 5 1 C0.99500827 5.28689649 -3.70114729 8.37220059 -8.515625 11.68359375 C-11.22818934 13.7503541 -11.22818934 13.7503541 -11.484375 16.66015625 C-11.18603963 19.18001745 -11.18603963 19.18001745 -9 21 C-9.375 23.125 -9.375 23.125 -10 25 C-11.32 24.67 -12.64 24.34 -14 24 C-13.34 24 -12.68 24 -12 24 C-12.59082014 22.51545194 -13.19812655 21.03745649 -13.8125 19.5625 C-14.14894531 18.73878906 -14.48539062 17.91507812 -14.83203125 17.06640625 C-15.88403088 14.66627512 -15.88403088 14.66627512 -19 14 C-18.29653442 13.52373169 -18.29653442 13.52373169 -17.57885742 13.0378418 C-15.44609039 11.59110647 -13.3167786 10.13936409 -11.1875 8.6875 C-10.44951172 8.18798828 -9.71152344 7.68847656 -8.95117188 7.17382812 C-8.23896484 6.68720703 -7.52675781 6.20058594 -6.79296875 5.69921875 C-6.1383667 5.25408936 -5.48376465 4.80895996 -4.80932617 4.3503418 C-2.94831481 3.04586021 -2.94831481 3.04586021 -1.4309082 1.31176758 C-0.9587085 0.87888428 -0.48650879 0.44600098 0 0 Z " fill="#4C4C4C" transform="translate(463,324)"/>
<path d="M0 0 C2.63838101 1.15290599 4.59978879 2.49923628 6.82421875 4.328125 C7.59636719 4.9571875 8.36851562 5.58625 9.1640625 6.234375 C10.23333984 7.11609375 10.23333984 7.11609375 11.32421875 8.015625 C12.33484375 8.77875 13.34546875 9.541875 14.38671875 10.328125 C15.02609375 10.885 15.66546875 11.441875 16.32421875 12.015625 C16.32421875 12.675625 16.32421875 13.335625 16.32421875 14.015625 C13.32421875 14.015625 10.32421875 14.015625 7.32421875 14.015625 C6.66421875 14.675625 6.00421875 15.335625 5.32421875 16.015625 C5.65421875 14.365625 5.98421875 12.715625 6.32421875 11.015625 C6.98421875 11.015625 7.64421875 11.015625 8.32421875 11.015625 C7.47855136 8.74389408 7.47855136 8.74389408 4.82421875 8.140625 C2.32421875 7.015625 2.32421875 7.015625 1.51171875 4.890625 C1.44984375 4.271875 1.38796875 3.653125 1.32421875 3.015625 C0.00421875 2.685625 -1.31578125 2.355625 -2.67578125 2.015625 C-3.00578125 3.005625 -3.33578125 3.995625 -3.67578125 5.015625 C-4.66578125 5.015625 -5.65578125 5.015625 -6.67578125 5.015625 C-6.67578125 5.675625 -6.67578125 6.335625 -6.67578125 7.015625 C-7.96228831 7.71273231 -9.2551879 8.39805376 -10.55078125 9.078125 C-11.27007812 9.46097656 -11.989375 9.84382813 -12.73046875 10.23828125 C-13.37242187 10.49480469 -14.014375 10.75132812 -14.67578125 11.015625 C-15.33578125 10.685625 -15.99578125 10.355625 -16.67578125 10.015625 C-14.45921001 8.30895513 -12.2300772 6.62607363 -9.98828125 4.953125 C-9.36244141 4.46779297 -8.73660156 3.98246094 -8.09179688 3.48242188 C-3.40137898 0.01986207 -3.40137898 0.01986207 0 0 Z " fill="#3A412E" transform="translate(210.67578125,374.984375)"/>
<path d="M0 0 C2.0625 0.4375 2.0625 0.4375 4 1 C4 1.66 4 2.32 4 3 C5.32 3.66 6.64 4.32 8 5 C5.69 4.67 3.38 4.34 1 4 C0.88406494 4.79696289 0.76812988 5.59392578 0.64868164 6.41503906 C0.1220468 10.02700139 -0.4076914 13.63850191 -0.9375 17.25 C-1.11990234 18.50425781 -1.30230469 19.75851563 -1.49023438 21.05078125 C-1.66748047 22.25605469 -1.84472656 23.46132812 -2.02734375 24.703125 C-2.18968506 25.81333008 -2.35202637 26.92353516 -2.51928711 28.06738281 C-3 31 -3 31 -3.54321289 33.10668945 C-4.07118374 35.29504538 -4.19448015 37.34098163 -4.28125 39.58984375 C-4.31863281 40.45673828 -4.35601562 41.32363281 -4.39453125 42.21679688 C-4.42933594 43.11462891 -4.46414062 44.01246094 -4.5 44.9375 C-4.91832771 55.68232479 -4.91832771 55.68232479 -6 60 C-6.33 60 -6.66 60 -7 60 C-6.90466662 44.91115543 -5.88980568 30.25763231 -3.5 15.375 C-3.32967758 14.30511841 -3.32967758 14.30511841 -3.15591431 13.21362305 C-1.22667124 1.22667124 -1.22667124 1.22667124 0 0 Z " fill="#9EC271" transform="translate(56,185)"/>
<path d="M0 0 C0.66 0 1.32 0 2 0 C2 0.99 2 1.98 2 3 C2.66 3 3.32 3 4 3 C4 3.66 4 4.32 4 5 C4.99 5.33 5.98 5.66 7 6 C5.34030301 9.31939397 1.69596481 10.1635919 -1.5625 11.625 C-2.62887695 12.11226563 -2.62887695 12.11226563 -3.71679688 12.609375 C-5.47529252 13.41190993 -7.23732367 14.20668959 -9 15 C-8.67 12.69 -8.34 10.38 -8 8 C-8.66 8 -9.32 8 -10 8 C-10 7.34 -10 6.68 -10 6 C-9.0925 6.0825 -8.185 6.165 -7.25 6.25 C-3.92356469 6.29795251 -3.92356469 6.29795251 -1.625 4.125 C0.20248337 2.18106686 0.20248337 2.18106686 0 0 Z " fill="#3C3C3B" transform="translate(176,398)"/>
<path d="M0 0 C0.33 0 0.66 0 1 0 C1.01981934 0.66942627 1.03963867 1.33885254 1.06005859 2.02856445 C1.15655166 5.12353971 1.26571634 8.21795099 1.375 11.3125 C1.4059375 12.36501953 1.436875 13.41753906 1.46875 14.50195312 C1.69624194 20.66319314 2.33829777 26.50957595 3.54101562 32.55541992 C4.13075285 35.69639801 4.3788566 38.81163793 4.5625 42 C4.7569008 45.30084622 4.95225336 47.85676009 6 51 C6.06802967 52.72795352 6.08495645 54.45835365 6.0625 56.1875 C6.05347656 57.08855469 6.04445313 57.98960937 6.03515625 58.91796875 C6.02355469 59.60503906 6.01195312 60.29210937 6 61 C5.67 61 5.34 61 5 61 C3.94952023 55.34141565 2.95883128 49.67478939 2 44 C1.78730469 42.77667969 1.57460938 41.55335938 1.35546875 40.29296875 C-0.65554744 26.93924254 -0.18453952 13.46854604 0 0 Z " fill="#9AC06F" transform="translate(49,248)"/>
<path d="M0 0 C0.99 0 1.98 0 3 0 C3 10.56 3 21.12 3 32 C2.01 32 1.02 32 0 32 C-0.19725192 27.60454738 -0.38110072 23.20863314 -0.5625 18.8125 C-0.61857422 17.56662109 -0.67464844 16.32074219 -0.73242188 15.03710938 C-0.78076172 13.83505859 -0.82910156 12.63300781 -0.87890625 11.39453125 C-0.9260376 10.28956299 -0.97316895 9.18459473 -1.02172852 8.04614258 C-1.00147534 5.20682971 -0.66505747 2.75203915 0 0 Z M3 24 C4 28 4 28 4 28 Z " fill="#90BE56" transform="translate(50,240)"/>
<path d="M0 0 C1.32 0.66 2.64 1.32 4 2 C1.35261084 3.4606285 0.10551666 4 -3 4 C-3.12375 4.556875 -3.2475 5.11375 -3.375 5.6875 C-4.05976855 8.22114364 -4.99133763 10.57921032 -6 13 C-6.66 13 -7.32 13 -8 13 C-8.33 13.99 -8.66 14.98 -9 16 C-11.64 15.67 -14.28 15.34 -17 15 C-13.50794062 11.40523299 -9.95966325 8.07973809 -6 5 C-5.34 5 -4.68 5 -4 5 C-3.67 4.01 -3.34 3.02 -3 2 C-2.01 1.34 -1.02 0.68 0 0 Z " fill="#BADF76" transform="translate(267,80)"/>
<path d="M0 0 C0.33 0 0.66 0 1 0 C1.53366172 8.68682693 0.74958472 16.71916948 -0.8125 25.25 C-0.97782227 26.15959473 -1.14314453 27.06918945 -1.31347656 28.00634766 C-2.49218715 34.13630863 -4.09714233 40.0564766 -6 46 C-6.33 46 -6.66 46 -7 46 C-7.25080295 38.47591145 -7.25080295 38.47591145 -6.02294922 36.14599609 C-4.91358527 33.81871468 -4.64088873 32.08256539 -4.4375 29.5234375 C-4.36273438 28.688125 -4.28796875 27.8528125 -4.2109375 26.9921875 C-4.06968689 25.23963364 -3.92906739 23.48702881 -3.7890625 21.734375 C-3.71429688 20.90164063 -3.63953125 20.06890625 -3.5625 19.2109375 C-3.50191406 18.45087402 -3.44132812 17.69081055 -3.37890625 16.90771484 C-3 15 -3 15 -1 13 C-0.53513282 9.87803664 -0.53513282 9.87803664 -0.375 6.375 C-0.30023438 5.18648437 -0.22546875 3.99796875 -0.1484375 2.7734375 C-0.09945313 1.85820312 -0.05046875 0.94296875 0 0 Z " fill="#C6E28C" transform="translate(415,242)"/>
<path d="M0 0 C6.27 0 12.54 0 19 0 C18.34 1.98 17.68 3.96 17 6 C15.22950311 6.05410687 13.45853151 6.09284119 11.6875 6.125 C10.20830078 6.15980469 10.20830078 6.15980469 8.69921875 6.1953125 C6 6 6 6 3 4 C6.16216947 2.1261218 8.36165739 1.90166642 12 2 C12.33 1.67 12.66 1.34 13 1 C8.71 1 4.42 1 0 1 C0 0.67 0 0.34 0 0 Z " fill="#535350" transform="translate(406,345)"/>
<path d="M0 0 C1.65 0 3.3 0 5 0 C5 0.66 5 1.32 5 2 C7.97 2.33 10.94 2.66 14 3 C14 3.66 14 4.32 14 5 C16.97 5.66 19.94 6.32 23 7 C23 7.66 23 8.32 23 9 C25.97 9.495 25.97 9.495 29 10 C29 10.66 29 11.32 29 12 C29.99 11.67 30.98 11.34 32 11 C32.99 12.65 33.98 14.3 35 16 C31.06956482 14.45142329 27.19012925 12.8011085 23.3125 11.125 C19.06488435 9.29288112 14.80563049 7.50469772 10.5 5.8125 C6.88544077 4.38695601 3.43769778 2.80931462 0 1 C0 0.67 0 0.34 0 0 Z " fill="#E9F8DA" transform="translate(72,192)"/>
<path d="M0 0 C0.66 0.33 1.32 0.66 2 1 C3.41438349 8.25872283 3.11306491 15.63308104 3.0625 23 C3.05798828 24.25167969 3.05347656 25.50335938 3.04882812 26.79296875 C3.03711415 29.86202941 3.02071073 32.93098907 3 36 C2.01 36.495 2.01 36.495 1 37 C1.00523682 36.43603516 1.01047363 35.87207031 1.01586914 35.29101562 C1.03687267 32.69402211 1.04973362 30.09704656 1.0625 27.5 C1.07087891 26.613125 1.07925781 25.72625 1.08789062 24.8125 C1.39694752 14.9385257 1.39694752 14.9385257 -2 6 C-2.125 3.3125 -2.125 3.3125 -2 1 C-1.34 0.67 -0.68 0.34 0 0 Z " fill="#C2E280" transform="translate(418,159)"/>
<path d="M0 0 C0.66 0 1.32 0 2 0 C2 0.99 2 1.98 2 3 C2.66 3 3.32 3 4 3 C4.70242071 5.53836153 5.38710202 8.07944063 6.0625 10.625 C6.36124023 11.69427734 6.36124023 11.69427734 6.66601562 12.78515625 C7.82267407 17.2088675 8.13915367 20.45771429 7 25 C4.10539236 22.10539236 3.79441146 18.62727998 2.9375 14.75 C2.76412109 13.99847656 2.59074219 13.24695313 2.41210938 12.47265625 C1.46919993 8.33252514 0.6484815 4.19841631 0 0 Z M6 5 C6.33 5 6.66 5 7 5 C7 6.65 7 8.3 7 10 C6.67 10 6.34 10 6 10 C6 8.35 6 6.7 6 5 Z " fill="#92BD5D" transform="translate(55,311)"/>
<path d="M0 0 C0.66 0 1.32 0 2 0 C4.07965362 6.75887425 4.21133202 12.95559921 4 20 C3.01 20 2.02 20 1 20 C0 17 0 17 0 13 C-0.66 12.67 -1.32 12.34 -2 12 C-1.67 11.34 -1.34 10.68 -1 10 C-0.34 10.33 0.32 10.66 1 11 C0.34 10.34 -0.32 9.68 -1 9 C-0.9765625 6.8359375 -0.9765625 6.8359375 -0.625 4.375 C-0.51414062 3.55773437 -0.40328125 2.74046875 -0.2890625 1.8984375 C-0.19367188 1.27195312 -0.09828125 0.64546875 0 0 Z " fill="#C7E686" transform="translate(410,92)"/>
<path d="M0 0 C-13.36893204 9 -13.36893204 9 -16 9 C-16.226875 9.61875 -16.45375 10.2375 -16.6875 10.875 C-18.37929835 13.61410209 -19.99244161 14.05024472 -23 15 C-22.67 13.68 -22.34 12.36 -22 11 C-20.68 10.67 -19.36 10.34 -18 10 C-18 9.34 -18 8.68 -18 8 C-17.01 7.67 -16.02 7.34 -15 7 C-14.195625 6.154375 -13.39125 5.30875 -12.5625 4.4375 C-10 2 -10 2 -6 2 C-6 1.34 -6 0.68 -6 0 C-3 -1 -3 -1 0 0 Z " fill="#F1FBDC" transform="translate(326,40)"/>
<path d="M0 0 C1.1875 1.5625 1.1875 1.5625 2 4 C1.13247424 6.50051542 0.1734879 8.64445859 -1 11 C-1.9005794 12.97701158 -2.79620757 14.95628425 -3.6875 16.9375 C-4.45759075 18.62533901 -5.22816965 20.31295579 -6 22 C-7.25127906 18.45332822 -6.72285053 16.27746562 -5.5625 12.75 C-5.27503906 11.85796875 -4.98757813 10.9659375 -4.69140625 10.046875 C-4.46324219 9.37140625 -4.23507812 8.6959375 -4 8 C-3.34 8 -2.68 8 -2 8 C-2.04125 7.05125 -2.0825 6.1025 -2.125 5.125 C-2 2 -2 2 0 0 Z " fill="#C0DE84" transform="translate(397,312)"/>
<path d="M0 0 C1.47083876 3.92881763 0.57110454 7.11318415 -0.3125 11.125 C-0.57675781 12.36507813 -0.84101563 13.60515625 -1.11328125 14.8828125 C-2 18 -2 18 -4 20 C-4.70710678 21.64991582 -5.37943989 23.31562256 -6 25 C-6.66 25 -7.32 25 -8 25 C-7.60610069 21.69124584 -7.08742047 19.17104005 -5.5625 16.1875 C-3.91123922 12.81892802 -3.20207702 9.81127524 -2.52734375 6.1484375 C-1.97093191 3.88157446 -1.11430408 2.04366142 0 0 Z " fill="#F2FCDD" transform="translate(406,295)"/>
<path d="M0 0 C0.33 0 0.66 0 1 0 C1.2974708 7.43677001 0.35912418 14.68850717 -1 22 C-1.33 22.33 -1.66 22.66 -2 23 C-2.24179404 25.28808802 -2.38336599 27.57465815 -2.5234375 29.87109375 C-3 32 -3 32 -6 34 C-5.30035669 29.75718312 -4.56585553 25.5219617 -3.80859375 21.2890625 C-3.58623047 20.04511719 -3.36386719 18.80117188 -3.13476562 17.51953125 C-2.90466797 16.23433594 -2.67457031 14.94914062 -2.4375 13.625 C-2.20113971 12.30339117 -1.96481128 10.98177664 -1.72851562 9.66015625 C-1.15265685 6.44004802 -0.57647431 3.21999808 0 0 Z " fill="#F4FCDD" transform="translate(416,250)"/>
<path d="M0 0 C0.66 0.33 1.32 0.66 2 1 C-1.93749623 5.42968326 -6.97288308 9.68467532 -13 10.3125 C-13.99 10.1578125 -13.99 10.1578125 -15 10 C-15.33 11.32 -15.66 12.64 -16 14 C-17.98 14 -19.96 14 -22 14 C-20.60456833 11.20913665 -18.81644852 10.68684271 -16.0625 9.25 C-11.2338191 6.69697681 -6.5990754 3.94244973 -1.99609375 1.00390625 C-1.33738281 0.67261719 -0.67867187 0.34132813 0 0 Z " fill="#3C4F2C" transform="translate(160,405)"/>
<path d="M0 0 C0.74507813 0.05220703 1.49015625 0.10441406 2.2578125 0.15820312 C4.08894861 0.2873217 5.91953813 0.42415114 7.75 0.5625 C7.42 1.2225 7.09 1.8825 6.75 2.5625 C4.10139573 3.15605614 1.45802678 3.30459269 -1.25 3.5625 C-0.59 4.2225 0.07 4.8825 0.75 5.5625 C-0.9 5.5625 -2.55 5.5625 -4.25 5.5625 C-4.58 4.5725 -4.91 3.5825 -5.25 2.5625 C-6.24 2.8925 -7.23 3.2225 -8.25 3.5625 C-8.25 3.8925 -8.25 4.2225 -8.25 4.5625 C-9.9 4.5625 -11.55 4.5625 -13.25 4.5625 C-12.92 3.2425 -12.59 1.9225 -12.25 0.5625 C-8.10340627 -0.63549449 -4.25630953 -0.3271192 0 0 Z " fill="#383735" transform="translate(411.25,345.4375)"/>
<path d="M0 0 C1.66666667 0 3.33333333 0 5 0 C3.98207158 5.47948701 2.87108011 10.7375872 1 16 C0.30812615 18.32678123 -0.34544963 20.6623201 -1 23 C-2.26042862 19.35876178 -1.76219643 16.74169158 -1 13 C-0.82984375 12.13890625 -0.6596875 11.2778125 -0.484375 10.390625 C0.0030727 7.92553236 0.49877628 5.46232238 1 3 C0.34 3 -0.32 3 -1 3 C-1.33 3.66 -1.66 4.32 -2 5 C-1.125 1.125 -1.125 1.125 0 0 Z " fill="#C7E48C" transform="translate(403,288)"/>
<path d="M0 0 C1.98 0 3.96 0 6 0 C2.31351618 3.97408185 -1.81764873 6.45829775 -6.44140625 9.21875 C-8.93545696 10.95506622 -10.24568034 12.56848096 -12 15 C-12.66 15 -13.32 15 -14 15 C-14 13.68 -14 12.36 -14 11 C-11 9 -11 9 -8 9 C-8 8.34 -8 7.68 -8 7 C-2.70588235 3 -2.70588235 3 1 3 C0.67 2.01 0.34 1.02 0 0 Z " fill="#F2FADB" transform="translate(282,65)"/>
<path d="M0 0 C2.31 0 4.62 0 7 0 C6.690625 0.7425 6.38125 1.485 6.0625 2.25 C5.1905075 4.50692176 4.52332993 6.6450153 4 9 C2.02 9 0.04 9 -2 9 C-2 7.02 -2 5.04 -2 3 C-1.01 2.67 -0.02 2.34 1 2 C0.67 1.34 0.34 0.68 0 0 Z " fill="#3C3C3A" transform="translate(2,467)"/>
<path d="M0 0 C0.99 0.33 1.98 0.66 3 1 C3.625 3.375 3.625 3.375 4 6 C3.34 6.66 2.68 7.32 2 8 C2 9.32 2 10.64 2 12 C-0.5 14.25 -0.5 14.25 -3 16 C-1.69444444 1.69444444 -1.69444444 1.69444444 0 0 Z " fill="#BBDD7D" transform="translate(386,331)"/>
<path d="M0 0 C2.97 0.495 2.97 0.495 6 1 C6 1.66 6 2.32 6 3 C8.31 3.33 10.62 3.66 13 4 C13 4.66 13 5.32 13 6 C13.598125 6.103125 14.19625 6.20625 14.8125 6.3125 C17.28243264 7.08876455 18.32251235 8.07088921 20 10 C15.41216386 9.43682251 11.86982312 8.20561419 7.75 6.125 C6.71359375 5.61195313 5.6771875 5.09890625 4.609375 4.5703125 C2 3 2 3 0 0 Z " fill="#95BD6C" transform="translate(106,402)"/>
<path d="M0 0 C2.31 0 4.62 0 7 0 C6.67 1.32 6.34 2.64 6 4 C5.34 4 4.68 4 4 4 C4 4.99 4 5.98 4 7 C1.36 7 -1.28 7 -4 7 C-2.68 4.69 -1.36 2.38 0 0 Z " fill="#424739" transform="translate(386,343)"/>
<path d="M0 0 C1.5613959 2.93270882 2.66538899 5.82068273 3.625 9 C3.88539063 9.845625 4.14578125 10.69125 4.4140625 11.5625 C5 14 5 14 5 18 C3.35 18.66 1.7 19.32 0 20 C-0.33 18.68 -0.66 17.36 -1 16 C-0.01 16 0.98 16 2 16 C1.05066101 12.64566891 0.10251165 9.30753495 -1 6 C-0.72428861 3.99124558 -0.39764263 1.98821313 0 0 Z " fill="#C6E582" transform="translate(394,24)"/>
<path d="M0 0 C0.6875 1.8125 0.6875 1.8125 1 4 C-0.3125 5.75 -0.3125 5.75 -2 7 C-2.66 7 -3.32 7 -4 7 C-4.33 7.99 -4.66 8.98 -5 10 C-5.99 10.33 -6.98 10.66 -8 11 C-8.33 11.99 -8.66 12.98 -9 14 C-10.98 14.33 -12.96 14.66 -15 15 C-12.5923134 12.52352235 -10.23274081 10.18037413 -7.5 8.0625 C-4.54319496 5.62313584 -2.38364512 2.99658244 0 0 Z " fill="#EFFAD9" transform="translate(367,369)"/>
<path d="M0 0 C0.66 0.33 1.32 0.66 2 1 C-1.75220596 5.9632926 -5.46372862 10.7157437 -10 15 C-10.8971875 15.8971875 -10.8971875 15.8971875 -11.8125 16.8125 C-12.204375 17.204375 -12.59625 17.59625 -13 18 C-12.38983051 12.50847458 -12.38983051 12.50847458 -10.5625 10.125 C-9 9 -9 9 -7 9 C-6.67 7.68 -6.34 6.36 -6 5 C-5.34 5 -4.68 5 -4 5 C-4 4.34 -4 3.68 -4 3 C-2.68 2.67 -1.36 2.34 0 2 C0 1.34 0 0.68 0 0 Z " fill="#F1FBDA" transform="translate(221,118)"/>
<path d="M0 0 C0.66 0 1.32 0 2 0 C4.41914241 4.39905505 5.67913324 8.39087459 6.625 13.3125 C7.1099266 17.47844558 7.1099266 17.47844558 9 21 C9.04063832 22.66617115 9.042721 24.33388095 9 26 C8.67 24.68 8.34 23.36 8 22 C7.34 22 6.68 22 6 22 C5.49595192 19.89679937 4.99689492 17.79240209 4.5 15.6875 C4.08234375 13.92986328 4.08234375 13.92986328 3.65625 12.13671875 C3 9 3 9 3 6 C2.34 6 1.68 6 1 6 C0.67 4.02 0.34 2.04 0 0 Z " fill="#F1FBDA" transform="translate(387,2)"/>
<path d="M0 0 C-13.98371694 8.02240451 -13.98371694 8.02240451 -22 9 C-20.57601609 6.15203218 -18.8143692 5.43845537 -16 4 C-12.6875 3.3125 -12.6875 3.3125 -10 3 C-9.67 2.01 -9.34 1.02 -9 0 C-5.5657338 -0.85856655 -3.38317487 -0.97591583 0 0 Z " fill="#C5DD91" transform="translate(336,396)"/>
<path d="M0 0 C0.33 0 0.66 0 1 0 C0.979375 1.2375 0.95875 2.475 0.9375 3.75 C0.93233319 6.6640825 1.06984442 9.20953327 2 12 C1.34 12 0.68 12 0 12 C0.495 12.94875 0.99 13.8975 1.5 14.875 C3 18 3 18 3 20 C1.35 20 -0.3 20 -2 20 C-2.26404456 13.13484138 -1.25841946 6.74153283 0 0 Z " fill="#A7D55E" transform="translate(157,244)"/>
<path d="M0 0 C0.66 0.33 1.32 0.66 2 1 C-1.625 5.875 -1.625 5.875 -5 7 C-5.66 7.66 -6.32 8.32 -7 9 C-7.66 8.67 -8.32 8.34 -9 8 C-9.28875 8.61875 -9.5775 9.2375 -9.875 9.875 C-11 12 -11 12 -13 14 C-13.99 13.67 -14.98 13.34 -16 13 C-11.3126338 7.82773385 -5.68271819 4.01074507 0 0 Z " fill="#C5DF8B" transform="translate(286,66)"/>
<path d="M0 0 C0.66 0.33 1.32 0.66 2 1 C2.33 1.99 2.66 2.98 3 4 C2.67 4.66 2.34 5.32 2 6 C3.98 6 5.96 6 8 6 C5.37801226 8.15377564 3.35595828 9.40072174 0 10 C-0.99 7.69 -1.98 5.38 -3 3 C-2.01 2.01 -1.02 1.02 0 0 Z " fill="#76B747" transform="translate(179,384)"/>
<path d="M0 0 C0.66 0.33 1.32 0.66 2 1 C1.67 2.32 1.34 3.64 1 5 C0.34 5 -0.32 5 -1 5 C-0.67 5.99 -0.34 6.98 0 8 C-3.00272755 8.96516243 -5.04215769 9.22393475 -8 8 C-8.33 7.01 -8.66 6.02 -9 5 C-8.67 4.34 -8.34 3.68 -8 3 C-7.34 3 -6.68 3 -6 3 C-5.67 2.34 -5.34 1.68 -5 1 C-5 1.99 -5 2.98 -5 4 C-5.66 4 -6.32 4 -7 4 C-7 4.99 -7 5.98 -7 7 C-4.9754262 5.06745228 -3.57894208 3.36841312 -2 1 C-1.67 1.33 -1.34 1.66 -1 2 C-0.67 1.34 -0.34 0.68 0 0 Z " fill="#ABD463" transform="translate(216,367)"/>
<path d="M0 0 C0.99 0.66 1.98 1.32 3 2 C-1.33333333 6.33333333 -5.66666667 10.66666667 -10 15 C-10.66 14.34 -11.32 13.68 -12 13 C-11.01 12.34 -10.02 11.68 -9 11 C-7.78715124 7.94570927 -7.78715124 7.94570927 -7 5 C-5.824375 4.87625 -5.824375 4.87625 -4.625 4.75 C-1.85250896 4.27193661 -1.85250896 4.27193661 -0.6875 1.9375 C-0.460625 1.298125 -0.23375 0.65875 0 0 Z " fill="#C0DD81" transform="translate(369,363)"/>
<path d="M0 0 C5.97649168 3.83108441 11.97013965 7.97013965 17 13 C15.02 13 13.04 13 11 13 C11 12.34 11 11.68 11 11 C9.68 10.67 8.36 10.34 7 10 C7 9.01 7 8.02 7 7 C6.01 7 5.02 7 4 7 C2.45428722 4.68143083 1.20381448 2.49361571 0 0 Z " fill="#EEFAE0" transform="translate(95,394)"/>
<path d="M0 0 C-0.33 0.99 -0.66 1.98 -1 3 C-1.99 3 -2.98 3 -4 3 C-4 3.99 -4 4.98 -4 6 C-8.64849515 8.3992233 -12.91086074 8.19957409 -18 8 C-15.21706547 5.21706547 -12.25379511 4.85733454 -8.5078125 3.87890625 C-5.375317 2.78106904 -3.26776652 0 0 0 Z " fill="#F4FCDF" transform="translate(332,398)"/>
<path d="M0 0 C1.52036025 3.04072051 2.36826591 5.03176451 3.0703125 8.22265625 C3.33134766 9.40118164 3.33134766 9.40118164 3.59765625 10.60351562 C3.77167969 11.41498047 3.94570313 12.22644531 4.125 13.0625 C4.30675781 13.87783203 4.48851562 14.69316406 4.67578125 15.53320312 C5.38598909 18.78253751 6 21.66079974 6 25 C5.34 25 4.68 25 4 25 C3.855625 23.865625 3.71125 22.73125 3.5625 21.5625 C3.38828522 18.19222799 3.38828522 18.19222799 2 17 C1.95936168 15.33382885 1.957279 13.66611905 2 12 C1.34 12 0.68 12 0 12 C0 8.04 0 4.08 0 0 Z " fill="#E4F6D0" transform="translate(52,300)"/>
<path d="M0 0 C0.66 0.33 1.32 0.66 2 1 C-0.46941056 3.59937954 -3.18060883 5.79020692 -6 8 C-5.34 8.66 -4.68 9.32 -4 10 C-10.625 11 -10.625 11 -14 11 C-11.14325205 7.98306057 -8.17651069 5.59445469 -4.75 3.25 C-3.85796875 2.63640625 -2.9659375 2.0228125 -2.046875 1.390625 C-1.03367188 0.70226562 -1.03367188 0.70226562 0 0 Z " fill="#ECECEB" transform="translate(131,435)"/>
<path d="M0 0 C4.43458973 1.3937282 6.87378374 3.60582235 10 7 C9.34 8.65 8.68 10.3 8 12 C7.7525 11.38125 7.505 10.7625 7.25 10.125 C6.17603789 7.84998472 6.17603789 7.84998472 3.9375 7 C2 6 2 6 1.3125 4 C1.1578125 3.01 1.1578125 3.01 1 2 C0.67 1.34 0.34 0.68 0 0 Z " fill="#89BC50" transform="translate(150,232)"/>
<path d="M0 0 C1.05767578 0.42925781 1.05767578 0.42925781 2.13671875 0.8671875 C5.01205232 2.00476831 7.90452186 3.07392356 10.8125 4.125 C11.78832031 4.47820312 12.76414062 4.83140625 13.76953125 5.1953125 C14.87361328 5.59363281 14.87361328 5.59363281 16 6 C16 6.33 16 6.66 16 7 C10.08874214 7.31111883 6.18813591 6.96464909 1 4 C0.0625 1.8125 0.0625 1.8125 0 0 Z " fill="#EFFAE3" transform="translate(112,407)"/>
<path d="M0 0 C8.91 1.98 8.91 1.98 18 4 C18 4.33 18 4.66 18 5 C10.08 5.495 10.08 5.495 2 6 C2.66 5.34 3.32 4.68 4 4 C2.68 3.34 1.36 2.68 0 2 C0 1.34 0 0.68 0 0 Z " fill="#F6FDE6" transform="translate(254,408)"/>
<path d="M0 0 C2.64 0.66 5.28 1.32 8 2 C8 2.66 8 3.32 8 4 C8.66 4.33 9.32 4.66 10 5 C7.03 6.32 4.06 7.64 1 9 C1.33 6.69 1.66 4.38 2 2 C1.34 2 0.68 2 0 2 C0 1.34 0 0.68 0 0 Z " fill="#4B494B" transform="translate(166,404)"/>
<path d="M0 0 C0.598125 0.33 1.19625 0.66 1.8125 1 C4.05386471 2.20787988 4.05386471 2.20787988 7 2 C8.00016187 4.00032373 8.49396008 5.83125748 9 8 C9.66 8 10.32 8 11 8 C11 8.66 11 9.32 11 10 C11.66 10.33 12.32 10.66 13 11 C12.34 11.66 11.68 12.32 11 13 C6.78185183 9.0299782 3.38772897 4.69159716 0 0 Z " fill="#95BE67" transform="translate(86,383)"/>
<path d="M0 0 C3.78383679 0.92493788 5.56693694 1.39371171 7.875 4.625 C8.431875 5.800625 8.431875 5.800625 9 7 C6.47064411 8.26467795 5.65809097 7.7249339 3 7 C2.01 7 1.02 7 0 7 C0 4.69 0 2.38 0 0 Z " fill="#7CB746" transform="translate(184,360)"/>
<path d="M0 0 C0.33 0 0.66 0 1 0 C1 2.64 1 5.28 1 8 C1.66 8.33 2.32 8.66 3 9 C3.33 9.99 3.66 10.98 4 12 C1.69 11.67 -0.62 11.34 -3 11 C-3.6875 9.3125 -3.6875 9.3125 -4 7 C-2.625 4.375 -2.625 4.375 -1 2 C-0.67 1.34 -0.34 0.68 0 0 Z " fill="#EDF5D9" transform="translate(391,332)"/>
<path d="M0 0 C1.78547548 2.19126536 3.01715957 4.04340363 4.0625 6.6875 C4.76803846 9.15938605 4.76803846 9.15938605 7 10 C7 11.98 7 13.96 7 16 C7.66 16 8.32 16 9 16 C9 16.99 9 17.98 9 19 C8.34 19 7.68 19 7 19 C6.03654556 17.12762629 5.07946898 15.2519701 4.125 13.375 C3.59132813 12.33085937 3.05765625 11.28671875 2.5078125 10.2109375 C1.08545709 7.18198375 -0.0122001 4.19356666 -1 1 C-0.67 0.67 -0.34 0.34 0 0 Z " fill="#9EC273" transform="translate(70,353)"/>
<path d="M0 0 C0.66 0 1.32 0 2 0 C0.61219205 3.89006773 -1.2152227 6.96558708 -3.625 10.3125 C-4.25664062 11.19550781 -4.88828125 12.07851563 -5.5390625 12.98828125 C-6.02117187 13.65214844 -6.50328125 14.31601562 -7 15 C-7.66 14.67 -8.32 14.34 -9 14 C-7.62220316 11.03243757 -5.97121074 8.60199817 -4 6 C-2.99431758 4.33675599 -1.99335201 2.67063747 -1 1 C-0.67 0.67 -0.34 0.34 0 0 Z " fill="#BFDC8A" transform="translate(381,347)"/>
<path d="M0 0 C0.66 0.33 1.32 0.66 2 1 C1.67 1.99 1.34 2.98 1 4 C1.33 4.66 1.66 5.32 2 6 C1.0925 6.144375 0.185 6.28875 -0.75 6.4375 C-3.21476956 6.86409473 -5.58847107 7.35074221 -8 8 C-8.33 7.01 -8.66 6.02 -9 5 C-7.54735962 4.1361871 -6.0876837 3.28419546 -4.625 2.4375 C-3.40683594 1.72400391 -3.40683594 1.72400391 -2.1640625 0.99609375 C-1.44992188 0.66738281 -0.73578125 0.33867187 0 0 Z " fill="#ECECEB" transform="translate(99,456)"/>
<path d="M0 0 C4.95 0.99 4.95 0.99 10 2 C7.31158141 4.25245881 5.35358125 5.88213958 2 7 C1.34 6.34 0.68 5.68 0 5 C0 3.33333333 0 1.66666667 0 0 Z " fill="#EDF4E6" transform="translate(131,414)"/>
<path d="M0 0 C0.66 0.99 1.32 1.98 2 3 C-1.96 4.98 -1.96 4.98 -6 7 C-7.32 5.68 -8.64 4.36 -10 3 C-9.01 3 -8.02 3 -7 3 C-7 2.34 -7 1.68 -7 1 C-5.68 1 -4.36 1 -3 1 C-2.01 0.67 -1.02 0.34 0 0 Z " fill="#434341" transform="translate(164,411)"/>
<path d="M0 0 C-0.639375 0.103125 -1.27875 0.20625 -1.9375 0.3125 C-2.618125 0.539375 -3.29875 0.76625 -4 1 C-4.33 1.99 -4.66 2.98 -5 4 C-5.99 4 -6.98 4 -8 4 C-8 4.66 -8 5.32 -8 6 C-9.28650706 6.69710731 -10.57940665 7.38242876 -11.875 8.0625 C-12.59429687 8.44535156 -13.31359375 8.82820313 -14.0546875 9.22265625 C-14.69664062 9.47917969 -15.33859375 9.73570312 -16 10 C-16.66 9.67 -17.32 9.34 -18 9 C-15.76063752 7.29652774 -13.51040913 5.61262463 -11.25 3.9375 C-10.61578125 3.45216797 -9.9815625 2.96683594 -9.328125 2.46679688 C-8.4 1.78520508 -8.4 1.78520508 -7.453125 1.08984375 C-6.88754883 0.66566162 -6.32197266 0.24147949 -5.73925781 -0.19555664 C-3.47054516 -1.24488401 -2.30549097 -0.81487181 0 0 Z " fill="#3C5029" transform="translate(212,376)"/>
<path d="M0 0 C0.66 0 1.32 0 2 0 C1.67 6.27 1.34 12.54 1 19 C-1 17 -1 17 -1.23046875 13.84765625 C-1.21628906 12.59855469 -1.20210938 11.34945313 -1.1875 10.0625 C-1.18105469 8.81597656 -1.17460937 7.56945312 -1.16796875 6.28515625 C-1 3 -1 3 0 0 Z " fill="#BEE575" transform="translate(410,257)"/>
<path d="M0 0 C0 0.66 0 1.32 0 2 C1.65 2.33 3.3 2.66 5 3 C4.67 3.66 4.34 4.32 4 5 C-0.95 3.68 -5.9 2.36 -11 1 C-6.46780033 -1.26609984 -4.82227075 -0.92735976 0 0 Z " fill="#94BC6C" transform="translate(137,412)"/>
<path d="M0 0 C1.65 0 3.3 0 5 0 C5 0.66 5 1.32 5 2 C7.97 2.33 10.94 2.66 14 3 C14 3.66 14 4.32 14 5 C15.32 5.66 16.64 6.32 18 7 C16 8 16 8 13.828125 7.328125 C12.97734375 6.97234375 12.1265625 6.6165625 11.25 6.25 C9.91582031 5.693125 9.91582031 5.693125 8.5546875 5.125 C5.64386318 3.84316911 2.81405798 2.48108315 0 1 C0 0.67 0 0.34 0 0 Z " fill="#E3F4CF" transform="translate(72,192)"/>
<path d="M0 0 C1.32 0.33 2.64 0.66 4 1 C-0.455 6.94 -0.455 6.94 -5 13 C-5.33 12.01 -5.66 11.02 -6 10 C-5.34 9.01 -4.68 8.02 -4 7 C-3.34 7 -2.68 7 -2 7 C-2.061875 5.824375 -2.061875 5.824375 -2.125 4.625 C-2 2 -2 2 0 0 Z " fill="#F2FCDF" transform="translate(204,136)"/>
<path d="M0 0 C1.32 0.66 2.64 1.32 4 2 C1.35261084 3.4606285 0.10551666 4 -3 4 C-3.33 5.32 -3.66 6.64 -4 8 C-6.31 8.66 -8.62 9.32 -11 10 C-9.37660195 8.29115995 -7.70680947 6.62553283 -6 5 C-5.34 5 -4.68 5 -4 5 C-3.67 4.01 -3.34 3.02 -3 2 C-2.01 1.34 -1.02 0.68 0 0 Z " fill="#C0DD83" transform="translate(267,80)"/>
<path d="M0 0 C-0.66 0 -1.32 0 -2 0 C-2 0.66 -2 1.32 -2 2 C-2.61488281 2.32613281 -3.22976563 2.65226562 -3.86328125 2.98828125 C-4.67152344 3.42527344 -5.47976563 3.86226562 -6.3125 4.3125 C-7.11300781 4.74175781 -7.91351563 5.17101562 -8.73828125 5.61328125 C-10.83787272 6.90059554 -12.35447721 8.18406708 -14 10 C-14.66 9.67 -15.32 9.34 -16 9 C-12.484375 4.3125 -12.484375 4.3125 -11 3 C-9.68 3 -8.36 3 -7 3 C-6.67 2.01 -6.34 1.02 -6 0 C-3.50907189 -1.24546405 -2.58919267 -0.7767578 0 0 Z " fill="#F2FBDC" transform="translate(354,22)"/>
<path d="M0 0 C0.66 0 1.32 0 2 0 C2 0.66 2 1.32 2 2 C2.66 2.33 3.32 2.66 4 3 C-0.95 5.64 -5.9 8.28 -11 11 C-11.66 10.34 -12.32 9.68 -13 9 C-12.195625 8.71125 -11.39125 8.4225 -10.5625 8.125 C-7.8673532 7.26737432 -7.8673532 7.26737432 -7 5 C-5.67203709 4.64587656 -4.33783393 4.31478446 -3 4 C-2.01 3.34 -1.02 2.68 0 2 C0 1.34 0 0.68 0 0 Z " fill="#84B15D" transform="translate(153,405)"/>
<path d="M0 0 C1.13643966 3.40931897 0.86747764 4.00335456 -0.4375 7.1875 C-0.72496094 7.90292969 -1.01242188 8.61835938 -1.30859375 9.35546875 C-1.53675781 9.89816406 -1.76492187 10.44085938 -2 11 C-0.68 11.66 0.64 12.32 2 13 C2 13.66 2 14.32 2 15 C-0.31 14.67 -2.62 14.34 -5 14 C-3.45730076 9.27934033 -1.92205381 4.58335908 0 0 Z " fill="#A8D460" transform="translate(230,373)"/>
<path d="M0 0 C0.66 0 1.32 0 2 0 C2 0.66 2 1.32 2 2 C3.65 2.33 5.3 2.66 7 3 C7.33 3.99 7.66 4.98 8 6 C4.7 6 1.4 6 -2 6 C-2.33 4.68 -2.66 3.36 -3 2 C-2.01 2 -1.02 2 0 2 C0 1.34 0 0.68 0 0 Z " fill="#393936" transform="translate(425,345)"/>
<path d="M0 0 C-1.36983503 3.16115776 -1.9890638 3.9927092 -5 6 C-7.33199388 6.07905064 -9.66832622 6.08798769 -12 6 C-11.67 5.01 -11.34 4.02 -11 3 C-9.00390625 2.05078125 -9.00390625 2.05078125 -6.5625 1.3125 C-5.75941406 1.06113281 -4.95632813 0.80976563 -4.12890625 0.55078125 C-2 0 -2 0 0 0 Z " fill="#484846" transform="translate(438,342)"/>
<path d="M0 0 C0.99 0.33 1.98 0.66 3 1 C2.01 1.33 1.02 1.66 0 2 C0 2.66 0 3.32 0 4 C-1.61457079 5.43581474 -3.29219075 6.80144783 -5 8.125 C-5.928125 8.84945312 -6.85625 9.57390625 -7.8125 10.3203125 C-8.534375 10.87460938 -9.25625 11.42890625 -10 12 C-10.33 11.01 -10.66 10.02 -11 9 C-9.6875 7.5 -9.6875 7.5 -8 6 C-7.01 6 -6.02 6 -5 6 C-4.67 5.01 -4.34 4.02 -4 3 C-3.01 3 -2.02 3 -1 3 C-0.67 2.01 -0.34 1.02 0 0 Z " fill="#EFFAD4" transform="translate(245,96)"/>
<path d="M0 0 C1.8125 1.5625 1.8125 1.5625 3 3 C1.35 3 -0.3 3 -2 3 C-2 2.01 -2 1.02 -2 0 C-2.268125 0.639375 -2.53625 1.27875 -2.8125 1.9375 C-4 4 -4 4 -7 5 C-7 4.34 -7 3.68 -7 3 C-7.99 2.67 -8.98 2.34 -10 2 C-10 1.34 -10 0.68 -10 0 C-6.32009358 -0.94626165 -3.64834225 -1.15210808 0 0 Z " fill="#363730" transform="translate(155,415)"/>
<path d="M0 0 C0.66 0 1.32 0 2 0 C2 0.66 2 1.32 2 2 C2.99 1.67 3.98 1.34 5 1 C4.67 2.98 4.34 4.96 4 7 C4.99 7.33 5.98 7.66 7 8 C4.69 8.66 2.38 9.32 0 10 C0.2784375 9.1028125 0.2784375 9.1028125 0.5625 8.1875 C1.22093687 5.83591238 1.22093687 5.83591238 0 3 C0 2.01 0 1.02 0 0 Z " fill="#484845" transform="translate(192,391)"/>
<path d="M0 0 C0.99 0.33 1.98 0.66 3 1 C1.04653795 2.67268922 -0.91229814 4.33821581 -2.875 6 C-3.70837891 6.71542969 -3.70837891 6.71542969 -4.55859375 7.4453125 C-8.7734375 11 -8.7734375 11 -11 11 C-11 9 -11 9 -9.1875 6.875 C-7 5 -7 5 -4 5 C-4 4.34 -4 3.68 -4 3 C-2.1875 1.3125 -2.1875 1.3125 0 0 Z " fill="#B9D87E" transform="translate(355,378)"/>
<path d="M0 0 C0.99 0.33 1.98 0.66 3 1 C2.979375 1.9075 2.95875 2.815 2.9375 3.75 C2.9889755 6.42672588 3.2215017 8.46988052 4 11 C3.01 11 2.02 11 1 11 C-0.28317892 7.15046324 -0.06643637 4.05261865 0 0 Z " fill="#A5D65F" transform="translate(155,288)"/>
<path d="M0 0 C0 0.66 0 1.32 0 2 C-3.63 3.98 -7.26 5.96 -11 8 C-11.33 7.34 -11.66 6.68 -12 6 C-11.34 6 -10.68 6 -10 6 C-10 5.01 -10 4.02 -10 3 C-8.70990357 2.49596232 -7.41786211 1.99690074 -6.125 1.5 C-5.04605469 1.08234375 -5.04605469 1.08234375 -3.9453125 0.65625 C-2 0 -2 0 0 0 Z " fill="#7EAA5B" transform="translate(173,397)"/>
<path d="M0 0 C1.76351631 2.64527446 2.38520935 3.97221911 3.0625 6.9375 C3.29646484 7.94103516 3.29646484 7.94103516 3.53515625 8.96484375 C3.68855469 9.63644531 3.84195313 10.30804688 4 11 C4.22558594 11.70253906 4.45117188 12.40507812 4.68359375 13.12890625 C4.78800781 13.74636719 4.89242187 14.36382812 5 15 C4.34 15.66 3.68 16.32 3 17 C0.84940691 13.46813168 0.6202272 10.33712007 0.375 6.25 C0.30023438 5.07953125 0.22546875 3.9090625 0.1484375 2.703125 C0.09945312 1.81109375 0.05046875 0.9190625 0 0 Z " fill="#EAF8DA" transform="translate(58,325)"/>
<path d="M0 0 C0.33 0 0.66 0 1 0 C1.50130606 5.26371362 0.31168629 7.9090934 -3 12 C-3.66 12 -4.32 12 -5 12 C-4.54738642 10.56068883 -4.08767021 9.12361001 -3.625 7.6875 C-3.24214844 6.48673828 -3.24214844 6.48673828 -2.8515625 5.26171875 C-2 3 -2 3 0 0 Z " fill="#EDFAD4" transform="translate(397,320)"/>
<path d="M0 0 C-1.95519384 1.17192047 -3.9142539 2.3373929 -5.875 3.5 C-6.96554687 4.1496875 -8.05609375 4.799375 -9.1796875 5.46875 C-12 7 -12 7 -14 7 C-14 7.66 -14 8.32 -14 9 C-14.99 8.67 -15.98 8.34 -17 8 C-16.34 8 -15.68 8 -15 8 C-14.79375 7.360625 -14.5875 6.72125 -14.375 6.0625 C-13 4 -13 4 -9.875 3.25 C-8.92625 3.1675 -7.9775 3.085 -7 3 C-7 2.34 -7 1.68 -7 1 C-3.375 -1.125 -3.375 -1.125 0 0 Z " fill="#F7FDE4" transform="translate(378,7)"/>
<path d="M0 0 C2.31 0 4.62 0 7 0 C7.33 0.99 7.66 1.98 8 3 C2.25 6 2.25 6 0 6 C-1 3 -1 3 0 0 Z " fill="#F1F1EF" transform="translate(48,457)"/>
<path d="M0 0 C0.99 0 1.98 0 3 0 C2.34 1.65 1.68 3.3 1 5 C0.34 5 -0.32 5 -1 5 C-0.67 5.99 -0.34 6.98 0 8 C-0.66 8 -1.32 8 -2 8 C-2.33 8.66 -2.66 9.32 -3 10 C-4.04449911 6.86650268 -3.93423645 6.01031744 -3 3 C-2.34 3 -1.68 3 -1 3 C-0.67 2.01 -0.34 1.02 0 0 Z " fill="#393939" transform="translate(124,426)"/>
<path d="M0 0 C-2 3 -2 3 -4.5 3.5625 C-5.325 3.706875 -6.15 3.85125 -7 4 C-7.66 4.66 -8.32 5.32 -9 6 C-11.625 6.125 -11.625 6.125 -14 6 C-10.96095324 2.3278185 -4.86447691 -2.43223845 0 0 Z " fill="#C0E184" transform="translate(328,42)"/>
<path d="M0 0 C0.66 0 1.32 0 2 0 C2.33 0.66 2.66 1.32 3 2 C3.99 2.33 4.98 2.66 6 3 C1.375 7.875 1.375 7.875 -2 9 C-2 8.01 -2 7.02 -2 6 C-1.34 6.33 -0.68 6.66 0 7 C0 4.69 0 2.38 0 0 Z " fill="#4D4D4A" transform="translate(151,415)"/>
<path d="M0 0 C-3.20406462 2.13604308 -3.99600747 2.24208908 -7.66796875 2.1953125 C-8.56064453 2.18886719 -9.45332031 2.18242187 -10.37304688 2.17578125 C-11.76620117 2.15064453 -11.76620117 2.15064453 -13.1875 2.125 C-14.12787109 2.11597656 -15.06824219 2.10695313 -16.03710938 2.09765625 C-18.35832968 2.07409056 -20.67903644 2.04119116 -23 2 C-23 1.67 -23 1.34 -23 1 C-21.87980469 0.93941406 -20.75960938 0.87882812 -19.60546875 0.81640625 C-18.13280016 0.73198576 -16.66014456 0.64733851 -15.1875 0.5625 C-14.44951172 0.52318359 -13.71152344 0.48386719 -12.95117188 0.44335938 C-0.86268029 -0.26772837 -0.86268029 -0.26772837 0 0 Z " fill="#F1FDDB" transform="translate(295,412)"/>
<path d="M0 0 C0.66 0 1.32 0 2 0 C2.09765625 6.15234375 2.09765625 6.15234375 2 8 C1.67 8.33 1.34 8.66 1 9 C0.63239269 11.32817964 0.29758419 13.6618385 0 16 C-0.33 16 -0.66 16 -1 16 C-1.02712153 14.083412 -1.04645097 12.1667127 -1.0625 10.25 C-1.07410156 9.18265625 -1.08570313 8.1153125 -1.09765625 7.015625 C-1.01510087 4.46631499 -0.74617558 2.42066409 0 0 Z " fill="#90BF56" transform="translate(52,216)"/>
<path d="M0 0 C0 0.66 0 1.32 0 2 C-0.99 2 -1.98 2 -3 2 C-3.2475 2.61875 -3.495 3.2375 -3.75 3.875 C-5.20628639 6.35068687 -6.37812506 6.95125002 -9 8 C-9.99 7.34 -10.98 6.68 -12 6 C-10.37829621 4.99466333 -8.75252763 3.99588093 -7.125 3 C-5.76761719 2.1646875 -5.76761719 2.1646875 -4.3828125 1.3125 C-2 0 -2 0 0 0 Z " fill="#EEFAD8" transform="translate(344,391)"/>
<path d="M0 0 C3 1 3 1 3.984375 2.70703125 C4.23703125 3.40183594 4.4896875 4.09664063 4.75 4.8125 C5.01296875 5.49957031 5.2759375 6.18664062 5.546875 6.89453125 C6.06056958 9.28143969 5.76282269 10.70637773 5 13 C0.59225513 4.738041 0.59225513 4.738041 0 0 Z " fill="#98BE6C" transform="translate(62,337)"/>
<path d="M0 0 C0.99 0 1.98 0 3 0 C4.23921302 2.97411124 5.30058404 5.85262818 6 9 C4.35 9.33 2.7 9.66 1 10 C1.66 9.67 2.32 9.34 3 9 C2.01 6.03 1.02 3.06 0 0 Z " fill="#525252" transform="translate(448,339)"/>
<path d="M0 0 C1.60031344 3.20062687 0.03173691 5.72271806 -1 9 C-2.32 9 -3.64 9 -5 9 C-5.33 9.66 -5.66 10.32 -6 11 C-5.55530671 5.96014269 -3.28656638 3.62365012 0 0 Z " fill="#BDDB82" transform="translate(223,118)"/>
<path d="M0 0 C-0.21484375 1.890625 -0.21484375 1.890625 -1 4 C-3.06640625 5.046875 -3.06640625 5.046875 -5.5625 5.75 C-6.80193359 6.11351563 -6.80193359 6.11351563 -8.06640625 6.484375 C-9.02353516 6.73960938 -9.02353516 6.73960938 -10 7 C-10 6.34 -10 5.68 -10 5 C-8.3203125 3.7109375 -8.3203125 3.7109375 -6.125 2.375 C-5.40570313 1.92898437 -4.68640625 1.48296875 -3.9453125 1.0234375 C-2 0 -2 0 0 0 Z " fill="#C8E293" transform="translate(298,59)"/>
<path d="M0 0 C6.15234375 0.5859375 6.15234375 0.5859375 8 1 C8.33 1.66 8.66 2.32 9 3 C11.01669827 4.13350534 11.01669827 4.13350534 13 5 C13 5.66 13 6.32 13 7 C8.50202887 5.31326082 4.27113698 3.18326108 0 1 C0 0.67 0 0.34 0 0 Z " fill="#E1F5D3" transform="translate(124,216)"/>
<path d="M0 0 C1.32 0.66 2.64 1.32 4 2 C3.67 3.32 3.34 4.64 3 6 C0.69 5.34 -1.62 4.68 -4 4 C-2.68 2.68 -1.36 1.36 0 0 Z " fill="#4B4B49" transform="translate(60,456)"/>
<path d="M0 0 C2.26171875 0.6796875 2.26171875 0.6796875 4.6875 1.875 C5.49574219 2.26429688 6.30398437 2.65359375 7.13671875 3.0546875 C7.75160156 3.36664063 8.36648437 3.67859375 9 4 C8.34 4.66 7.68 5.32 7 6 C5.68 6 4.36 6 3 6 C3 5.01 3 4.02 3 3 C0.03 2.505 0.03 2.505 -3 2 C-2.01 1.34 -1.02 0.68 0 0 Z " fill="#8FBC61" transform="translate(117,213)"/>
<path d="M0 0 C0.66 0.33 1.32 0.66 2 1 C1.67 2.65 1.34 4.3 1 6 C0.01 6.33 -0.98 6.66 -2 7 C-2 7.99 -2 8.98 -2 10 C-2.66 10 -3.32 10 -4 10 C-4.33 10.99 -4.66 11.98 -5 13 C-4.39254603 8.14036821 -2.27241033 4.2594482 0 0 Z " fill="#BCD880" transform="translate(179,184)"/>
<path d="M0 0 C0.33 1.32 0.66 2.64 1 4 C0.01 4.495 0.01 4.495 -1 5 C-2.04808041 6.97522846 -3.0520411 8.97481509 -4 11 C-4.99 11 -5.98 11 -7 11 C-5.22054913 6.95579349 -2.60470327 3.53921513 0 0 Z " fill="#BBDA86" transform="translate(210,133)"/>
<path d="M0 0 C2.9041227 4.35618406 4.19768998 8.1878419 3.625 13.4375 C3.41875 14.283125 3.2125 15.12875 3 16 C0.96780512 12.59648662 0.63108961 9.6767073 0.375 5.75 C0.30023438 4.67234375 0.22546875 3.5946875 0.1484375 2.484375 C0.09945313 1.66453125 0.05046875 0.8446875 0 0 Z " fill="#F2FCDF" transform="translate(410,80)"/>
<path d="M0 0 C0.99 0.66 1.98 1.32 3 2 C1.8803014 3.00593243 0.7540588 4.0045849 -0.375 5 C-1.00148438 5.556875 -1.62796875 6.11375 -2.2734375 6.6875 C-4 8 -4 8 -6 8 C-6 7.01 -6 6.02 -6 5 C-5.34 5 -4.68 5 -4 5 C-4 4.34 -4 3.68 -4 3 C-3.34 3 -2.68 3 -2 3 C-2 2.34 -2 1.68 -2 1 C-1.34 0.67 -0.68 0.34 0 0 Z " fill="#F1FBDF" transform="translate(263,80)"/>
<path d="M0 0 C2.1875 -0.375 2.1875 -0.375 5 0 C6.99022836 1.83961648 8.38989899 3.79186148 10 6 C7.03824877 5.38722388 5.61941217 4.74627478 3 3 C2.01 2.67 1.02 2.34 0 2 C0 1.34 0 0.68 0 0 Z " fill="#EAF4D8" transform="translate(224,389)"/>
<path d="M0 0 C-0.04125 0.7425 -0.0825 1.485 -0.125 2.25 C0.00543638 5.11960046 0.6545235 6.52093306 2 9 C0.85073734 8.04578192 -0.29430541 7.08647955 -1.4375 6.125 C-2.07558594 5.59132813 -2.71367187 5.05765625 -3.37109375 4.5078125 C-5 3 -5 3 -6 1 C-4 0 -4 0 0 0 Z " fill="#A4D35D" transform="translate(185,352)"/>
<path d="M0 0 C0.66 0 1.32 0 2 0 C1.67 1.98 1.34 3.96 1 6 C0.34 6 -0.32 6 -1 6 C-1.33 6.66 -1.66 7.32 -2 8 C-2.99 8.66 -3.98 9.32 -5 10 C-3.66749209 6.4124787 -2.169283 3.1635377 0 0 Z " fill="#EFFADB" transform="translate(381,350)"/>
<path d="M0 0 C1.35439668 2.70879335 1.06501451 5.00933268 1 8 C0.01 8.495 0.01 8.495 -1 9 C-1.33 9.99 -1.66 10.98 -2 12 C-2.66 12 -3.32 12 -4 12 C-3.5317879 7.22423661 -2.75668002 3.95523655 0 0 Z " fill="#A7D55C" transform="translate(244,340)"/>
<path d="M0 0 C0.33 0.66 0.66 1.32 1 2 C3.01669827 3.13350534 3.01669827 3.13350534 5 4 C4.67 4.99 4.34 5.98 4 7 C4 6.34 4 5.68 4 5 C1.69 4.67 -0.62 4.34 -3 4 C-3 3.34 -3 2.68 -3 2 C-3.66 1.67 -4.32 1.34 -5 1 C-2 0 -2 0 0 0 Z " fill="#353533" transform="translate(446,341)"/>
<path d="M0 0 C2.94721162 2.74395564 5.19168608 5.38337216 7 9 C6.67 9.66 6.34 10.32 6 11 C5.67 10.01 5.34 9.02 5 8 C2.98491642 7.26676204 2.98491642 7.26676204 1 7 C1 6.01 1 5.02 1 4 C0.34 4 -0.32 4 -1 4 C-0.67 2.68 -0.34 1.36 0 0 Z " fill="#76B64B" transform="translate(129,328)"/>
<path d="M0 0 C0.66 0.33 1.32 0.66 2 1 C0.63016497 4.16115776 0.0109362 4.9927092 -3 7 C-5.6875 7.125 -5.6875 7.125 -8 7 C-7.236875 6.401875 -6.47375 5.80375 -5.6875 5.1875 C-3.6516425 3.53040668 -1.8021721 1.89702326 0 0 Z " fill="#C3E185" transform="translate(312,48)"/>
<path d="M0 0 C0.33 0.66 0.66 1.32 1 2 C1.5775 2.268125 2.155 2.53625 2.75 2.8125 C5.72207612 4.38109573 7.70251569 6.57487767 10 9 C9.67 9.66 9.34 10.32 9 11 C7.5409857 9.70910257 6.08281149 8.41725561 4.625 7.125 C3.81289062 6.40570313 3.00078125 5.68640625 2.1640625 4.9453125 C0.74204921 3.66704062 -0.64794586 2.35205414 -2 1 C-1.34 0.67 -0.68 0.34 0 0 Z " fill="#98B96B" transform="translate(215,375)"/>
<path d="M0 0 C3.3 0.33 6.6 0.66 10 1 C10.33 2.32 10.66 3.64 11 5 C9.53932801 4.54917531 8.08151968 4.08906463 6.625 3.625 C5.81289062 3.36976563 5.00078125 3.11453125 4.1640625 2.8515625 C2 2 2 2 0 0 Z " fill="#DBEFC1" transform="translate(60,187)"/>
<path d="M0 0 C3.96 0 7.92 0 12 0 C12 0.33 12 0.66 12 1 C10.6078125 1.185625 10.6078125 1.185625 9.1875 1.375 C5.86074765 1.81533082 5.86074765 1.81533082 3 4 C2.01 4 1.02 4 0 4 C0 2.68 0 1.36 0 0 Z " fill="#61615F" transform="translate(0,466)"/>
<path d="M0 0 C0.99 0.33 1.98 0.66 3 1 C-1.455 4.465 -1.455 4.465 -6 8 C-6.66 7.67 -7.32 7.34 -8 7 C-6.625 5.5 -6.625 5.5 -5 4 C-4.34 4 -3.68 4 -3 4 C-3 3.34 -3 2.68 -3 2 C-2.01 2 -1.02 2 0 2 C0 1.34 0 0.68 0 0 Z " fill="#82AC5E" transform="translate(203,376)"/>
<path d="M0 0 C1.32 0.33 2.64 0.66 4 1 C0.04 4.465 0.04 4.465 -4 8 C-4.33 7.01 -4.66 6.02 -5 5 C-3.625 3.5 -3.625 3.5 -2 2 C-1.34 2 -0.68 2 0 2 C0 1.34 0 0.68 0 0 Z " fill="#F2FCD9" transform="translate(253,88)"/>
<path d="M0 0 C1.06546953 3.1964086 1.07427838 5.65747276 1 9 C0.01 9.33 -0.98 9.66 -2 10 C-2.66 9.67 -3.32 9.34 -4 9 C-2.80100302 5.9168649 -1.52299523 2.93720508 0 0 Z " fill="#5F5F5E" transform="translate(71,442)"/>
<path d="M0 0 C0 0.66 0 1.32 0 2 C-0.99 2 -1.98 2 -3 2 C-3.33 3.32 -3.66 4.64 -4 6 C-5.98 6 -7.96 6 -10 6 C-8.80702902 3.61405803 -7.85642735 3.16265153 -5.5625 1.875 C-4.94503906 1.52179688 -4.32757813 1.16859375 -3.69140625 0.8046875 C-2 0 -2 0 0 0 Z " fill="#46513C" transform="translate(148,413)"/>
<path d="M0 0 C-2.3125 2.0625 -2.3125 2.0625 -5 4 C-5.99 3.67 -6.98 3.34 -8 3 C-8 2.01 -8 1.02 -8 0 C-2.25 -1.125 -2.25 -1.125 0 0 Z " fill="#79A759" transform="translate(195,385)"/>
<path d="M0 0 C0.66 0 1.32 0 2 0 C3.00496852 3.01490557 3.10335303 5.04181692 3.0625 8.1875 C3.05347656 9.08855469 3.04445312 9.98960937 3.03515625 10.91796875 C3.02355469 11.60503906 3.01195312 12.29210937 3 13 C2.67 13 2.34 13 2 13 C1.66127487 11.58461283 1.32925376 10.16762037 1 8.75 C0.814375 7.96109375 0.62875 7.1721875 0.4375 6.359375 C0 4 0 4 0 0 Z " fill="#99C06A" transform="translate(52,296)"/>
<path d="M0 0 C0.33 1.32 0.66 2.64 1 4 C-2 6 -2 6 -6 6 C-6 5.34 -6 4.68 -6 4 C-4.03852126 2.61061923 -2.03833424 1.2739589 0 0 Z " fill="#3B3B39" transform="translate(500,296)"/>
<path d="M0 0 C6.4 0.49230769 6.4 0.49230769 9.4375 3.0625 C10.2109375 4.0215625 10.2109375 4.0215625 11 5 C10.01 5.495 10.01 5.495 9 6 C6.8359375 5.00390625 6.8359375 5.00390625 4.375 3.5625 C3.55773437 3.08941406 2.74046875 2.61632812 1.8984375 2.12890625 C1.27195313 1.75636719 0.64546875 1.38382813 0 1 C0 0.67 0 0.34 0 0 Z " fill="#E5F6D3" transform="translate(137,223)"/>
<path d="M0 0 C0 1.65 0 3.3 0 5 C-0.99 5.33 -1.98 5.66 -3 6 C-3 5.34 -3 4.68 -3 4 C-3.99 3.67 -4.98 3.34 -6 3 C-2.25 0 -2.25 0 0 0 Z " fill="#C2E088" transform="translate(304,55)"/>
<path d="M0 0 C2.39073445 3.82517513 2.55966552 7.59665524 3 12 C0.9375 10.5 0.9375 10.5 -1 8 C-1.05928384 5.17593353 -0.55954815 2.79774073 0 0 Z " fill="#CBE693" transform="translate(394,24)"/>
<path d="M0 0 C0.66 0 1.32 0 2 0 C2.33 1.32 2.66 2.64 3 4 C2.01 4.495 2.01 4.495 1 5 C0.34786708 7.02463255 0.34786708 7.02463255 0 9 C-0.66 9 -1.32 9 -2 9 C-2.33 8.01 -2.66 7.02 -3 6 C-2.04701223 4.63266972 -1.04625409 3.29735507 0 2 C0 1.34 0 0.68 0 0 Z " fill="#383837" transform="translate(125,431)"/>
<path d="M0 0 C2.625 0.375 2.625 0.375 5 1 C4 3 4 3 0.9375 4.125 C-0.5165625 4.558125 -0.5165625 4.558125 -2 5 C-2 2 -2 2 0 0 Z " fill="#454545" transform="translate(178,403)"/>
<path d="M0 0 C-1.28650706 0.69710731 -2.57940665 1.38242876 -3.875 2.0625 C-4.95394531 2.63677734 -4.95394531 2.63677734 -6.0546875 3.22265625 C-6.69664062 3.47917969 -7.33859375 3.73570312 -8 4 C-8.66 3.67 -9.32 3.34 -10 3 C-9.67 2.01 -9.34 1.02 -9 0 C-5.5657338 -0.85856655 -3.38317487 -0.97591583 0 0 Z " fill="#BED985" transform="translate(336,396)"/>
<path d="M0 0 C0.33 0.99 0.66 1.98 1 3 C-0.9375 5.6875 -0.9375 5.6875 -3 8 C-3.99 7.67 -4.98 7.34 -6 7 C-4.02 4.69 -2.04 2.38 0 0 Z " fill="#F2FCDE" transform="translate(375,360)"/>
<path d="M0 0 C0.66 0.33 1.32 0.66 2 1 C1.3125 2.9375 1.3125 2.9375 0 5 C-2.5625 5.625 -2.5625 5.625 -5 6 C-5.33 6.66 -5.66 7.32 -6 8 C-6 5 -6 5 -4.6875 3.61328125 C-3.125 2.40885417 -1.5625 1.20442708 0 0 Z " fill="#E7E7E7" transform="translate(484,312)"/>
<path d="M0 0 C5.75 1.75 5.75 1.75 8 4 C5.69 4.33 3.38 4.66 1 5 C1 4.34 1 3.68 1 3 C0.34 3 -0.32 3 -1 3 C-0.67 2.01 -0.34 1.02 0 0 Z " fill="#8EBF60" transform="translate(126,218)"/>
<path d="M0 0 C0.33 0 0.66 0 1 0 C1.125 6.75 1.125 6.75 0 9 C-0.99 8.67 -1.98 8.34 -3 8 C-1.125 1.125 -1.125 1.125 0 0 Z " fill="#BCDA80" transform="translate(173,197)"/>
<path d="M0 0 C1.98 0.495 1.98 0.495 4 1 C4 2.65 4 4.3 4 6 C2.35 5.67 0.7 5.34 -1 5 C-1 3 -1 3 0 2 C0 1.34 0 0.68 0 0 Z " fill="#B2D568" transform="translate(251,400)"/>
<path d="M0 0 C3.96 0.99 3.96 0.99 8 2 C5.24075815 3.80411967 4.11027897 4.0127245 0.75 3.625 C-0.1575 3.41875 -1.065 3.2125 -2 3 C-1.34 2.01 -0.68 1.02 0 0 Z " fill="#9AC366" transform="translate(76,195)"/>
<path d="M0 0 C1.875 0.25 1.875 0.25 4 1 C5.25 3.0625 5.25 3.0625 6 5 C3 5 3 5 1.3125 3.625 C0 2 0 2 0 0 Z " fill="#8DB958" transform="translate(98,394)"/>
<path d="M0 0 C2.31 0 4.62 0 7 0 C4.37801226 2.15377564 2.35595828 3.40072174 -1 4 C-0.67 2.68 -0.34 1.36 0 0 Z " fill="#78A756" transform="translate(180,390)"/>
<path d="M0 0 C2.59487555 1.29743778 3.02269781 2.29362471 4 5 C3.625 7.75 3.625 7.75 3 10 C-0.00617269 6.99382731 0.40414684 4.17618402 0 0 Z " fill="#8FBD56" transform="translate(67,344)"/>
<path d="M0 0 C3.37503669 1.1858237 5.64722731 2.27573689 8 5 C6.68 5.33 5.36 5.66 4 6 C2.68 4.02 1.36 2.04 0 0 Z " fill="#92BB66" transform="translate(150,232)"/>
<path d="M0 0 C0.66 0 1.32 0 2 0 C2.33 2.31 2.66 4.62 3 7 C2.01 7.33 1.02 7.66 0 8 C0 5.36 0 2.72 0 0 Z " fill="#B1D761" transform="translate(164,224)"/>
<path d="M0 0 C0.33 0 0.66 0 1 0 C1.125 6.625 1.125 6.625 0 10 C-0.66 10 -1.32 10 -2 10 C-1.125 2.25 -1.125 2.25 0 0 Z " fill="#B8D582" transform="translate(166,214)"/>
<path d="M0 0 C0.66 0.33 1.32 0.66 2 1 C1.67 1.66 1.34 2.32 1 3 C1.66 3.33 2.32 3.66 3 4 C1.35 4.33 -0.3 4.66 -2 5 C-2.66 4.01 -3.32 3.02 -4 2 C-2.125 0.9375 -2.125 0.9375 0 0 Z " fill="#40413D" transform="translate(163,406)"/>
<path d="M0 0 C5.75 3.625 5.75 3.625 8 7 C6.68 7 5.36 7 4 7 C2.45428722 4.68143083 1.20381448 2.49361571 0 0 Z " fill="#E0F2C8" transform="translate(95,394)"/>
<path d="M0 0 C0.33 0.66 0.66 1.32 1 2 C0.67 2.99 0.34 3.98 0 5 C-1.98 5.33 -3.96 5.66 -6 6 C-4 4 -2 2 0 0 Z " fill="#E7F6CD" transform="translate(358,378)"/>
<path d="M0 0 C2.4375 0.75 2.4375 0.75 5 2 C5.8125 4.125 5.8125 4.125 6 6 C5.01 6 4.02 6 3 6 C2.01 4.02 1.02 2.04 0 0 Z " fill="#97C06D" transform="translate(79,373)"/>
<path d="M0 0 C2.475 0.99 2.475 0.99 5 2 C4.01 2.99 3.02 3.98 2 5 C0.68 4.01 -0.64 3.02 -2 2 C-1.34 1.34 -0.68 0.68 0 0 Z " fill="#515151" transform="translate(483,307)"/>
<path d="M0 0 C0.33 0 0.66 0 1 0 C1.125 7.75 1.125 7.75 0 10 C-0.66 10 -1.32 10 -2 10 C-1.46274105 6.62294375 -0.88935377 3.303314 0 0 Z " fill="#F3FDDF" transform="translate(409,284)"/>
<path d="M0 0 C2.875 -0.125 2.875 -0.125 6 0 C8 2 8 2 8 4 C2.25 2.25 2.25 2.25 0 0 Z " fill="#E1F3CE" transform="translate(112,210)"/>
<path d="M0 0 C0.66 0 1.32 0 2 0 C1.67 2.31 1.34 4.62 1 7 C0.01 6.34 -0.98 5.68 -2 5 C-2 4.01 -2 3.02 -2 2 C-1.34 2 -0.68 2 0 2 C0 1.34 0 0.68 0 0 Z " fill="#B0D862" transform="translate(189,168)"/>
<path d="M0 0 C0 3 0 3 -2 5.1875 C-2.66 5.785625 -3.32 6.38375 -4 7 C-4.99 6.67 -5.98 6.34 -7 6 C-6.01 5.67 -5.02 5.34 -4 5 C-4 4.34 -4 3.68 -4 3 C-2 1.375 -2 1.375 0 0 Z " fill="#BBD982" transform="translate(249,95)"/>
<path d="M0 0 C0.66 0 1.32 0 2 0 C3.28317892 3.84953676 3.06643637 6.94738135 3 11 C2.67 11 2.34 11 2 11 C0.80712589 7.12315913 0 4.08378077 0 0 Z " fill="#EEF9D4" transform="translate(397,32)"/>
<path d="M0 0 C0.8971875 0.5259375 0.8971875 0.5259375 1.8125 1.0625 C1.8125 1.3925 1.8125 1.7225 1.8125 2.0625 C-1.1575 2.0625 -4.1275 2.0625 -7.1875 2.0625 C-4.72093412 -0.40406588 -3.34389711 -1.43309876 0 0 Z " fill="#B1D766" transform="translate(282.1875,409.9375)"/>
<path d="M0 0 C0.66 0 1.32 0 2 0 C4 3 4 3 3.625 5.6875 C3.41875 6.450625 3.2125 7.21375 3 8 C2.67 7.34 2.34 6.68 2 6 C1.34 6 0.68 6 0 6 C0.33 5.01 0.66 4.02 1 3 C0.67 2.01 0.34 1.02 0 0 Z " fill="#78B44B" transform="translate(163,364)"/>
<path d="M0 0 C1.80411967 2.75924185 2.0127245 3.88972103 1.625 7.25 C1.41875 8.1575 1.2125 9.065 1 10 C0.34 9.34 -0.32 8.68 -1 8 C-0.96712417 5.27130593 -0.43602229 2.7033382 0 0 Z " fill="#A0C775" transform="translate(61,326)"/>
<path d="M0 0 C1 2 1 2 0.25 4.5625 C-1 7 -1 7 -4 8 C-3.40072174 4.64404172 -2.15377564 2.62198774 0 0 Z " fill="#C4DE91" transform="translate(202,144)"/>
<path d="M0 0 C0.33 1.32 0.66 2.64 1 4 C-0.96466413 5.06775224 -2.96855359 6.06553465 -5 7 C-5.66 6.67 -6.32 6.34 -7 6 C-4.69 4.02 -2.38 2.04 0 0 Z " fill="#C9E196" transform="translate(236,106)"/>
<path d="M0 0 C1.32 0.66 2.64 1.32 4 2 C1.64561267 3.42944945 0.51967567 4.08661261 -2.25 3.625 C-2.8275 3.41875 -3.405 3.2125 -4 3 C-2.68 2.01 -1.36 1.02 0 0 Z " fill="#C3E28D" transform="translate(267,80)"/>
<path d="M0 0 C1.67542976 0.28604898 3.34385343 0.61781233 5 1 C3.68 2.32 2.36 3.64 1 5 C0.34 3.68 -0.32 2.36 -1 1 C-0.67 0.67 -0.34 0.34 0 0 Z " fill="#F6FDED" transform="translate(289,59)"/>
</svg>
