<?xml version="1.0" encoding="UTF-8"?>
<svg version="1.1" xmlns="http://www.w3.org/2000/svg" width="407" height="409">
<path d="M0 0 C134.31 0 268.62 0 407 0 C407 134.97 407 269.94 407 409 C272.69 409 138.38 409 0 409 C0 274.03 0 139.06 0 0 Z " fill="#008EC9" transform="translate(0,0)"/>
<path d="M0 0 C1.30514099 0.34532202 2.61547986 0.6714403 3.9296875 0.98046875 C23.42707809 5.64004629 40.69605161 17.48664133 56 30 C56.69480469 30.55300781 57.38960937 31.10601562 58.10546875 31.67578125 C62.5900239 35.34856262 66.27052295 39.57827663 70 44 C70.50402344 44.56589844 71.00804687 45.13179687 71.52734375 45.71484375 C82.62887737 58.22983523 91.3050263 72.95085521 96 89 C96.52606017 90.46403538 97.06617648 91.92315457 97.625 93.375 C108.15334432 121.13154412 106.02673872 153.42646852 96 181 C95.77441406 181.63776367 95.54882812 182.27552734 95.31640625 182.93261719 C91.95822237 192.32889157 87.5915578 200.70735099 82 209 C81.42741455 209.85658203 81.42741455 209.85658203 80.84326172 210.73046875 C74.91975586 219.53193871 68.34731344 227.36148206 61 235 C60.071875 236.04027344 60.071875 236.04027344 59.125 237.1015625 C48.67326746 248.43982592 33.57135011 257.82930963 19.5 264 C18.72100342 264.3417627 17.94200684 264.68352539 17.1394043 265.03564453 C-13.48229091 278.1880459 -51.91593015 280.16438097 -83.23828125 267.98828125 C-121.42191783 252.37435522 -150.49536593 225.63013482 -167.3125 187.8125 C-177.90931386 161.75955986 -181.43563733 130.40392145 -174 103 C-173.83371094 102.36803711 -173.66742188 101.73607422 -173.49609375 101.08496094 C-163.23287887 62.78796467 -138.31006698 31.04094199 -104.125 11.1875 C-96.69558917 7.03277564 -88.96974777 4.19918111 -80.87792969 1.62451172 C-79.25328304 1.08423011 -77.65778403 0.45774475 -76.0703125 -0.18359375 C-54.12529002 -8.8661896 -21.70353739 -8.48598026 0 0 Z " fill="#FDFDFD" transform="translate(240,75)"/>
<path d="M0 0 C29.22381139 27.08175192 48.93694635 64.4387829 51.20629883 104.65600586 C51.30290017 108.50233685 51.32896675 112.34000732 51.3125 116.1875 C51.30976578 117.20472137 51.30976578 117.20472137 51.30697632 118.24249268 C51.25809786 129.07504173 50.65414504 139.47582722 48 150 C47.82307617 150.70189453 47.64615234 151.40378906 47.46386719 152.12695312 C46.15593844 157.14632735 44.63648863 162.07890306 43 167 C42.77973145 167.67272949 42.55946289 168.34545898 42.33251953 169.03857422 C35.71823016 188.91026275 24.26854766 207.67712616 10 223 C9.49726563 223.60328125 8.99453125 224.2065625 8.4765625 224.828125 C-7.41954151 243.90344981 -29.02781649 257.98317901 -52 267 C-53.09054687 267.48726563 -54.18109375 267.97453125 -55.3046875 268.4765625 C-59.38019359 270.15673943 -63.44223123 271.3993624 -67.6875 272.5625 C-68.77708008 272.87477539 -68.77708008 272.87477539 -69.88867188 273.19335938 C-82.27146408 276.625254 -94.18926904 277.34611655 -106.97070312 277.31567383 C-109.73087403 277.31252184 -112.48996139 277.33601794 -115.25 277.36132812 C-129.97258204 277.41552806 -143.50222959 275.64236132 -157.5 270.8125 C-158.38091309 270.51351807 -159.26182617 270.21453613 -160.16943359 269.90649414 C-168.51171154 266.9825446 -176.24171137 263.2067165 -184 259 C-185.01578125 258.4740625 -186.0315625 257.948125 -187.078125 257.40625 C-224.83832837 237.57686946 -251.55997653 202.42168089 -264.54296875 162.3515625 C-272.2254984 137.31945599 -272.90735694 108.42786201 -267 83 C-266.77521973 81.96166016 -266.77521973 81.96166016 -266.54589844 80.90234375 C-264.58381334 71.85425704 -261.88188629 63.42628118 -258 55 C-257.41715945 53.6696251 -256.83518343 52.33887123 -256.25390625 51.0078125 C-246.81184366 29.75952702 -231.29902543 6.45083591 -212 -7 C-211.34 -7 -210.68 -7 -210 -7 C-210 -7.66 -210 -8.32 -210 -9 C-208.09263531 -10.48889676 -206.196361 -11.84769898 -204.1875 -13.1875 C-203.59437012 -13.5882373 -203.00124023 -13.98897461 -202.39013672 -14.40185547 C-201.17282824 -15.2208906 -199.95308512 -16.03631856 -198.73095703 -16.84814453 C-197.21801396 -17.85492385 -195.71550516 -18.87734781 -194.21484375 -19.90234375 C-186.86526575 -24.79097708 -179.07994775 -28.51063721 -171 -32 C-169.95070313 -32.45375 -168.90140625 -32.9075 -167.8203125 -33.375 C-110.03480331 -56.90090705 -45.69613006 -40.44370132 0 0 Z M-120.17041016 -22.92382812 C-158.30905228 -21.68354708 -190.69979093 -1.8384399 -216.37011719 25.2265625 C-220.03551897 29.21480075 -223.10774089 33.42855741 -226 38 C-226.38994141 38.61568848 -226.77988281 39.23137695 -227.18164062 39.86572266 C-236.10671698 54.1067719 -243.05472412 68.59788083 -247 85 C-247.2990625 86.13695312 -247.598125 87.27390625 -247.90625 88.4453125 C-255.61850772 122.07932532 -248.47202464 158.96244881 -230.9921875 188.37890625 C-224.28565365 198.67540822 -216.4122931 208.06107241 -208 217 C-207.48928955 217.54350098 -206.9785791 218.08700195 -206.45239258 218.64697266 C-202.24777525 223.00036783 -197.78980423 226.56978793 -192.8125 230 C-192.0685498 230.51763916 -191.32459961 231.03527832 -190.55810547 231.56860352 C-181.18872313 238.02255076 -171.57279965 243.72803447 -161 248 C-160.30406738 248.28407715 -159.60813477 248.5681543 -158.89111328 248.86083984 C-146.28410706 253.91582301 -134.56267826 256.53763597 -121 257 C-119.41445313 257.05559082 -119.41445313 257.05559082 -117.796875 257.11230469 C-97.82592768 257.69325678 -79.47902935 256.72511182 -60.96923828 248.83691406 C-58.94635096 247.97719949 -56.91052354 247.15554383 -54.87109375 246.3359375 C-46.20966682 242.78528409 -38.57273517 238.56550416 -31 233 C-29.96488281 232.26136719 -28.92976562 231.52273438 -27.86328125 230.76171875 C-5.21024363 214.25932407 14.56389799 189.95288909 23 163 C23.24443848 162.26313965 23.48887695 161.5262793 23.74072266 160.76708984 C33.21656572 132.19105439 34.58326579 100.59905413 24 72 C23.70351563 71.16984375 23.40703125 70.3396875 23.1015625 69.484375 C16.03675022 50.7656416 5.45890411 33.84897515 -9 20 C-10.175625 18.7934375 -10.175625 18.7934375 -11.375 17.5625 C-18.11825861 10.97979517 -25.09779886 5.14460543 -33 0 C-34.63388672 -1.06734375 -34.63388672 -1.06734375 -36.30078125 -2.15625 C-49.73713873 -10.69176924 -64.03984592 -16.76427671 -79.58203125 -20.2109375 C-83 -21 -83 -21 -85.84472656 -22.03271484 C-89.04892553 -23.01499868 -91.56384682 -23.25805778 -94.90234375 -23.265625 C-96.02801758 -23.27013672 -97.15369141 -23.27464844 -98.31347656 -23.27929688 C-100.10736816 -23.26479492 -100.10736816 -23.26479492 -101.9375 -23.25 C-103.18370117 -23.24033203 -104.42990234 -23.23066406 -105.71386719 -23.22070312 C-110.53387438 -23.15923912 -115.35148887 -23.03960692 -120.17041016 -22.92382812 Z " fill="#060606" transform="translate(313,93)"/>
<path d="M0 0 C0.90878906 0.70640625 1.81757813 1.4128125 2.75390625 2.140625 C18.23241426 14.38251754 30.94957891 29.01591763 41 46 C41.34240723 46.55816406 41.68481445 47.11632812 42.03759766 47.69140625 C54.25723789 67.65679991 62.13126247 90.74988301 65 114 C65.11085938 114.88816406 65.22171875 115.77632812 65.3359375 116.69140625 C69.90221663 161.05836155 57.63830635 207.94333918 29.4375 242.875 C27.97242387 244.59543271 26.49342703 246.30411896 25 248 C24.2471875 248.86238281 23.494375 249.72476562 22.71875 250.61328125 C20.50985568 253.10585207 18.26759539 255.56080279 16 258 C15.37738281 258.67675781 14.75476563 259.35351562 14.11328125 260.05078125 C0.72350548 274.05811482 -16.72814448 284.49750555 -34 293 C-35.21490112 293.60303955 -35.21490112 293.60303955 -36.4543457 294.21826172 C-43.39932768 297.53292647 -50.36011672 299.74635246 -57.8125 301.625 C-58.9888501 301.92349854 -60.1652002 302.22199707 -61.37719727 302.52954102 C-90.76568322 309.7521182 -120.79742878 310.43282805 -150 302 C-151.07121094 301.71382813 -152.14242187 301.42765625 -153.24609375 301.1328125 C-180.70451688 293.38549212 -204.63147062 277.63452832 -225 258 C-225.71414062 257.33742188 -226.42828125 256.67484375 -227.1640625 255.9921875 C-254.2007251 230.24811435 -273.46928963 187.15299592 -274.94140625 149.859375 C-274.96074219 148.58578125 -274.98007812 147.3121875 -275 146 C-275.02433105 145.14212891 -275.04866211 144.28425781 -275.07373047 143.40039062 C-276.40821497 94.43061142 -259.0165803 50.0732109 -225.44873047 14.51660156 C-224.97064941 14.01612305 -224.49256836 13.51564453 -224 13 C-223.46648926 12.44022461 -222.93297852 11.88044922 -222.38330078 11.30371094 C-203.60895901 -7.96539247 -177.81744218 -22.44230073 -151.93408203 -29.47363281 C-150.00009044 -29.99997539 -148.07700084 -30.557802 -146.15234375 -31.1171875 C-96.71249873 -44.98620476 -39.65206967 -32.08574935 0 0 Z M-200.39697266 6.87426758 C-201.91476501 7.94014339 -203.45682485 8.97121657 -205 10 C-205 10.66 -205 11.32 -205 12 C-205.56332031 12.2475 -206.12664062 12.495 -206.70703125 12.75 C-232.05652722 26.56914601 -250.4587068 62.5801576 -259 89 C-259.79270079 91.79821311 -260.50740401 94.60993392 -261.1875 97.4375 C-261.34250977 98.08074219 -261.49751953 98.72398437 -261.65722656 99.38671875 C-264.30803162 111.12187316 -265.34188614 122.73394041 -265.25 134.75 C-265.24178223 136.06476318 -265.23356445 137.37952637 -265.22509766 138.73413086 C-265.02093686 156.56088053 -262.51279057 172.02706956 -257 189 C-256.61972656 190.18335938 -256.23945313 191.36671875 -255.84765625 192.5859375 C-245.81535633 220.93343264 -224.5270419 247.78647605 -200 265 C-199.10539062 265.66257812 -198.21078125 266.32515625 -197.2890625 267.0078125 C-183.62781641 276.88382667 -168.92525467 284.27868575 -152.87353516 289.39160156 C-151.14726238 289.95217906 -149.43774724 290.56368021 -147.73046875 291.1796875 C-134.61334417 295.89016212 -121.73753817 296.34865206 -107.95385742 296.31567383 C-105.2025573 296.31251728 -102.45233974 296.33604301 -99.70117188 296.36132812 C-85.31099214 296.41402312 -72.02954764 294.72237939 -58.3125 290.125 C-57.51851807 289.86525391 -56.72453613 289.60550781 -55.90649414 289.33789062 C-53.59862942 288.57428122 -51.29820146 287.79216357 -49 287 C-47.76507813 286.57460938 -46.53015625 286.14921875 -45.2578125 285.7109375 C-38.29436699 283.17132796 -32.20547762 280.02763746 -26 276 C-24.88496094 275.30648438 -23.76992188 274.61296875 -22.62109375 273.8984375 C-7.83878573 264.66527325 5.95055733 253.56067964 17 240 C17.62132812 239.26652344 18.24265625 238.53304688 18.8828125 237.77734375 C24.56964492 230.91969289 29.35385747 223.57893033 34 216 C34.35626465 215.42733398 34.7125293 214.85466797 35.07958984 214.26464844 C42.23039511 202.69784934 47.06955846 190.6311308 50.359375 177.4296875 C51 175 51 175 51.9765625 172.16015625 C59.016763 150.42152188 58.24932582 123.08230174 53 101 C52.83371094 100.29842773 52.66742188 99.59685547 52.49609375 98.87402344 C42.46875307 58.33757027 17.33932345 25.21177142 -17 2 C-17.96164062 1.34902344 -18.92328125 0.69804688 -19.9140625 0.02734375 C-76.21342364 -36.88362068 -146.77810746 -31.17563719 -200.39697266 6.87426758 Z " fill="#F5F9F9" transform="translate(308,74)"/>
<path d="M0 0 C0.33 0.66 0.66 1.32 1 2 C3.52733235 2.65555119 3.52733235 2.65555119 6 3 C6.33 2.34 6.66 1.68 7 1 C7.54269531 1.309375 8.08539063 1.61875 8.64453125 1.9375 C12.18104003 3.53274111 15.82126482 3.87149889 19.63671875 4.4375 C20.41660156 4.623125 21.19648438 4.80875 22 5 C22.33 5.66 22.66 6.32 23 7 C23.845625 7.12375 24.69125 7.2475 25.5625 7.375 C29.85503818 8.15546149 33.19887142 9.92578009 37 12 C37 12.66 37 13.32 37 14 C42.95553436 15.34409172 42.95553436 15.34409172 48.9375 16.5625 C51 17 51 17 53 18 C53 18.66 53 19.32 53 20 C53.85464844 20.26554687 54.70929688 20.53109375 55.58984375 20.8046875 C57.24693359 21.33449219 57.24693359 21.33449219 58.9375 21.875 C60.03964844 22.22304688 61.14179688 22.57109375 62.27734375 22.9296875 C65 24 65 24 66 26 C68.02463255 26.65213292 68.02463255 26.65213292 70 27 C70 27.66 70 28.32 70 29 C70.639375 29.12375 71.27875 29.2475 71.9375 29.375 C72.618125 29.58125 73.29875 29.7875 74 30 C74.33 30.66 74.66 31.32 75 32 C75.845625 32.495 76.69125 32.99 77.5625 33.5 C78.7690625 34.2425 78.7690625 34.2425 80 35 C80 35.66 80 36.32 80 37 C80.804375 37.268125 81.60875 37.53625 82.4375 37.8125 C83.283125 38.204375 84.12875 38.59625 85 39 C85.33 39.99 85.66 40.98 86 42 C87.6476038 42.71247732 89.31763529 43.37400383 91 44 C93.3125 45.5 93.3125 45.5 95 47 C95 47.66 95 48.32 95 49 C95.66 49 96.32 49 97 49 C97.33 49.99 97.66 50.98 98 52 C98.66 52.33 99.32 52.66 100 53 C100 53.66 100 54.32 100 55 C100.66 55 101.32 55 102 55 C102 55.66 102 56.32 102 57 C102.99 57 103.98 57 105 57 C108 60.33333333 108 60.33333333 108 63 C108.66 63 109.32 63 110 63 C110.4021875 63.9590625 110.4021875 63.9590625 110.8125 64.9375 C111.88667752 67.33131686 111.88667752 67.33131686 115 68 C117.07530387 70.92079805 118 72.37546731 118 76 C118.99 76 119.98 76 121 76 C121.66 78.64 122.32 81.28 123 84 C123.66 84 124.32 84 125 84 C126.25664978 86.90600261 127 88.79604584 127 92 C127.66 92 128.32 92 129 92 C129 93.32 129 94.64 129 96 C130.65 96.33 132.3 96.66 134 97 C134 100.3 134 103.6 134 107 C134.66 107 135.32 107 136 107 C136.33 106.01 136.66 105.02 137 104 C137.13277344 104.73605469 137.26554687 105.47210938 137.40234375 106.23046875 C137.57894531 107.20628906 137.75554687 108.18210937 137.9375 109.1875 C138.11152344 110.15042969 138.28554688 111.11335938 138.46484375 112.10546875 C138.9523735 114.74239972 139.46671105 117.3719905 140 120 C140.99 120 141.98 120 143 120 C143.12117188 120.60328125 143.24234375 121.2065625 143.3671875 121.828125 C143.53476562 122.62734375 143.70234375 123.4265625 143.875 124.25 C144.03742188 125.03890625 144.19984375 125.8278125 144.3671875 126.640625 C144.91075382 129.02675211 144.91075382 129.02675211 146.1328125 131.109375 C147 133 147 133 146 136 C146.66 136 147.32 136 148 136 C150.15121951 147.52439024 150.15121951 147.52439024 150 152.25 C149.82972764 156.00084742 149.82972764 156.00084742 150.984375 159.4765625 C152.42012814 164.99127511 152.29791626 170.45827156 152.25 176.125 C152.24202393 177.82197021 152.24202393 177.82197021 152.23388672 179.55322266 C152.14959621 187.1873821 151.79035173 194.76969575 151.125 202.375 C151.00753418 203.74615967 151.00753418 203.74615967 150.88769531 205.14501953 C150.47464803 209.3031871 149.94189234 212.27538683 148 216 C147.58727158 218.00969068 147.23679685 220.03281461 146.9375 222.0625 C146.46849682 225.19823203 146.00385447 227.9884366 145 231 C144.731875 232.051875 144.46375 233.10375 144.1875 234.1875 C142.28615319 240.29182397 139.27659603 245.53900661 136 251 C134.26090594 254.35448687 132.60357117 257.74974543 130.9609375 261.15234375 C128.3030838 266.59992938 128.3030838 266.59992938 126.4375 269.0625 C124.81084105 271.07159616 124.81084105 271.07159616 123.8125 274.125 C121.37493985 280.12217179 116.68847777 284.96874132 112.4375 289.76171875 C110.3106713 292.17339058 109.00723743 293.97783538 108 297.0625 C106.75100353 300.73142712 104.92635574 302.51259762 102 305 C101.34 305 100.68 305 100 305 C99.7525 305.598125 99.505 306.19625 99.25 306.8125 C97.27685704 310.26550018 94.74799134 311.64117339 91.20703125 313.33984375 C88.01809465 314.9906331 85.30535171 316.84605164 82.4375 319 C79.74465804 321.01676674 77.12754198 322.92537628 74.22265625 324.625 C71.87787066 325.80645467 71.87787066 325.80645467 71 328 C71.66 328.33 72.32 328.66 73 329 C72.154375 329.226875 71.30875 329.45375 70.4375 329.6875 C66.32595149 331.25736398 63.49606516 333.34299048 60 336 C60 335.34 60 334.68 60 334 C59.34 334 58.68 334 58 334 C57.67 334.99 57.34 335.98 57 337 C55.35 337 53.7 337 52 337 C52 337.99 52 338.98 52 340 C46 342 46 342 43.66796875 342.6953125 C42.47107422 343.06269531 42.47107422 343.06269531 41.25 343.4375 C40.11304688 343.77587891 40.11304688 343.77587891 38.953125 344.12109375 C36.65000997 344.94958859 36.65000997 344.94958859 35 348 C32.18270764 348.52401049 29.52955337 348.88282001 26.6875 349.125 C19.77404679 349.65821498 19.77404679 349.65821498 13 351 C12.67 351.66 12.34 352.32 12 353 C8.87907123 353.74639587 5.63118813 353.86475971 2.4375 354.125 C1.44419678 354.20991699 0.45089355 354.29483398 -0.57250977 354.38232422 C-14.68598957 355.44712869 -28.85781148 355.17447893 -43 355 C-43 354.34 -43 353.68 -43 353 C-44.175625 352.87625 -45.35125 352.7525 -46.5625 352.625 C-50.54120426 352.13564065 -54.17766559 351.1944795 -58 350 C-58 349.34 -58 348.68 -58 348 C-58.85722656 348.03480469 -59.71445313 348.06960938 -60.59765625 348.10546875 C-67.35403936 348.26542821 -71.99868959 348.06189306 -78 345 C-79.98821313 344.60235737 -81.98732362 344.24544834 -84 344 C-84 343.34 -84 342.68 -84 342 C-86.30924401 341.40026915 -88.61635179 340.87200102 -90.953125 340.38671875 C-97.55936964 338.98563132 -103.12443825 337.3410057 -109 334 C-109 333.34 -109 332.68 -109 332 C-110.32 332 -111.64 332 -113 332 C-113 331.01 -113 330.02 -113 329 C-113.58265625 328.88527344 -114.1653125 328.77054687 -114.765625 328.65234375 C-117.16523135 327.95175938 -118.72860933 327.01807405 -120.75 325.5625 C-121.67039063 324.91474609 -121.67039063 324.91474609 -122.609375 324.25390625 C-123.06828125 323.84011719 -123.5271875 323.42632812 -124 323 C-124 322.34 -124 321.68 -124 321 C-124.680625 320.938125 -125.36125 320.87625 -126.0625 320.8125 C-129.99512049 319.72475391 -132.92402281 317.65427064 -136 315 C-136.33 314.34 -136.66 313.68 -137 313 C-137.66 313.33 -138.32 313.66 -139 314 C-140.7074998 312.71937515 -142.37373596 311.38232443 -144 310 C-144 309.34 -144 308.68 -144 308 C-144.66 308 -145.32 308 -146 308 C-146 307.01 -146 306.02 -146 305 C-146.61875 304.9175 -147.2375 304.835 -147.875 304.75 C-150 304 -150 304 -151.25 301.9375 C-151.4975 301.298125 -151.745 300.65875 -152 300 C-152.99 300 -153.98 300 -155 300 C-155.391875 299.319375 -155.78375 298.63875 -156.1875 297.9375 C-157.96510992 295.05654599 -159.39738732 293.76197739 -162 291.6875 C-166.23456739 288.1574036 -167.33277004 285.17718778 -169 280 C-169.99 279.34 -170.98 278.68 -172 278 C-172.49626103 276.08112403 -172.98448296 274.15926993 -173.40625 272.22265625 C-174.65108051 267.56273152 -177.09396317 263.40939062 -179.6875 259.375 C-181.22680428 256.58959225 -181.6346608 254.14191715 -182 251 C-182.33 252.65 -182.66 254.3 -183 256 C-183.33 256 -183.66 256 -184 256 C-184.05607422 255.03900391 -184.05607422 255.03900391 -184.11328125 254.05859375 C-184.54343237 248.39915445 -185.63268041 244.2081031 -188 239 C-188.7852403 236.02183251 -189.41718715 233.02377022 -190 230 C-190 232.64 -190 235.28 -190 238 C-192.90998132 236.54500934 -193.28461959 234.28166172 -194.32666016 231.34375 C-195.44671505 227.44508177 -195.82982246 223.52961482 -196.1875 219.5 C-196.26935547 218.67757812 -196.35121094 217.85515625 -196.43554688 217.0078125 C-196.63338638 215.00614225 -196.81808724 213.00318047 -197 211 C-197.66 211 -198.32 211 -199 211 C-199.33 199.78 -199.66 188.56 -200 177 C-200.33 177 -200.66 177 -201 177 C-201.27709335 169.42611505 -200.83997355 161.97253433 -200.125 154.4375 C-200.04652832 153.55674805 -199.96805664 152.67599609 -199.88720703 151.76855469 C-199.80325684 150.93614258 -199.71930664 150.10373047 -199.6328125 149.24609375 C-199.55949707 148.50029053 -199.48618164 147.7544873 -199.41064453 146.98608398 C-199 145 -199 145 -197 142 C-196.32807631 139.59750923 -196.32807631 139.59750923 -195.875 137 C-195.70742187 136.13375 -195.53984375 135.2675 -195.3671875 134.375 C-194.923605 131.90640682 -194.923605 131.90640682 -195 129 C-194.690625 128.29875 -194.38125 127.5975 -194.0625 126.875 C-193.07262439 124.19651306 -192.84947777 122.42626266 -192.6875 119.625 C-192.3024045 115.23636452 -190.85387435 113.0404193 -188.125 109.68359375 C-186.7137908 107.8356876 -186.7137908 107.8356876 -186.5 104.4375 C-185.85656838 100.01390759 -183.94180957 98.29202499 -181 95 C-179.96958573 93.01549844 -178.96314063 91.01800895 -178 89 C-177.01 88.01 -177.01 88.01 -176 87 C-175.31974363 85.00458132 -174.65509503 83.00382009 -174 81 C-170.03174603 72.56746032 -170.03174603 72.56746032 -166.5 70.625 C-163.47206371 68.65684141 -163.28206714 67.28529704 -162 64 C-160.37064759 62.62131719 -158.70250393 61.28725907 -157 60 C-156.443125 59.2575 -155.88625 58.515 -155.3125 57.75 C-154.879375 57.1725 -154.44625 56.595 -154 56 C-153.34 56 -152.68 56 -152 56 C-151.9071875 55.13375 -151.9071875 55.13375 -151.8125 54.25 C-150.66615826 51.07551517 -148.74043158 49.87151425 -146 48 C-145.34 48 -144.68 48 -144 48 C-143.67 46.68 -143.34 45.36 -143 44 C-142.01 44 -141.02 44 -140 44 C-140 43.34 -140 42.68 -140 42 C-138.35546875 40.37890625 -138.35546875 40.37890625 -136.1875 38.5625 C-133.20066739 36.04838597 -133.20066739 36.04838597 -130.390625 33.34375 C-128.49222149 31.50933762 -126.46323524 30.90118363 -124 30 C-122.65949948 29.34786461 -121.32338632 28.68620031 -120 28 C-120 27.01 -120 26.02 -120 25 C-118.95199219 24.70996094 -118.95199219 24.70996094 -117.8828125 24.4140625 C-116.97273438 24.15367188 -116.06265625 23.89328125 -115.125 23.625 C-114.22007813 23.36976562 -113.31515625 23.11453125 -112.3828125 22.8515625 C-109.85430274 22.1395685 -109.85430274 22.1395685 -108 20 C-106.68 20 -105.36 20 -104 20 C-104 19.34 -104 18.68 -104 18 C-102.54293274 17.49632243 -101.08429904 16.99717444 -99.625 16.5 C-98.81289062 16.2215625 -98.00078125 15.943125 -97.1640625 15.65625 C-95 15 -95 15 -93 15 C-92.34 14.01 -91.68 13.02 -91 12 C-90.01 12 -89.02 12 -88 12 C-88 11.01 -88 10.02 -88 9 C-85.21296158 7.60648079 -82.5257646 7.46560681 -79.4375 7.0625 C-69.46127324 6.28515915 -69.46127324 6.28515915 -61 2 C-57.84765625 1.5859375 -57.84765625 1.5859375 -54.0625 1.375 C-52.81597656 1.30023438 -51.56945312 1.22546875 -50.28515625 1.1484375 C-48.19165595 1.05384415 -46.09563628 1 -44 1 C-42.076476 0.75567725 -40.1530058 0.51091249 -38.22998047 0.26269531 C-25.46223477 -1.24136582 -12.78632208 -1.06416253 0 0 Z M-97 22 C-97.73831055 22.35465332 -98.47662109 22.70930664 -99.23730469 23.07470703 C-140.00368707 42.97450238 -170.71031409 78.60466321 -185.79541016 121.24853516 C-193.2030455 143.20170934 -195.30778014 164.98128518 -195 188 C-194.99484375 189.24265625 -194.9896875 190.4853125 -194.984375 191.765625 C-193.83734307 224.37410421 -178.97189061 258.62043801 -159 284 C-157.92878906 285.40185547 -157.92878906 285.40185547 -156.8359375 286.83203125 C-131.02975259 319.62934626 -90.9181186 343.24643368 -49.37890625 348.625 C-17.20212148 352.42623489 19.27902781 349.84547014 48.18066406 333.99511719 C50.21567415 332.8820333 52.27462126 331.82134001 54.3359375 330.7578125 C69.9233461 322.56547666 83.34669918 312.18466005 96 300 C96.6290625 299.4225 97.258125 298.845 97.90625 298.25 C128.46476848 269.42120898 144.88696146 224.32093735 146.18359375 183.0703125 C146.77471119 152.32032364 139.90034914 121.98888266 125 95 C124.43539063 93.95714844 123.87078125 92.91429688 123.2890625 91.83984375 C102.61294581 55.0014105 66.57260143 25.04772363 25.80664062 13.06103516 C-15.50152846 2.05402302 -58.02974152 3.2171919 -97 22 Z " fill="#0678A7" transform="translate(228,32)"/>
<path d="M0 0 C0.9215538 0.00222061 1.8431076 0.00444122 2.79258728 0.00672913 C3.83359085 0.00680466 4.87459442 0.00688019 5.94714355 0.00695801 C7.07941879 0.01211929 8.21169403 0.01728058 9.37828064 0.02259827 C11.10744972 0.02472069 11.10744972 0.02472069 12.87155151 0.02688599 C16.57043503 0.03250446 20.26925903 0.0450601 23.96812439 0.05775452 C26.46877456 0.06276714 28.96942567 0.06733045 31.47007751 0.07142639 C37.61528027 0.0824799 43.76044808 0.099236 49.90562439 0.12025452 C49.90562439 0.78025452 49.90562439 1.44025452 49.90562439 2.12025452 C47.8989335 3.82197719 45.88072532 5.41576452 43.78062439 6.99525452 C38.61099971 10.96256387 33.57731413 15.0365743 28.65562439 19.30775452 C24.00556731 23.33635477 19.29327807 27.24757566 14.46421814 31.06166077 C11.39837772 33.52837512 8.40125052 36.06911547 5.40562439 38.62025452 C0.89188372 42.46058471 -3.67100509 46.22035081 -8.31312561 49.90541077 C-17.4888492 57.21248278 -26.57163246 64.62868648 -35.50502014 72.2301178 C-40.64336298 76.59939155 -45.85650338 80.87124312 -51.09437561 85.12025452 C-52.03023499 85.89111389 -52.96609436 86.66197327 -53.93031311 87.45619202 C-54.83007874 88.19095764 -55.72984436 88.92572327 -56.65687561 89.68275452 C-57.46253967 90.34404358 -58.26820374 91.00533264 -59.09828186 91.68666077 C-61.09437561 93.12025452 -61.09437561 93.12025452 -63.09437561 93.12025452 C-61.6584509 89.11229889 -59.72907311 85.84630133 -57.34828186 82.32337952 C-56.98129684 81.777099 -56.61431183 81.23081848 -56.23620605 80.66798401 C-55.45256727 79.50241117 -54.6668717 78.33821892 -53.87928772 77.17530823 C-51.8181897 74.13182346 -49.77183622 71.07843972 -47.72328186 68.02650452 C-47.31921112 67.42545898 -46.91514038 66.82441345 -46.49882507 66.20515442 C-43.31172937 61.45985238 -40.18252484 56.68036449 -37.09437561 51.87025452 C-33.36274266 46.06338031 -29.56714371 40.30450631 -25.72132874 34.57264709 C-22.95302541 30.43724644 -20.26099207 26.25923264 -17.59437561 22.05775452 C-3.69372005 0.21208541 -3.69372005 0.21208541 0 0 Z " fill="#050505" transform="translate(196.09437561035156,220.87974548339844)"/>
<path d="M0 0 C-1.71197809 4.93915517 -4.39754311 9.19864543 -7.125 13.625 C-7.61709961 14.42752197 -8.10919922 15.23004395 -8.61621094 16.05688477 C-11.87963732 21.32624613 -15.32772824 26.38640412 -19.05908203 31.33837891 C-20.83280446 33.77072129 -22.4551676 36.23139175 -24.046875 38.78515625 C-27.04811988 43.53845552 -30.12680077 48.23273627 -33.25 52.90625 C-33.71573425 53.60323502 -34.18146851 54.30022003 -34.66131592 55.01832581 C-36.59183419 57.90491086 -38.52448105 60.79006806 -40.45703125 63.67529297 C-41.88902154 65.81411136 -43.31978387 67.9537449 -44.75 70.09375 C-45.20866455 70.77904785 -45.6673291 71.4643457 -46.13989258 72.17041016 C-49.34902818 76.98033675 -52.45175047 81.84743267 -55.46484375 86.78320312 C-59.57345181 92.7161168 -59.57345181 92.7161168 -63.41717529 93.48101807 C-64.76286591 93.4676944 -64.76286591 93.4676944 -66.13574219 93.45410156 C-67.66687653 93.45364838 -67.66687653 93.45364838 -69.22894287 93.45318604 C-70.32386047 93.43254089 -71.41877808 93.41189575 -72.546875 93.390625 C-73.6732135 93.38496521 -74.799552 93.37930542 -75.96002197 93.37347412 C-79.55711382 93.35108545 -83.15320926 93.30088213 -86.75 93.25 C-89.1887877 93.22993833 -91.62759101 93.21168698 -94.06640625 93.1953125 C-100.04461074 93.15121244 -106.02223419 93.08427463 -112 93 C-110.74545864 89.23637591 -109.15439966 88.26260282 -106.0625 85.8125 C-105.06089844 85.01199219 -104.05929688 84.21148437 -103.02734375 83.38671875 C-102.02832031 82.59910156 -101.02929688 81.81148438 -100 81 C-94.4284902 76.57941241 -88.91602617 72.10936723 -83.5 67.5 C-79.01126576 63.68036569 -74.46974186 59.94810958 -69.8515625 56.28515625 C-66.08221874 53.26451776 -62.35284471 50.19662317 -58.625 47.125 C-57.88628662 46.51640137 -57.14757324 45.90780273 -56.38647461 45.28076172 C-52.17922601 41.80995586 -47.99005043 38.31895799 -43.8125 34.8125 C-39.54541438 31.24291876 -35.20231163 27.79079472 -30.8125 24.375 C-26.10503247 20.71144253 -21.57781968 16.93107746 -17.1640625 12.9140625 C-13.93799226 10.06067907 -10.55505788 7.4153072 -7.1640625 4.76171875 C-5.01206367 3.08261985 -5.01206367 3.08261985 -3.3359375 1.26953125 C-2 0 -2 0 0 0 Z " fill="#040404" transform="translate(275,110)"/>
<path d="M0 0 C0.66 0 1.32 0 2 0 C2.1451001 0.73822998 2.2902002 1.47645996 2.43969727 2.23706055 C9.83010809 39.37912915 22.11631114 71.71202073 48 100 C49.25490234 101.37865234 49.25490234 101.37865234 50.53515625 102.78515625 C81.34987566 135.08716227 125.29568671 152.18336719 169.40991211 153.28808594 C194.27924777 153.53439014 222.2019026 149.04793933 244.17626953 136.99951172 C246.22574721 135.87627723 248.29762938 134.80092958 250.37109375 133.72265625 C258.87577169 129.22028569 266.78444701 124.28757088 274.40625 118.40332031 C278.82243392 115 278.82243392 115 281 115 C280.75 116.875 280.75 116.875 280 119 C278.68352881 119.69937532 277.34977849 120.36729133 276 121 C275.67 121.99 275.34 122.98 275 124 C274.01 124 273.02 124 272 124 C272 124.66 272 125.32 272 126 C270.88625 126.4021875 270.88625 126.4021875 269.75 126.8125 C267.12953519 127.94406435 265.2565011 129.28817158 263 131 C262.34 131 261.68 131 261 131 C260.67 131.99 260.34 132.98 260 134 C256.99559979 136.00293347 255.29006055 136.49271626 251.8125 137.125 C250.91144531 137.29257812 250.01039063 137.46015625 249.08203125 137.6328125 C248.39496094 137.75398437 247.70789063 137.87515625 247 138 C247 138.66 247 139.32 247 140 C245.88625 140.45375 244.7725 140.9075 243.625 141.375 C240.03800992 142.72465986 240.03800992 142.72465986 238 145 C236.01463373 145.70905938 234.01089078 146.36694179 232 147 C230.70622582 147.49452112 229.41464365 147.99480495 228.125 148.5 C221.27153913 151.06679048 215.33742034 152.26205073 208 152 C208 152.66 208 153.32 208 154 C197.1575815 156.51184933 186.15440696 156.48612823 175.08129883 156.68798828 C171.80955896 156.75005579 168.53879976 156.83320557 165.26757812 156.91796875 C163.16408882 156.96220743 161.06057327 157.00521845 158.95703125 157.046875 C157.50826347 157.08575836 157.50826347 157.08575836 156.03022766 157.12542725 C150.37056562 157.20966304 144.28522275 157.29121139 139 155 C138.67 154.01 138.34 153.02 138 152 C137.14277344 152.03480469 136.28554687 152.06960938 135.40234375 152.10546875 C128.64596064 152.26542821 124.00131041 152.06189306 118 149 C116.01178687 148.60235737 114.01267638 148.24544834 112 148 C112 147.34 112 146.68 112 146 C109.69075599 145.40026915 107.38364821 144.87200102 105.046875 144.38671875 C98.44063036 142.98563132 92.87556175 141.3410057 87 138 C87 137.34 87 136.68 87 136 C85.68 136 84.36 136 83 136 C83 135.01 83 134.02 83 133 C82.41734375 132.88527344 81.8346875 132.77054688 81.234375 132.65234375 C78.83476865 131.95175938 77.27139067 131.01807405 75.25 129.5625 C74.63640625 129.13066406 74.0228125 128.69882812 73.390625 128.25390625 C72.70226562 127.63322266 72.70226562 127.63322266 72 127 C72 126.34 72 125.68 72 125 C71.319375 124.938125 70.63875 124.87625 69.9375 124.8125 C66.00487951 123.72475391 63.07597719 121.65427064 60 119 C59.67 118.34 59.34 117.68 59 117 C58.01 117.495 58.01 117.495 57 118 C55.2925002 116.71937515 53.62626404 115.38232443 52 114 C52 113.34 52 112.68 52 112 C51.34 112 50.68 112 50 112 C50 111.01 50 110.02 50 109 C49.38125 108.9175 48.7625 108.835 48.125 108.75 C46 108 46 108 44.75 105.9375 C44.5025 105.298125 44.255 104.65875 44 104 C43.01 104 42.02 104 41 104 C40.608125 103.319375 40.21625 102.63875 39.8125 101.9375 C38.03489008 99.05654599 36.60261268 97.76197739 34 95.6875 C29.76543261 92.1574036 28.66722996 89.17718778 27 84 C25.515 83.01 25.515 83.01 24 82 C23.50373897 80.08112403 23.01551704 78.15926993 22.59375 76.22265625 C21.34891949 71.56273152 18.90603683 67.40939062 16.3125 63.375 C14.77319572 60.58959225 14.3653392 58.14191715 14 55 C13.505 57.475 13.505 57.475 13 60 C12.67 60 12.34 60 12 60 C11.96261719 59.35933594 11.92523438 58.71867187 11.88671875 58.05859375 C11.45656763 52.39915445 10.36731959 48.2081031 8 43 C7.2147597 40.02183251 6.58281285 37.02377022 6 34 C5.34 34.99 4.68 35.98 4 37 C2.86772192 29.98647168 1.81421274 23.00987721 1.24609375 15.92578125 C1.0974665 13.91974119 1.0974665 13.91974119 0 12 C-0.07065617 9.95944995 -0.08421976 7.91665743 -0.0625 5.875 C-0.05347656 4.77929688 -0.04445313 3.68359375 -0.03515625 2.5546875 C-0.02355469 1.71164063 -0.01195313 0.86859375 0 0 Z " fill="#0D6F95" transform="translate(32,228)"/>
<path d="M0 0 C0.87108398 0.00204437 1.74216797 0.00408875 2.63964844 0.00619507 C19.67556531 0.0711566 36.53156275 0.98728634 52.5 7.4375 C51.84 8.4275 51.18 9.4175 50.5 10.4375 C43.01868262 9.70835638 35.76596093 8.39132455 28.40429688 6.8984375 C-5.53252902 0.19610195 -41.46295857 5.47832817 -72.5 20.4375 C-73.23831055 20.79215332 -73.97662109 21.14680664 -74.73730469 21.51220703 C-115.16392944 41.24615231 -145.33452178 76.3932844 -160.29541016 118.68603516 C-166.67437254 137.5906472 -169.49094011 157.07054474 -170.0625 176.9375 C-170.10577737 178.34636473 -170.14939431 179.75521907 -170.19335938 181.1640625 C-170.29890571 184.5884546 -170.40101798 188.01291292 -170.5 191.4375 C-171.16 191.1075 -171.82 190.7775 -172.5 190.4375 C-172.55016131 185.97584423 -172.58607179 181.51434626 -172.60986328 177.05249023 C-172.61980161 175.54074233 -172.63335698 174.02901301 -172.65087891 172.51733398 C-172.74836385 163.87844751 -172.51283593 155.65883092 -170.93920898 147.12426758 C-170.34909953 143.51439848 -170.43240961 140.08738111 -170.5 136.4375 C-170.17 135.4475 -169.84 134.4575 -169.5 133.4375 C-168.84 133.4375 -168.18 133.4375 -167.5 133.4375 C-167.5 131.1275 -167.5 128.8175 -167.5 126.4375 C-166.51 125.9425 -166.51 125.9425 -165.5 125.4375 C-165.5825 124.798125 -165.665 124.15875 -165.75 123.5 C-165.44602568 119.77631461 -164.16182187 117.18773666 -162.57421875 113.83984375 C-161.52910118 111.50258082 -160.74678162 109.19663811 -160 106.75 C-159.0533553 103.74362287 -158.22330011 102.03872664 -156.375 99.375 C-154.52066088 96.46986871 -154.27224035 95.56647168 -154.0625 92.3125 C-153.37069315 87.54671951 -152.18924863 87.22693189 -148.5 84.4375 C-147.79187186 82.11641331 -147.11975848 79.78372853 -146.5 77.4375 C-145.015 76.9425 -145.015 76.9425 -143.5 76.4375 C-142.28130071 73.93302484 -142.28130071 73.93302484 -141.5 71.4375 C-140.51 71.4375 -139.52 71.4375 -138.5 71.4375 C-138.4175 70.65375 -138.335 69.87 -138.25 69.0625 C-138.0025 68.19625 -137.755 67.33 -137.5 66.4375 C-135.5625 65.375 -135.5625 65.375 -133.5 64.4375 C-132.3499169 62.47077085 -132.3499169 62.47077085 -131.5 60.4375 C-130.84 59.7775 -130.18 59.1175 -129.5 58.4375 C-128.51 58.4375 -127.52 58.4375 -126.5 58.4375 C-126.17 56.7875 -125.84 55.1375 -125.5 53.4375 C-124.84 53.4375 -124.18 53.4375 -123.5 53.4375 C-123.273125 52.86 -123.04625 52.2825 -122.8125 51.6875 C-121.1493356 48.83636103 -119.14496137 47.38973339 -116.5 45.4375 C-115.778125 44.86 -115.05625 44.2825 -114.3125 43.6875 C-112.5 42.4375 -112.5 42.4375 -110.5 42.4375 C-110.17 41.4475 -109.84 40.4575 -109.5 39.4375 C-106.5 37.4375 -106.5 37.4375 -103.5 37.4375 C-103.396875 36.798125 -103.29375 36.15875 -103.1875 35.5 C-102.960625 34.819375 -102.73375 34.13875 -102.5 33.4375 C-101.51 33.1075 -100.52 32.7775 -99.5 32.4375 C-98.239196 31.176696 -97.00529497 29.88782774 -95.8125 28.5625 C-91.11299423 24.24403524 -86.81990253 22.34034322 -80.5 21.4375 C-80.17 20.7775 -79.84 20.1175 -79.5 19.4375 C-77.17843403 19.03020772 -74.8431213 18.69311323 -72.5 18.4375 C-72.5 17.7775 -72.5 17.1175 -72.5 16.4375 C-70.94424022 15.59165002 -69.3800388 14.76131601 -67.8125 13.9375 C-66.94238281 13.4734375 -66.07226562 13.009375 -65.17578125 12.53125 C-62.38211171 11.38931208 -60.48370887 11.22245792 -57.5 11.4375 C-57.5 10.7775 -57.5 10.1175 -57.5 9.4375 C-56.84 9.4375 -56.18 9.4375 -55.5 9.4375 C-55.5 8.7775 -55.5 8.1175 -55.5 7.4375 C-52.50026017 6.83201973 -49.50021587 6.22811357 -46.5 5.625 C-45.68015625 5.45935547 -44.8603125 5.29371094 -44.015625 5.12304688 C-42.21798903 4.76215784 -40.41904315 4.40775896 -38.61914062 4.05834961 C-36.38343739 3.61334387 -34.15341617 3.13941464 -31.92773438 2.64672852 C-21.22567162 0.39835656 -10.91693299 -0.0772694 0 0 Z " fill="#0A6A92" transform="translate(203.5,34.5625)"/>
<path d="M0 0 C1 3 1 3 0.328125 4.90234375 C-0.20554687 5.90974609 -0.20554687 5.90974609 -0.75 6.9375 C-1.12511719 7.64648438 -1.50023437 8.35546875 -1.88671875 9.0859375 C-3 11 -3 11 -4.5625 13.0625 C-6.18915895 15.07159616 -6.18915895 15.07159616 -7.1875 18.125 C-9.62506015 24.12217179 -14.31152223 28.96874132 -18.5625 33.76171875 C-20.6893287 36.17339058 -21.99276257 37.97783538 -23 41.0625 C-24.24899647 44.73142712 -26.07364426 46.51259762 -29 49 C-29.66 49 -30.32 49 -31 49 C-31.37125 49.8971875 -31.37125 49.8971875 -31.75 50.8125 C-33.72314296 54.26550018 -36.25200866 55.64117339 -39.79296875 57.33984375 C-42.98190535 58.9906331 -45.69464829 60.84605164 -48.5625 63 C-51.25534196 65.01676674 -53.87245802 66.92537628 -56.77734375 68.625 C-59.12212934 69.80645467 -59.12212934 69.80645467 -60 72 C-59.34 72.33 -58.68 72.66 -58 73 C-58.845625 73.226875 -59.69125 73.45375 -60.5625 73.6875 C-64.67404851 75.25736398 -67.50393484 77.34299048 -71 80 C-71 79.34 -71 78.68 -71 78 C-71.66 78 -72.32 78 -73 78 C-73.495 79.485 -73.495 79.485 -74 81 C-75.65 81 -77.3 81 -79 81 C-79 81.99 -79 82.98 -79 84 C-85 86 -85 86 -87.33203125 86.6953125 C-88.12996094 86.94023437 -88.92789063 87.18515625 -89.75 87.4375 C-90.88695312 87.77587891 -90.88695312 87.77587891 -92.046875 88.12109375 C-94.34999003 88.94958859 -94.34999003 88.94958859 -96 92 C-98.81729236 92.52401049 -101.47044663 92.88282001 -104.3125 93.125 C-111.22595321 93.65821498 -111.22595321 93.65821498 -118 95 C-118.33 95.66 -118.66 96.32 -119 97 C-122.12092877 97.74639587 -125.36881187 97.86475971 -128.5625 98.125 C-129.55580322 98.20991699 -130.54910645 98.29483398 -131.57250977 98.38232422 C-145.68598957 99.44712869 -159.85781148 99.17447893 -174 99 C-174 98.34 -174 97.68 -174 97 C-168.67309957 96.12705629 -163.49438146 95.81157174 -158.1015625 95.71875 C-157.26716644 95.70034058 -156.43277039 95.68193115 -155.5730896 95.66296387 C-152.92379273 95.60465117 -150.27443411 95.55167507 -147.625 95.5 C-144.13790433 95.43171317 -140.65098086 95.35800646 -137.1640625 95.28125 C-136.37939606 95.26767456 -135.59472961 95.25409912 -134.7862854 95.2401123 C-129.47138451 95.12282145 -124.27718906 94.64824851 -119 94 C-119 93.34 -119 92.68 -119 92 C-117.9378125 91.81824219 -116.875625 91.63648438 -115.78125 91.44921875 C-108.56802077 90.18005887 -101.74721176 88.94423786 -95 86 C-94.35417969 85.74089844 -93.70835937 85.48179687 -93.04296875 85.21484375 C-90.22833107 84.07408428 -88.16831658 83.16831658 -86 81 C-84.01178687 80.60235737 -82.01055661 80.26224651 -80 80 C-80 79.34 -80 78.68 -80 78 C-79.35933594 77.85304688 -78.71867187 77.70609375 -78.05859375 77.5546875 C-71.62936566 75.88749572 -67.70589448 73.61758011 -63 69 C-59.5 66 -59.5 66 -55 66 C-55 65.34 -55 64.68 -55 64 C-54.01 64 -53.02 64 -52 64 C-51.67 62.68 -51.34 61.36 -51 60 C-49.68 59.67 -48.36 59.34 -47 59 C-47.061875 58.21625 -47.12375 57.4325 -47.1875 56.625 C-47.0946875 55.325625 -47.0946875 55.325625 -47 54 C-45.515 53.01 -45.515 53.01 -44 52 C-43.67 52.66 -43.34 53.32 -43 54 C-36.39207942 49.5185645 -28.60342992 43.81028975 -26 36 C-25.34 36 -24.68 36 -24 36 C-23.6596875 34.88625 -23.6596875 34.88625 -23.3125 33.75 C-21.74076853 30.45684836 -19.85106111 29.22521843 -17 27 C-15.9590934 25.35857037 -14.95495674 23.69287785 -14 22 C-13.31357422 21.37351562 -13.31357422 21.37351562 -12.61328125 20.734375 C-10.39910497 18.35400147 -9.22523921 15.73216104 -7.8125 12.8125 C-7.28269531 11.72582031 -6.75289062 10.63914062 -6.20703125 9.51953125 C-5.60955078 8.27236328 -5.60955078 8.27236328 -5 7 C-4.34 7 -3.68 7 -3 7 C-3 6.34 -3 5.68 -3 5 C-2.34 5 -1.68 5 -1 5 C-0.67 3.35 -0.34 1.7 0 0 Z " fill="#027CAE" transform="translate(359,288)"/>
<path d="M0 0 C-0.25 1.875 -0.25 1.875 -1 4 C-2.31647119 4.69937532 -3.65022151 5.36729133 -5 6 C-5.33 6.99 -5.66 7.98 -6 9 C-6.99 9 -7.98 9 -9 9 C-9 9.66 -9 10.32 -9 11 C-9.7425 11.268125 -10.485 11.53625 -11.25 11.8125 C-13.87046481 12.94406435 -15.7434989 14.28817158 -18 16 C-18.66 16 -19.32 16 -20 16 C-20.33 16.99 -20.66 17.98 -21 19 C-24.00440021 21.00293347 -25.70993945 21.49271626 -29.1875 22.125 C-30.08855469 22.29257812 -30.98960937 22.46015625 -31.91796875 22.6328125 C-32.60503906 22.75398438 -33.29210937 22.87515625 -34 23 C-34 23.66 -34 24.32 -34 25 C-35.11375 25.45375 -36.2275 25.9075 -37.375 26.375 C-40.96199008 27.72465986 -40.96199008 27.72465986 -43 30 C-44.98536627 30.70905938 -46.98910922 31.36694179 -49 32 C-50.29377418 32.49452112 -51.58535635 32.99480495 -52.875 33.5 C-59.72846087 36.06679048 -65.66257966 37.26205073 -73 37 C-73 37.66 -73 38.32 -73 39 C-83.8424185 41.51184933 -94.84559304 41.48612823 -105.91870117 41.68798828 C-109.19044104 41.75005579 -112.46120024 41.83320557 -115.73242188 41.91796875 C-117.83591118 41.96220743 -119.93942673 42.00521845 -122.04296875 42.046875 C-123.00881393 42.07279724 -123.97465912 42.09871948 -124.96977234 42.12542725 C-130.62943438 42.20966304 -136.71477725 42.29121139 -142 40 C-142.33 39.01 -142.66 38.02 -143 37 C-144.28583984 37.05220703 -144.28583984 37.05220703 -145.59765625 37.10546875 C-152.35403936 37.26542821 -156.99868959 37.06189306 -163 34 C-164.98821313 33.60235737 -166.98732362 33.24544834 -169 33 C-169 32.34 -169 31.68 -169 31 C-169.928125 30.7834375 -169.928125 30.7834375 -170.875 30.5625 C-173 30 -173 30 -175 29 C-175 28.34 -175 27.68 -175 27 C-170.01395519 27.5731086 -165.65552105 28.68082487 -160.9375 30.375 C-124.22257625 43.0038439 -77.22640486 41.35618853 -41.9375 24.6875 C-40.22499471 23.80672695 -38.51230013 22.92534541 -36.82373047 21.99951172 C-34.77425279 20.87627723 -32.70237062 19.80092958 -30.62890625 18.72265625 C-22.12422831 14.22028569 -14.21555299 9.28757088 -6.59375 3.40332031 C-2.17756608 0 -2.17756608 0 0 0 Z " fill="#0C6B91" transform="translate(313,343)"/>
<path d="M0 0 C0.66 0 1.32 0 2 0 C2.08071788 2.79224073 2.14035408 5.58216566 2.1875 8.375 C2.21263672 9.1690625 2.23777344 9.963125 2.26367188 10.78125 C2.29004405 12.85586148 2.15486462 14.93100865 2 17 C1.01 17.66 0.02 18.32 -1 19 C-1.8845009 22.29588945 -1.8845009 22.29588945 -2.4375 26.125 C-3.47016519 32.06105901 -4.98626182 36.77618716 -8 42 C-8.33 42.99 -8.66 43.98 -9 45 C-9.66 45 -10.32 45 -11 45 C-11.185625 46.5778125 -11.185625 46.5778125 -11.375 48.1875 C-11.91140782 51.45958771 -12.63880035 54.00536076 -14 57 C-14.66 57 -15.32 57 -16 57 C-16 57.66 -16 58.32 -16 59 C-16.66 59 -17.32 59 -18 59 C-18.20625 59.99 -18.4125 60.98 -18.625 62 C-19.99754742 66.80391596 -22.91387011 70.1606204 -26 74 C-27.04554658 75.41380559 -28.08730947 76.83041828 -29.125 78.25 C-31.23242353 81.07096062 -33.45959638 83.5536854 -36 86 C-36.33 86.66 -36.66 87.32 -37 88 C-37.66 88 -38.32 88 -39 88 C-39.05671875 88.53496094 -39.1134375 89.06992187 -39.171875 89.62109375 C-40.38330226 93.10108999 -42.77133478 95.42527787 -45.25 98.0625 C-45.72824219 98.59166016 -46.20648438 99.12082031 -46.69921875 99.66601562 C-49.52625881 102.71906566 -52.21697156 105.21936765 -56 107 C-56.66 106.67 -57.32 106.34 -58 106 C-54.41392466 101.76820048 -50.75213934 97.71849598 -46.75 93.875 C-22.27899281 69.57017961 -8.19971138 37.29312257 -1.46142578 3.94506836 C-1 2 -1 2 0 0 Z " fill="#106D91" transform="translate(372,236)"/>
<path d="M0 0 C1.0625 1.8125 1.0625 1.8125 2 4 C1.67 4.99 1.34 5.98 1 7 C1.66 7 2.32 7 3 7 C5.15121951 18.52439024 5.15121951 18.52439024 5 23.25 C4.82972764 27.00084742 4.82972764 27.00084742 5.984375 30.4765625 C7.42012814 35.99127511 7.29791626 41.45827156 7.25 47.125 C7.24468262 48.25631348 7.23936523 49.38762695 7.23388672 50.55322266 C7.14959621 58.1873821 6.79035173 65.76969575 6.125 73.375 C6.04668945 74.28910645 5.96837891 75.20321289 5.88769531 76.14501953 C5.47464803 80.3031871 4.94189234 83.27538683 3 87 C2.58727158 89.00969068 2.23679685 91.03281461 1.9375 93.0625 C1.46849682 96.19823203 1.00385447 98.9884366 0 102 C-0.268125 103.051875 -0.53625 104.10375 -0.8125 105.1875 C-2.70257524 111.25563629 -5.65146398 116.61322466 -9 122 C-9.556875 122.928125 -10.11375 123.85625 -10.6875 124.8125 C-11.3371875 125.8953125 -11.3371875 125.8953125 -12 127 C-13.04449911 123.86650268 -12.93423645 123.01031744 -12 120 C-11.34 120 -10.68 120 -10 120 C-9.896875 119.113125 -9.79375 118.22625 -9.6875 117.3125 C-9 114 -9 114 -7.546875 111.7734375 C-5.34069664 107.8179157 -4.89923508 103.68320538 -4.27148438 99.26367188 C-3.94140625 97.30078125 -3.94140625 97.30078125 -3 94 C-1.02 93.01 -1.02 93.01 1 92 C1 86.39 1 80.78 1 75 C0.34 75 -0.32 75 -1 75 C-1 73.02 -1 71.04 -1 69 C-0.01 70.32 0.98 71.64 2 73 C3.0101277 64.82200612 3.18620323 56.71523495 3.18530273 48.48828125 C3.1874823 46.26803191 3.20568196 44.04828654 3.22460938 41.828125 C3.26526309 31.4547968 2.93419613 21.00304273 -0.125 11 C-1.24309139 7.1665438 -1.82828301 3.65656602 0 0 Z " fill="#037DAF" transform="translate(373,161)"/>
<path d="M0 0 C0.33 0.66 0.66 1.32 1 2 C1.66 2 2.32 2 3 2 C4.19287411 5.87684087 5 8.91621923 5 13 C5.66 13 6.32 13 7 13 C11.04906408 19.98114496 12.67349447 27.09195359 14 35 C14.25922241 36.47460693 14.25922241 36.47460693 14.52368164 37.97900391 C15.92885547 46.68671966 16.28117762 55.13181986 16.20581055 63.92333984 C16.18745841 66.13000038 16.18530261 68.33623937 16.18554688 70.54296875 C16.1646177 78.73416681 15.85134729 86.84705158 15 95 C14.01 94.67 13.02 94.34 12 94 C12.01047363 93.03400879 12.02094727 92.06801758 12.03173828 91.07275391 C12.34825631 59.03245178 9.20231381 31.54672542 -1 1 C-0.67 0.67 -0.34 0.34 0 0 Z " fill="#0D6D95" transform="translate(361,141)"/>
<path d="M0 0 C0.33 0.66 0.66 1.32 1 2 C3.52733235 2.65555119 3.52733235 2.65555119 6 3 C6 3.66 6 4.32 6 5 C6.66 5 7.32 5 8 5 C8 6.32 8 7.64 8 9 C9.32 9.66 10.64 10.32 12 11 C12 12.32 12 13.64 12 15 C12.99 15 13.98 15 15 15 C19 20.14285714 19 20.14285714 19 24 C19.56589844 24.26167969 20.13179687 24.52335937 20.71484375 24.79296875 C26.47221939 27.83404409 32.25393809 31.9586638 35 38 C34.34 38.66 33.68 39.32 33 40 C31.2925002 38.71937515 29.62626404 37.38232443 28 36 C28 35.34 28 34.68 28 34 C27.34 34 26.68 34 26 34 C26 33.01 26 32.02 26 31 C25.38125 30.9175 24.7625 30.835 24.125 30.75 C22 30 22 30 20.75 27.9375 C20.5025 27.298125 20.255 26.65875 20 26 C19.01 26 18.02 26 17 26 C16.608125 25.319375 16.21625 24.63875 15.8125 23.9375 C14.03489008 21.05654599 12.60261268 19.76197739 10 17.6875 C5.76543261 14.1574036 4.66722996 11.17718778 3 6 C2.01 5.34 1.02 4.68 0 4 C0 2.68 0 1.36 0 0 Z " fill="#027AAB" transform="translate(56,306)"/>
<path d="M0 0 C2.4453369 2.4453369 2.23624629 3.76551458 2.25224304 7.10263062 C2.24505753 7.79837189 2.23787201 8.49411316 2.23046875 9.2109375 C2.23001053 9.93431305 2.22955231 10.6576886 2.2290802 11.40298462 C2.22605405 12.94136179 2.21815696 14.4797358 2.20581055 16.01806641 C2.18784051 18.33117009 2.18529905 20.64386586 2.18554688 22.95703125 C2.16483954 31.3506303 1.88400698 39.64415034 1 48 C0.01 47.67 -0.98 47.34 -2 47 C-2.1400186 36.30316239 -1.72745036 25.73136513 -1 15.0625 C-0.9031999 13.58922194 -0.80684383 12.11591464 -0.7109375 10.64257812 C-0.47904652 7.09470215 -0.241253 3.54725318 0 0 Z " fill="#08688F" transform="translate(375,188)"/>
<path d="M0 0 C1.65 0.33 3.3 0.66 5 1 C5 1.66 5 2.32 5 3 C5.65484375 2.98428955 6.3096875 2.9685791 6.984375 2.95239258 C9.98949331 2.88952066 12.99447263 2.85084512 16 2.8125 C17.54494141 2.77479492 17.54494141 2.77479492 19.12109375 2.73632812 C25.50114621 2.67537221 30.18541977 3.33731362 36 6 C35.34 6.99 34.68 7.98 34 9 C26.51868262 8.27085638 19.26596093 6.95382455 11.90429688 5.4609375 C5.9505663 4.28510862 0.04866043 3.49436558 -6 3 C-6 2.67 -6 2.34 -6 2 C-4.02 1.67 -2.04 1.34 0 1 C0 0.67 0 0.34 0 0 Z " fill="#157197" transform="translate(220,36)"/>
<path d="M0 0 C1 3 1 3 0.328125 4.90234375 C-1.5730437 8.49114409 -3.46866552 11.8083174 -6 15 C-6.474375 15.804375 -6.94875 16.60875 -7.4375 17.4375 C-9.10474093 20.17177513 -10.87646134 22.60245635 -13 25 C-13.66 25 -14.32 25 -15 25 C-15.14308594 25.86818359 -15.14308594 25.86818359 -15.2890625 26.75390625 C-16.15388762 29.48618343 -17.42055757 30.85523538 -19.375 32.9375 C-21.45354384 35.21037924 -23.07684473 37.13300049 -24.625 39.8125 C-26.32533136 42.51757261 -28.19046026 43.55726338 -31 45 C-29.50079488 41.88626628 -27.91847864 38.87771795 -26 36 C-25.34 36 -24.68 36 -24 36 C-23.773125 35.2575 -23.54625 34.515 -23.3125 33.75 C-21.74076853 30.45684836 -19.85106111 29.22521843 -17 27 C-15.9590934 25.35857037 -14.95495674 23.69287785 -14 22 C-13.54238281 21.58234375 -13.08476562 21.1646875 -12.61328125 20.734375 C-10.39910497 18.35400147 -9.22523921 15.73216104 -7.8125 12.8125 C-7.28269531 11.72582031 -6.75289063 10.63914062 -6.20703125 9.51953125 C-5.80871094 8.68808594 -5.41039062 7.85664063 -5 7 C-4.34 7 -3.68 7 -3 7 C-3 6.34 -3 5.68 -3 5 C-2.34 5 -1.68 5 -1 5 C-0.67 3.35 -0.34 1.7 0 0 Z " fill="#0275A5" transform="translate(359,288)"/>
<path d="M0 0 C0.66 0.66 1.32 1.32 2 2 C1.77978516 4.09082031 1.77978516 4.09082031 1.1640625 6.828125 C-0.55677058 16.07035212 -0.46554404 25.37864022 -0.625 34.75 C-0.66326544 36.62241229 -0.70232184 38.49480859 -0.7421875 40.3671875 C-0.83724004 44.91132549 -0.92160338 49.45554539 -1 54 C-3.29479765 50.35742796 -3.24449834 47.27644005 -3.23046875 43.03125 C-3.23001053 42.35509644 -3.22955231 41.67894287 -3.2290802 40.9822998 C-3.22606388 39.550031 -3.21819608 38.1177653 -3.20581055 36.68554688 C-3.1877935 34.53503246 -3.18529957 32.38495633 -3.18554688 30.234375 C-3.1640794 22.11755681 -2.83819379 14.07906924 -2 6 C-1.34 6 -0.68 6 0 6 C0 4.02 0 2.04 0 0 Z " fill="#0072A2" transform="translate(32,178)"/>
<path d="M0 0 C6.4440625 0.758125 6.4440625 0.758125 9.31640625 2.0078125 C13.53023515 3.5657638 17.78020367 3.45651138 22.234375 3.65625 C23.14703125 3.7696875 24.0596875 3.883125 25 4 C25.33 4.66 25.66 5.32 26 6 C29.02934491 6.65772428 29.02934491 6.65772428 32 7 C30 9 30 9 26.875 9.3125 C22.34375158 8.94707674 19.17304803 7.75707285 15 6 C15 6.66 15 7.32 15 8 C12.23723823 7.47731534 9.6739124 6.89130413 7 6 C6.3125 3.9375 6.3125 3.9375 6 2 C3.03 1.505 3.03 1.505 0 1 C0 0.67 0 0.34 0 0 Z " fill="#0279A7" transform="translate(145,376)"/>
<path d="M0 0 C1.32 0 2.64 0 4 0 C4 0.66 4 1.32 4 2 C4.639375 2.12375 5.27875 2.2475 5.9375 2.375 C6.618125 2.58125 7.29875 2.7875 8 3 C8.33 3.66 8.66 4.32 9 5 C9.845625 5.495 10.69125 5.99 11.5625 6.5 C12.366875 6.995 13.17125 7.49 14 8 C14 8.66 14 9.32 14 10 C14.804375 10.268125 15.60875 10.53625 16.4375 10.8125 C17.283125 11.204375 18.12875 11.59625 19 12 C19.33 12.99 19.66 13.98 20 15 C21.6476038 15.71247732 23.31763529 16.37400383 25 17 C27.3125 18.5 27.3125 18.5 29 20 C29 20.66 29 21.32 29 22 C29.66 22 30.32 22 31 22 C31.33 22.99 31.66 23.98 32 25 C32.66 25.33 33.32 25.66 34 26 C34 26.66 34 27.32 34 28 C34.66 28 35.32 28 36 28 C36 28.66 36 29.32 36 30 C32.55204777 28.46757679 29.7800962 26.55468299 27 24 C26.1875 21.75 26.1875 21.75 26 20 C25.443125 19.95875 24.88625 19.9175 24.3125 19.875 C20.86061611 18.56888177 19.32982956 15.79579547 17 13 C14.83468832 12.05563651 14.83468832 12.05563651 13 12 C13 11.01 13 10.02 13 9 C12.113125 8.773125 11.22625 8.54625 10.3125 8.3125 C6.53598615 6.81614546 4.69461792 4.99401991 2 2 C1.34 1.34 0.68 0.68 0 0 Z " fill="#0177A9" transform="translate(294,59)"/>
<path d="M0 0 C0.66 0.33 1.32 0.66 2 1 C2 3.97 2 6.94 2 10 C2.66 10 3.32 10 4 10 C4.33 9.01 4.66 8.02 5 7 C5.13277344 7.73605469 5.26554687 8.47210938 5.40234375 9.23046875 C5.57894531 10.20628906 5.75554687 11.18210938 5.9375 12.1875 C6.11152344 13.15042969 6.28554688 14.11335937 6.46484375 15.10546875 C6.9523735 17.74239972 7.46671105 20.3719905 8 23 C8.99 23 9.98 23 11 23 C11.33 26.3 11.66 29.6 12 33 C10.22293791 30.33440687 9.12451727 27.9719385 8 25 C7.34 25 6.68 25 6 25 C4.57741188 21.17679443 3.75957724 18.08718695 4 14 C3.195625 13.7525 2.39125 13.505 1.5625 13.25 C-1 12 -1 12 -1.8125 9.875 C-1.874375 9.25625 -1.93625 8.6375 -2 8 C-1.34 8 -0.68 8 0 8 C0 5.36 0 2.72 0 0 Z " fill="#0275A3" transform="translate(360,129)"/>
<path d="M0 0 C0 0.66 0 1.32 0 2 C-1.98 2.33 -3.96 2.66 -6 3 C-5.34 3.66 -4.68 4.32 -4 5 C-12.0822968 6.73396793 -19.81158352 7.65368672 -28 6 C-28.66 5.34 -29.32 4.68 -30 4 C-29.03960815 3.87153687 -29.03960815 3.87153687 -28.05981445 3.74047852 C-25.14381763 3.34947885 -22.22815863 2.95601325 -19.3125 2.5625 C-18.30509766 2.42779297 -17.29769531 2.29308594 -16.25976562 2.15429688 C-15.28330078 2.02216797 -14.30683594 1.89003906 -13.30078125 1.75390625 C-11.95753784 1.57323608 -11.95753784 1.57323608 -10.5871582 1.38891602 C-8.83549122 1.12559569 -7.09079601 0.8118454 -5.35620117 0.45288086 C-3 0 -3 0 0 0 Z " fill="#147195" transform="translate(244,377)"/>
<path d="M0 0 C-1 1 -1 1 -3.5625 1.0625 C-4.7690625 1.0315625 -4.7690625 1.0315625 -6 1 C-6 1.66 -6 2.32 -6 3 C-6.639375 3.12375 -7.27875 3.2475 -7.9375 3.375 C-8.618125 3.58125 -9.29875 3.7875 -10 4 C-10.33 4.66 -10.66 5.32 -11 6 C-11.78375 5.896875 -12.5675 5.79375 -13.375 5.6875 C-17.87376129 6.07532425 -20.76005621 7.77797623 -24.6328125 10.00390625 C-27.3025637 11.12731641 -28.34499113 11.02162784 -31 10 C-6.02687674 -2.14539875 -6.02687674 -2.14539875 0 0 Z " fill="#D4F4F9" transform="translate(158,46)"/>
<path d="M0 0 C0.33 0.99 0.66 1.98 1 3 C-4.75 8 -4.75 8 -7 8 C-7.33 8.99 -7.66 9.98 -8 11 C-8.99 11.33 -9.98 11.66 -11 12 C-11.33 12.99 -11.66 13.98 -12 15 C-13.84765625 15.94921875 -13.84765625 15.94921875 -16.0625 16.6875 C-16.79597656 16.93886719 -17.52945312 17.19023437 -18.28515625 17.44921875 C-18.85105469 17.63097656 -19.41695313 17.81273437 -20 18 C-19.505 16.515 -19.505 16.515 -19 15 C-16.9375 14.3125 -16.9375 14.3125 -15 14 C-15.0928125 12.824375 -15.0928125 12.824375 -15.1875 11.625 C-15.125625 10.75875 -15.06375 9.8925 -15 9 C-14.01 8.34 -13.02 7.68 -12 7 C-11.67 7.66 -11.34 8.32 -11 9 C-9.72689688 8.06558465 -8.456612 7.12732889 -7.1875 6.1875 C-6.47980469 5.66542969 -5.77210938 5.14335937 -5.04296875 4.60546875 C-3.21468607 3.16871123 -1.60103312 1.68184237 0 0 Z " fill="#0675A0" transform="translate(327,333)"/>
<path d="M0 0 C0.33 0 0.66 0 1 0 C1.33664217 4.82520445 0.47061693 6.94818823 -2 11 C-2.12375 12.03125 -2.2475 13.0625 -2.375 14.125 C-3.25008315 19.55051554 -5.59544759 24.09329342 -8 29 C-8.66 28.34 -9.32 27.68 -10 27 C-9.525625 26.195625 -9.05125 25.39125 -8.5625 24.5625 C-7.17135007 21.39067816 -6.81177706 19.86788796 -6.625 16.5625 C-6.28728215 12.19419299 -4.85753539 9.92833625 -2.14453125 6.57421875 C-0.62824687 4.48868085 -0.23112714 2.54239858 0 0 Z " fill="#0281B6" transform="translate(42,135)"/>
<path d="M0 0 C3.10468986 2.54020079 3.98485936 5.17370067 5 9 C5 10.32 5 11.64 5 13 C5.66 13 6.32 13 7 13 C7 14.32 7 15.64 7 17 C7.66 17 8.32 17 9 17 C9.66 19.64 10.32 22.28 11 25 C11.99 25 12.98 25 14 25 C13.67 26.65 13.34 28.3 13 30 C10.15617299 26.56659909 8.33752208 22.77747301 6.5 18.75 C6.19247803 18.08194336 5.88495605 17.41388672 5.56811523 16.72558594 C0 4.52353123 0 4.52353123 0 0 Z " fill="#E2FCFD" transform="translate(42,263)"/>
<path d="M0 0 C0.66 0 1.32 0 2 0 C3.79775047 7.25520727 4.80465645 14.52142826 4 22 C3.34 22.66 2.68 23.32 2 24 C1.93941406 23.30132812 1.87882812 22.60265625 1.81640625 21.8828125 C1.73261719 20.97273438 1.64882813 20.06265625 1.5625 19.125 C1.48128906 18.22007812 1.40007813 17.31515625 1.31640625 16.3828125 C1.13010715 13.98889139 1.13010715 13.98889139 0 12 C-0.07065617 9.95944995 -0.08421976 7.91665743 -0.0625 5.875 C-0.05347656 4.77929688 -0.04445313 3.68359375 -0.03515625 2.5546875 C-0.02355469 1.71164063 -0.01195313 0.86859375 0 0 Z " fill="#09678D" transform="translate(32,228)"/>
<path d="M0 0 C0.33 0 0.66 0 1 0 C1.24130116 12.84258402 0.72221049 25.26794387 -1 38 C-1.33 38 -1.66 38 -2 38 C-2.02895976 34.87501937 -2.04678483 31.7500731 -2.0625 28.625 C-2.07087891 27.73554688 -2.07925781 26.84609375 -2.08789062 25.9296875 C-2.09111328 25.07890625 -2.09433594 24.228125 -2.09765625 23.3515625 C-2.10289307 22.56604004 -2.10812988 21.78051758 -2.11352539 20.97119141 C-2 19 -2 19 -1 17 C-0.76725791 14.12089412 -0.58027243 11.25853505 -0.4375 8.375 C-0.39431641 7.57320312 -0.35113281 6.77140625 -0.30664062 5.9453125 C-0.20048543 3.9637489 -0.09973145 1.98189729 0 0 Z " fill="#DBF6FA" transform="translate(373,200)"/>
<path d="M0 0 C12.51545239 1.74207762 24.39925307 4.97479165 36 10 C31.24614684 11.58461772 27.64853468 9.58472773 23 8 C23 7.34 23 6.68 23 6 C22.19304687 6.0515625 21.38609375 6.103125 20.5546875 6.15625 C16.12298709 5.96144998 12.33627272 4.82048382 8.125 3.5 C7.34125 3.26152344 6.5575 3.02304687 5.75 2.77734375 C3.83106 2.19230107 1.91520146 1.59716749 0 1 C0 0.67 0 0.34 0 0 Z " fill="#E0FDFE" transform="translate(233,41)"/>
<path d="M0 0 C0.99 0.33 1.98 0.66 3 1 C2.01 1.66 1.02 2.32 0 3 C0 2.01 0 1.02 0 0 Z M-2 3 C-1.34 3.33 -0.68 3.66 0 4 C-1.1875 5.9375 -1.1875 5.9375 -3 8 C-3.845625 8.144375 -4.69125 8.28875 -5.5625 8.4375 C-6.7690625 8.7159375 -6.7690625 8.7159375 -8 9 C-8.433125 10.2065625 -8.433125 10.2065625 -8.875 11.4375 C-9.24625 12.283125 -9.6175 13.12875 -10 14 C-13.625 15.3125 -13.625 15.3125 -17 16 C-16.04270084 14.87411986 -15.08412105 13.7493285 -14.125 12.625 C-13.59132813 11.99851562 -13.05765625 11.37203125 -12.5078125 10.7265625 C-9.82121373 7.65019811 -7.76056779 6.50422712 -4 5 C-3.34 4.34 -2.68 3.68 -2 3 Z " fill="#0184B8" transform="translate(108,57)"/>
<path d="M0 0 C0.91007813 0.00902344 1.82015625 0.01804688 2.7578125 0.02734375 C3.45648438 0.03894531 4.15515625 0.05054688 4.875 0.0625 C4.875 0.7225 4.875 1.3825 4.875 2.0625 C3.555 2.0625 2.235 2.0625 0.875 2.0625 C0.875 2.7225 0.875 3.3825 0.875 4.0625 C0.17632812 4.19527344 -0.52234375 4.32804687 -1.2421875 4.46484375 C-2.15226563 4.64144531 -3.06234375 4.81804688 -4 5 C-4.90492188 5.17402344 -5.80984375 5.34804688 -6.7421875 5.52734375 C-9.12456317 5.96213701 -9.12456317 5.96213701 -11.125 7.0625 C-10.795 6.0725 -10.465 5.0825 -10.125 4.0625 C-9.135 4.0625 -8.145 4.0625 -7.125 4.0625 C-7.125 3.0725 -7.125 2.0825 -7.125 1.0625 C-4.60024538 -0.19987731 -2.81299534 -0.03606404 0 0 Z " fill="#0286BB" transform="translate(147.125,39.9375)"/>
<path d="M0 0 C1.32 0 2.64 0 4 0 C2.68 6.6 1.36 13.2 0 20 C-0.33 20 -0.66 20 -1 20 C-1.11044961 13.26257354 -0.70132913 6.70019789 0 0 Z " fill="#197196" transform="translate(36,161)"/>
<path d="M0 0 C1 3 1 3 -0.125 5.3125 C-2.25210521 8.36135081 -4.62071682 11.14486018 -7 14 C-7.556875 14.94875 -8.11375 15.8975 -8.6875 16.875 C-9.120625 17.57625 -9.55375 18.2775 -10 19 C-10.66 19 -11.32 19 -12 19 C-10.42686828 14.27156386 -7.79358765 10.6566157 -4.875 6.6875 C-4.17310547 5.71973633 -4.17310547 5.71973633 -3.45703125 4.73242188 C-2.3094071 3.15151106 -1.15534523 1.57527699 0 0 Z " fill="#D9F4F9" transform="translate(71,101)"/>
<path d="M0 0 C3.00621497 3.58484484 5.43002885 7.25255049 7.75 11.3125 C8.36359375 12.38113281 8.9771875 13.44976562 9.609375 14.55078125 C10.06828125 15.35902344 10.5271875 16.16726563 11 17 C10.01 17.33 9.02 17.66 8 18 C7.38125 16.3603125 7.38125 16.3603125 6.75 14.6875 C5.66291111 12.0888399 5.26314175 11.17800765 2.875 9.5625 C0.54948153 7.62456794 0.60913301 6.74712971 0.25 3.8125 C0.1675 2.554375 0.085 1.29625 0 0 Z " fill="#197295" transform="translate(54,293)"/>
<path d="M0 0 C0.66 0.33 1.32 0.66 2 1 C-3.33333333 6.33333333 -8.66666667 11.66666667 -14 17 C-14.99 16.67 -15.98 16.34 -17 16 C-5.47835991 4.29384966 -5.47835991 4.29384966 0 0 Z " fill="#D7F6FA" transform="translate(97,75)"/>
<path d="M0 0 C2.31 0.66 4.62 1.32 7 2 C7 2.66 7 3.32 7 4 C7.928125 4.268125 8.85625 4.53625 9.8125 4.8125 C12.76240366 5.91148371 14.05615186 6.62418561 16 9 C15.01 9.495 15.01 9.495 14 10 C11.6171875 9.00390625 11.6171875 9.00390625 8.875 7.5625 C7.96492188 7.08941406 7.05484375 6.61632812 6.1171875 6.12890625 C5.41851562 5.75636719 4.71984375 5.38382812 4 5 C4 4.34 4 3.68 4 3 C2.68 3 1.36 3 0 3 C0 2.01 0 1.02 0 0 Z " fill="#0378AA" transform="translate(115,361)"/>
<path d="M0 0 C0.66 0.33 1.32 0.66 2 1 C2 1.66 2 2.32 2 3 C2.85464844 3.25394531 3.70929688 3.50789063 4.58984375 3.76953125 C5.69457031 4.11371094 6.79929687 4.45789062 7.9375 4.8125 C9.59072266 5.31716797 9.59072266 5.31716797 11.27734375 5.83203125 C12.17582031 6.21746094 13.07429688 6.60289063 14 7 C14.33 7.99 14.66 8.98 15 10 C12.44999697 9.5096148 10.57295703 8.77677299 8.25 7.5625 C4.50406814 5.76157122 1.04812913 4.90733929 -3 4 C-3 3.01 -3 2.02 -3 1 C-2.01 0.67 -1.02 0.34 0 0 Z " fill="#027BAB" transform="translate(279,49)"/>
<path d="M0 0 C0.66 0 1.32 0 2 0 C2.36263859 5.8022175 1.25684543 9.63999211 -1 15 C-1.66 15 -2.32 15 -3 15 C-2.69163768 12.87439563 -2.37818386 10.74952935 -2.0625 8.625 C-1.88847656 7.44164062 -1.71445312 6.25828125 -1.53515625 5.0390625 C-1 2 -1 2 0 0 Z " fill="#217593" transform="translate(372,236)"/>
<path d="M0 0 C1.27617187 0.00483398 1.27617187 0.00483398 2.578125 0.00976562 C3.46757812 0.01814453 4.35703125 0.02652344 5.2734375 0.03515625 C6.170625 0.03966797 7.0678125 0.04417969 7.9921875 0.04882812 C10.21100398 0.06063034 12.42968768 0.0770947 14.6484375 0.09765625 C14.6484375 0.42765625 14.6484375 0.75765625 14.6484375 1.09765625 C4.2534375 2.08765625 4.2534375 2.08765625 -6.3515625 3.09765625 C-6.3515625 2.43765625 -6.3515625 1.77765625 -6.3515625 1.09765625 C-4.00303722 -0.07660639 -2.61382185 -0.01742548 0 0 Z " fill="#DDF8FA" transform="translate(216.3515625,378.90234375)"/>
<path d="M0 0 C2 1 2 1 2.74609375 2.99609375 C3.20615542 4.62060528 3.66449586 6.24560527 4.12109375 7.87109375 C4.90991866 10.3425204 4.90991866 10.3425204 8 12 C8 13.32 8 14.64 8 16 C7.01 16 6.02 16 5 16 C1.91532502 10.60540561 0.44356295 6.20988129 0 0 Z " fill="#006C98" transform="translate(52,292)"/>
<path d="M0 0 C6.78473021 0.6523779 13.52213664 1.83380249 20 4 C20.33 4.66 20.66 5.32 21 6 C13.50559651 5.5003731 7.04349737 3.56235522 0 1 C0 0.67 0 0.34 0 0 Z " fill="#CDF1F7" transform="translate(148,372)"/>
<path d="M0 0 C0.99 0.66 1.98 1.32 3 2 C0.03 5.3 -2.94 8.6 -6 12 C-7 9 -7 9 -6 6 C-5.01 6 -4.02 6 -3 6 C-2.814375 4.7934375 -2.814375 4.7934375 -2.625 3.5625 C-2.41875 2.716875 -2.2125 1.87125 -2 1 C-1.34 0.67 -0.68 0.34 0 0 Z " fill="#156C93" transform="translate(80,87)"/>
<path d="M0 0 C0.99 0.495 0.99 0.495 2 1 C1.01 1.495 1.01 1.495 0 2 C0 1.34 0 0.68 0 0 Z M-2 2 C-1.34 2.33 -0.68 2.66 0 3 C-4.15207792 7.2626362 -8.36321221 11.26795129 -13 15 C-13.66 14.67 -14.32 14.34 -15 14 C-6.738041 5.55353075 -6.738041 5.55353075 -2 2 Z " fill="#2C2E2D" transform="translate(103,84)"/>
<path d="M0 0 C0 0.66 0 1.32 0 2 C-5.445 3.485 -5.445 3.485 -11 5 C-11 4.34 -11 3.68 -11 3 C-9.54293274 2.49632243 -8.08429904 1.99717444 -6.625 1.5 C-5.81289062 1.2215625 -5.00078125 0.943125 -4.1640625 0.65625 C-2 0 -2 0 0 0 Z M-12.75 5.3125 C-11.88375 5.6528125 -11.88375 5.6528125 -11 6 C-12.75 7.5625 -12.75 7.5625 -15 9 C-17.25 8.6875 -17.25 8.6875 -19 8 C-15.55384615 4.92307692 -15.55384615 4.92307692 -12.75 5.3125 Z " fill="#0180B5" transform="translate(135,47)"/>
<path d="M0 0 C1.50560497 2.85410334 2.63216796 5.68124642 3.625 8.75 C3.88539062 9.54921875 4.14578125 10.3484375 4.4140625 11.171875 C4.60742188 11.77515625 4.80078125 12.3784375 5 13 C3.68 13 2.36 13 1 13 C0.1276588 10.00519083 -0.10829766 7.36424089 -0.0625 4.25 C-0.05347656 3.45078125 -0.04445312 2.6515625 -0.03515625 1.828125 C-0.02355469 1.22484375 -0.01195312 0.6215625 0 0 Z " fill="#027CAF" transform="translate(39,267)"/>
<path d="M0 0 C5.83094895 -0.21203451 11.44413776 0.03052586 17 2 C17.33 2.66 17.66 3.32 18 4 C11.85845775 3.41509121 5.99320151 2.45933748 0 1 C0 0.67 0 0.34 0 0 Z " fill="#277797" transform="translate(236,41)"/>
<path d="M0 0 C8.57142857 0.85714286 8.57142857 0.85714286 12 3 C12 3.66 12 4.32 12 5 C9.03 4.67 6.06 4.34 3 4 C3 3.34 3 2.68 3 2 C2.01 1.67 1.02 1.34 0 1 C0 0.67 0 0.34 0 0 Z " fill="#027BAE" transform="translate(132,371)"/>
<path d="M0 0 C-0.57344937 2.86724686 -0.8614515 3.8614515 -3 6 C-6.125 5.625 -6.125 5.625 -9 5 C-9 4.34 -9 3.68 -9 3 C-2.25 0 -2.25 0 0 0 Z " fill="#157298" transform="translate(273,367)"/>
<path d="M0 0 C0.33 0.66 0.66 1.32 1 2 C0.34 2 -0.32 2 -1 2 C-1.12375 3.051875 -1.2475 4.10375 -1.375 5.1875 C-1.91140782 8.45958771 -2.63880035 11.00536076 -4 14 C-4.66 14 -5.32 14 -6 14 C-6 14.66 -6 15.32 -6 16 C-6.66 15.67 -7.32 15.34 -8 15 C-7.525625 14.29875 -7.05125 13.5975 -6.5625 12.875 C-4.91260143 9.83918663 -4.39631536 7.40831214 -4 4 C-3.34 4 -2.68 4 -2 4 C-2 3.01 -2 2.02 -2 1 C-1.34 0.67 -0.68 0.34 0 0 Z " fill="#036A96" transform="translate(362,279)"/>
<path d="M0 0 C0.33 0 0.66 0 1 0 C1 3.3 1 6.6 1 10 C-0.98 10.99 -0.98 10.99 -3 12 C-3.33 10.68 -3.66 9.36 -4 8 C-3.34 7.67 -2.68 7.34 -2 7 C-1.26924352 4.6859378 -0.59861742 2.35171131 0 0 Z " fill="#016B99" transform="translate(373,243)"/>
<path d="M0 0 C-2.31 1.65 -4.62 3.3 -7 5 C-7 4.34 -7 3.68 -7 3 C-7.66 3 -8.32 3 -9 3 C-9.33 3.99 -9.66 4.98 -10 6 C-11.65 6 -13.3 6 -15 6 C-14.38125 5.9175 -13.7625 5.835 -13.125 5.75 C-12.073125 5.37875 -12.073125 5.37875 -11 5 C-10.731875 4.360625 -10.46375 3.72125 -10.1875 3.0625 C-9 1 -9 1 -5.5 -0.3125 C-2 -1 -2 -1 0 0 Z " fill="#0082B6" transform="translate(295,363)"/>
<path d="M0 0 C0.33 0 0.66 0 1 0 C1 2.64 1 5.28 1 8 C1.66 8 2.32 8 3 8 C3 11.63 3 15.26 3 19 C2.67 19 2.34 19 2 19 C0.26044666 12.56986533 -0.24991456 6.65050424 0 0 Z " fill="#D1F1F7" transform="translate(34,224)"/>
<path d="M0 0 C0.33 0.66 0.66 1.32 1 2 C1.66 2 2.32 2 3 2 C3.38909985 3.45463481 3.76088029 4.91391207 4.125 6.375 C4.43824219 7.59316406 4.43824219 7.59316406 4.7578125 8.8359375 C4.83773438 9.55007812 4.91765625 10.26421875 5 11 C4.34 11.66 3.68 12.32 3 13 C1.68 9.04 0.36 5.08 -1 1 C-0.67 0.67 -0.34 0.34 0 0 Z " fill="#186F90" transform="translate(361,141)"/>
<path d="M0 0 C4.29 0.66 8.58 1.32 13 2 C13 2.66 13 3.32 13 4 C11.68 3.67 10.36 3.34 9 3 C9 3.66 9 4.32 9 5 C6.23723823 4.47731534 3.6739124 3.89130413 1 3 C0.67 2.01 0.34 1.02 0 0 Z " fill="#0482B6" transform="translate(151,379)"/>
<path d="M0 0 C0.66 0 1.32 0 2 0 C2.0825 0.61875 2.165 1.2375 2.25 1.875 C2.78131326 4.17469437 2.78131326 4.17469437 4.9375 4.9375 C7 6 7 6 8.3125 8.4375 C9 11 9 11 8 14 C6.66397562 11.85580015 5.33107996 9.70976582 4 7.5625 C3.6184375 6.95083984 3.236875 6.33917969 2.84375 5.70898438 C0 1.11328125 0 1.11328125 0 0 Z " fill="#DFFAFD" transform="translate(57,297)"/>
<path d="M0 0 C0.33 0 0.66 0 1 0 C0.91297874 2.27155498 0.80480478 4.54230743 0.6875 6.8125 C0.62949219 8.07707031 0.57148437 9.34164062 0.51171875 10.64453125 C0 14 0 14 -1.54296875 15.94921875 C-2.02378906 16.29597656 -2.50460938 16.64273438 -3 17 C-2.36934845 11.2190275 -1.34844868 5.6556294 0 0 Z " fill="#DBF9FC" transform="translate(39,163)"/>
<path d="M0 0 C0.33 0 0.66 0 1 0 C0.64989059 8.19256018 0.64989059 8.19256018 -2.0625 11.5625 C-2.701875 12.036875 -3.34125 12.51125 -4 13 C-3.67 10.69 -3.34 8.38 -3 6 C-2.34 6 -1.68 6 -1 6 C-0.67 4.02 -0.34 2.04 0 0 Z " fill="#0276AA" transform="translate(364,275)"/>
<path d="M0 0 C0.66 0 1.32 0 2 0 C2.103125 0.639375 2.20625 1.27875 2.3125 1.9375 C2.539375 2.618125 2.76625 3.29875 3 4 C3.99 4.33 4.98 4.66 6 5 C5.67 5.66 5.34 6.32 5 7 C3.125 6.8125 3.125 6.8125 1 6 C-0.25 3.4375 -0.25 3.4375 -1 1 C-0.67 0.67 -0.34 0.34 0 0 Z " fill="#086790" transform="translate(346,112)"/>
<path d="M0 0 C-0.33 0.99 -0.66 1.98 -1 3 C-1.99 3 -2.98 3 -4 3 C-4.33 4.32 -4.66 5.64 -5 7 C-6.32 7.33 -7.64 7.66 -9 8 C-9 7.34 -9 6.68 -9 6 C-8.34 6 -7.68 6 -7 6 C-6.71125 5.195625 -6.4225 4.39125 -6.125 3.5625 C-4.57187581 0.02482823 -3.82399698 0 0 0 Z " fill="#0275A3" transform="translate(105,65)"/>
<path d="M0 0 C0.99 0.33 1.98 0.66 3 1 C0.79249632 3.53862923 -0.70072015 4.41777414 -4 5 C-4.9075 5.185625 -5.815 5.37125 -6.75 5.5625 C-7.4925 5.706875 -8.235 5.85125 -9 6 C-6.11861791 3.75892504 -3.25320657 1.66831106 0 0 Z " fill="#016B98" transform="translate(117,57)"/>
<path d="M0 0 C-3.96 1.98 -7.92 3.96 -12 6 C-12 5.01 -12 4.02 -12 3 C-10.5682384 2.30062798 -9.12932968 1.61587282 -7.6875 0.9375 C-6.48673828 0.36322266 -6.48673828 0.36322266 -5.26171875 -0.22265625 C-3 -1 -3 -1 0 0 Z " fill="#176D90" transform="translate(129,56)"/>
<path d="M0 0 C4.72065967 1.54269924 9.41664092 3.07794619 14 5 C10.72199529 6.09266824 10.14727493 5.98914355 7 5 C5.948125 4.71125 4.89625 4.4225 3.8125 4.125 C2.884375 3.75375 1.95625 3.3825 1 3 C0.67 2.01 0.34 1.02 0 0 Z " fill="#D0F2F6" transform="translate(255,46)"/>
<path d="M0 0 C2.97 0.33 5.94 0.66 9 1 C9.33 1.99 9.66 2.98 10 4 C6.7 3.34 3.4 2.68 0 2 C0 1.34 0 0.68 0 0 Z " fill="#03678D" transform="translate(255,44)"/>
<path d="M0 0 C1.45922693 0.11409593 2.91740598 0.24165544 4.375 0.375 C5.59316406 0.47941406 5.59316406 0.47941406 6.8359375 0.5859375 C9 1 9 1 11 3 C7.7 3 4.4 3 1 3 C0.67 2.01 0.34 1.02 0 0 Z " fill="#066488" transform="translate(169,379)"/>
<path d="M0 0 C0 0.66 0 1.32 0 2 C-1.59860649 2.55786268 -3.20417905 3.09579568 -4.8125 3.625 C-5.70582031 3.92664063 -6.59914062 4.22828125 -7.51953125 4.5390625 C-10 5 -10 5 -13 3 C-11.2092015 2.49689942 -9.41733089 1.99761372 -7.625 1.5 C-6.62726563 1.2215625 -5.62953125 0.943125 -4.6015625 0.65625 C-2 0 -2 0 0 0 Z " fill="#287B9A" transform="translate(258,373)"/>
<path d="M0 0 C0.33 0 0.66 0 1 0 C1.66 3.96 2.32 7.92 3 12 C2.01 12 1.02 12 0 12 C-1.16063604 7.74433453 -0.76173392 4.3164922 0 0 Z " fill="#277C99" transform="translate(36,243)"/>
<path d="M0 0 C0.66 0.33 1.32 0.66 2 1 C0.73046875 2.46484375 -0.5390625 3.9296875 -1.80859375 5.39453125 C-3.20871231 7.10712971 -3.20871231 7.10712971 -4 10 C-5.32 10 -6.64 10 -8 10 C-8 9.34 -8 8.68 -8 8 C-6.34211215 6.65576661 -4.67423683 5.32381517 -3 4 C-1.23676495 1.87396815 -1.23676495 1.87396815 0 0 Z " fill="#0481B8" transform="translate(74,88)"/>
<path d="M0 0 C1.11375 0.598125 2.2275 1.19625 3.375 1.8125 C4.00148438 2.14894531 4.62796875 2.48539062 5.2734375 2.83203125 C7 4 7 4 9 7 C7.68 7.33 6.36 7.66 5 8 C4.67 7.01 4.34 6.02 4 5 C1.99983534 3.79117904 1.99983534 3.79117904 0 3 C0 2.01 0 1.02 0 0 Z " fill="#DEF9FB" transform="translate(299,68)"/>
<path d="M0 0 C0 0.66 0 1.32 0 2 C-4.79137588 3.6290678 -8.05632546 4.20577428 -13 3 C-13 2.67 -13 2.34 -13 2 C-11.39658445 1.66307215 -9.79223445 1.33058907 -8.1875 1 C-7.29417969 0.814375 -6.40085938 0.62875 -5.48046875 0.4375 C-3 0 -3 0 0 0 Z " fill="#2E7E99" transform="translate(244,377)"/>
<path d="M0 0 C-0.99 0.495 -0.99 0.495 -2 1 C-2 1.66 -2 2.32 -2 3 C-4.3431213 2.74438677 -6.67843403 2.40729228 -9 2 C-9.33 1.34 -9.66 0.68 -10 0 C-6.30458414 -0.95024979 -3.69541586 -0.95024979 0 0 Z " fill="#0D759C" transform="translate(140,369)"/>
<path d="M0 0 C0.99 0.33 1.98 0.66 3 1 C0.69 3.64 -1.62 6.28 -4 9 C-4.33 8.01 -4.66 7.02 -5 6 C-4.34 6 -3.68 6 -3 6 C-2.67 4.68 -2.34 3.36 -2 2 C-1.34 2 -0.68 2 0 2 C0 1.34 0 0.68 0 0 Z " fill="#DAF7FA" transform="translate(330,321)"/>
<path d="M0 0 C-1.32 0.33 -2.64 0.66 -4 1 C-4 1.66 -4 2.32 -4 3 C-6.64 3.33 -9.28 3.66 -12 4 C-8.7771058 -0.8343413 -5.44718932 -0.10277716 0 0 Z " fill="#0380B1" transform="translate(152,41)"/>
<path d="M0 0 C4.17148265 -0.19402245 7.28944583 -0.01430083 11 2 C11.33 2.99 11.66 3.98 12 5 C10.56068883 4.54738642 9.12361001 4.08767021 7.6875 3.625 C6.88699219 3.36976563 6.08648437 3.11453125 5.26171875 2.8515625 C3 2 3 2 0 0 Z " fill="#DAF7FA" transform="translate(135,367)"/>
<path d="M0 0 C4.75 1.875 4.75 1.875 7 3 C7 3.99 7 4.98 7 6 C6.01 6 5.02 6 4 6 C4 5.34 4 4.68 4 4 C2.68 3.67 1.36 3.34 0 3 C0 2.01 0 1.02 0 0 Z " fill="#146D94" transform="translate(108,353)"/>
<path d="M0 0 C0.66 0.33 1.32 0.66 2 1 C2.36923077 8.50769231 2.36923077 8.50769231 0.5 11 C0.005 11.33 -0.49 11.66 -1 12 C-1.33 10.68 -1.66 9.36 -2 8 C-1.34 8 -0.68 8 0 8 C0 5.36 0 2.72 0 0 Z " fill="#0D7AA8" transform="translate(360,129)"/>
<path d="M0 0 C0.66 0.33 1.32 0.66 2 1 C-0.31 3.97 -2.62 6.94 -5 10 C-5.33 9.01 -5.66 8.02 -6 7 C-4.78515625 5.17578125 -4.78515625 5.17578125 -3.0625 3.3125 C-2.49660156 2.68988281 -1.93070312 2.06726563 -1.34765625 1.42578125 C-0.90292969 0.95527344 -0.45820313 0.48476563 0 0 Z " fill="#D5F4F9" transform="translate(340,310)"/>
<path d="M0 0 C0.33 0 0.66 0 1 0 C1.25 2.75 1.25 2.75 1 6 C-1 8.375 -1 8.375 -3 10 C-3 6.13304322 -1.58090029 3.4911548 0 0 Z " fill="#227395" transform="translate(357,283)"/>
<path d="M0 0 C1.64877185 3.29754371 2.53158436 5.44004117 3 9 C2.67 9.66 2.34 10.32 2 11 C1.34 11 0.68 11 0 11 C0 7.37 0 3.74 0 0 Z " fill="#1D7397" transform="translate(39,256)"/>
<path d="M0 0 C0.99 0 1.98 0 3 0 C3.66 2.64 4.32 5.28 5 8 C2 7 2 7 0.8125 5.125 C0 3 0 3 0 0 Z " fill="#08668C" transform="translate(355,129)"/>
<path d="M0 0 C0.33 0 0.66 0 1 0 C1.33 3.63 1.66 7.26 2 11 C1.34 10.67 0.68 10.34 0 10 C-1.29411765 2.58823529 -1.29411765 2.58823529 0 0 Z " fill="#026B94" transform="translate(41,265)"/>
<path d="M0 0 C0.66 0 1.32 0 2 0 C2 2.31 2 4.62 2 7 C1.01 7.495 1.01 7.495 0 8 C-1.125 2.25 -1.125 2.25 0 0 Z " fill="#156C8C" transform="translate(372,236)"/>
<path d="M0 0 C1.67542976 0.28604898 3.34385343 0.61781233 5 1 C4.67 1.99 4.34 2.98 4 4 C3.01 4 2.02 4 1 4 C0.34 3.01 -0.32 2.02 -1 1 C-0.67 0.67 -0.34 0.34 0 0 Z " fill="#13709C" transform="translate(307,71)"/>
<path d="M0 0 C2.64 0.33 5.28 0.66 8 1 C8 1.99 8 2.98 8 4 C5.36 3.34 2.72 2.68 0 2 C0 1.34 0 0.68 0 0 Z " fill="#036C94" transform="translate(279,54)"/>
<path d="M0 0 C0.66 0.33 1.32 0.66 2 1 C1.01 2.485 1.01 2.485 0 4 C-3.625 4.6875 -3.625 4.6875 -7 5 C-6.34 4.67 -5.68 4.34 -5 4 C-5 3.34 -5 2.68 -5 2 C-2.625 0.9375 -2.625 0.9375 0 0 Z " fill="#0174A2" transform="translate(284,364)"/>
<path d="M0 0 C4 4.625 4 4.625 4 8 C3.34 8 2.68 8 2 8 C-0.1519437 4.77208445 -0.20086443 3.71599191 0 0 Z " fill="#1D789E" transform="translate(60,303)"/>
<path d="M0 0 C0.66 0.33 1.32 0.66 2 1 C1.38125 1.2475 0.7625 1.495 0.125 1.75 C-2.37818306 3.22246063 -2.83045281 4.41028837 -4 7 C-4.99 7.495 -4.99 7.495 -6 8 C-5.65120368 4.74456771 -4.97866739 3.98126893 -2.4375 1.75 C-1.633125 1.1725 -0.82875 0.595 0 0 Z " fill="#0384B6" transform="translate(82,80)"/>
<path d="M0 0 C0.66 0.99 1.32 1.98 2 3 C-0.475 4.485 -0.475 4.485 -3 6 C-3 5.34 -3 4.68 -3 4 C-3.66 3.67 -4.32 3.34 -5 3 C-3.35 2.01 -1.7 1.02 0 0 Z " fill="#1B7799" transform="translate(297,353)"/>
<path d="M0 0 C0.66 0 1.32 0 2 0 C3.61949011 2.57213134 4.04408751 3.67669159 3.625 6.75 C3.41875 7.4925 3.2125 8.235 3 9 C1.35173889 6.03312999 0.55728913 3.34373475 0 0 Z " fill="#227596" transform="translate(365,155)"/>
<path d="M0 0 C0.8125 1.6875 0.8125 1.6875 1 4 C-1.4375 6.75 -1.4375 6.75 -4 9 C-2.94124926 5.59687262 -1.99097846 2.98646769 0 0 Z " fill="#CFEEF5" transform="translate(54,127)"/>
<path d="M0 0 C2.0625 0.4375 2.0625 0.4375 4 1 C2.68 2.65 1.36 4.3 0 6 C-0.38218767 4.34385343 -0.71395102 2.67542976 -1 1 C-0.67 0.67 -0.34 0.34 0 0 Z " fill="#19749D" transform="translate(60,111)"/>
<path d="M0 0 C2.475 0.495 2.475 0.495 5 1 C5 2.65 5 4.3 5 6 C3.0625 5.25 3.0625 5.25 1 4 C0.25 1.875 0.25 1.875 0 0 Z " fill="#09668C" transform="translate(339,104)"/>
</svg>
